<svg width="32" height="32" viewBox="0 0 32 32" fill="none" xmlns="http://www.w3.org/2000/svg">
<g clip-path="url(#clip0_67_1263)">
<path d="M5.51733 9.37927H12.138V17.1034H1.37939L5.51733 9.37927Z" fill="white"/>
<path d="M31.0981 3.27783C31.8725 3.27794 32.4995 3.90581 32.4995 4.68018V18.8491C32.4994 19.6233 31.8724 20.2504 31.0981 20.2505H15.7524C14.978 20.2503 14.3512 19.623 14.3511 18.8491V4.68018C14.3511 3.9061 14.9779 3.27797 15.7524 3.27783H31.0981Z" fill="#D95F77" stroke="#FBEAE1"/>
<path d="M7.29297 21.6462C9.24653 21.6464 10.8308 23.2302 10.8311 25.1833C10.8311 27.1375 9.2468 28.7223 7.29297 28.7224C5.33956 28.7224 3.75488 27.1376 3.75488 25.1833C3.75509 23.2301 5.33979 21.6462 7.29297 21.6462ZM7.29297 24.3171C6.81421 24.3171 6.42599 24.7052 6.42578 25.1833C6.42578 25.663 6.8145 26.0515 7.29297 26.0515C7.77142 26.0514 8.16016 25.6629 8.16016 25.1833C8.15994 24.7053 7.7717 24.3173 7.29297 24.3171Z" fill="#D95F77" stroke="#FBEAE1"/>
<path d="M25.2371 21.6462C27.1907 21.6462 28.7749 23.2301 28.7751 25.1833C28.7751 27.1376 27.191 28.7224 25.2371 28.7224C23.2838 28.7222 21.7 27.1374 21.7 25.1833C21.7002 23.2303 23.284 21.6465 25.2371 21.6462ZM25.2371 24.3171C24.7589 24.3173 24.3711 24.7052 24.3708 25.1833C24.3708 25.6629 24.7592 26.0513 25.2371 26.0515C25.7155 26.0515 26.1042 25.663 26.1042 25.1833C26.104 24.7052 25.7158 24.3171 25.2371 24.3171Z" fill="#D95F77" stroke="#FBEAE1"/>
<path d="M12.5078 7.53894C13.1985 7.53914 13.7597 8.09855 13.7598 8.79089V23.7889H11.207L11.0742 23.494C10.4246 22.0473 8.97463 21.0381 7.29297 21.038C5.61159 21.038 4.15976 22.047 3.50977 23.494L3.37793 23.7889H0.751953C0.0611459 23.7889 -0.499751 23.2296 -0.5 22.538V14.6757C-0.499935 14.383 -0.397143 14.0982 -0.208008 13.8729L4.69531 7.98914V7.99011C4.93325 7.70302 5.28659 7.53898 5.65625 7.53894H12.5078ZM6.65234 10.6219C6.56974 10.6221 6.49092 10.6589 6.43848 10.7235L3.30762 14.58H3.30664C3.26728 14.6283 3.24609 14.6902 3.24609 14.7538V15.2733C3.24616 15.4254 3.36928 15.5487 3.52051 15.5487H9.71973C9.8719 15.5487 9.99505 15.4254 9.99512 15.2733V10.8973C9.99503 10.7446 9.87173 10.6219 9.71973 10.6219H6.65234Z" fill="#D95F77" stroke="#FBEAE1"/>
<path d="M24.7454 20.6744L23.1536 21.6061C22.4082 22.0424 21.8116 22.7019 21.4563 23.4938L21.3235 23.7897H15.2209C14.7108 23.7897 14.2983 23.376 14.2981 22.8668V21.5973L14.303 21.5035C14.35 21.0383 14.7421 20.6744 15.2209 20.6744H24.7454Z" fill="#D95F77" stroke="#FBEAE1"/>
<path d="M31.5237 20.6744C32.0342 20.6744 32.4464 21.0881 32.4465 21.5973V22.8668C32.4464 23.376 32.0338 23.7897 31.5237 23.7897H29.1516L29.0198 23.4938C28.6645 22.7018 28.067 22.0425 27.3215 21.6061L25.7307 20.6744H31.5237Z" fill="#D95F77" stroke="#FBEAE1"/>
</g>
<defs>
<clipPath id="clip0_67_1263">
<rect width="32" height="32" fill="white"/>
</clipPath>
</defs>
</svg>
