<svg width="151" height="53" viewBox="0 0 151 53" fill="none" xmlns="http://www.w3.org/2000/svg">
<path d="M129.08 46.5527C128.259 45.8691 127.849 45.2344 127.849 44.6484C127.849 44.0625 128.083 43.623 128.552 43.3301L132.097 39.8438C130.027 38.1055 128.992 36.0254 128.992 33.6035C128.992 31.1621 130.056 29.0137 132.185 27.1582C134.333 25.3027 136.746 24.375 139.421 24.375C140.027 24.375 140.486 24.3945 140.798 24.4336C140.955 22.9492 141.677 21.5527 142.966 20.2441C144.275 18.916 145.906 18.252 147.859 18.252C149.832 18.252 150.818 19.1309 150.818 20.8887C150.818 21.6504 150.593 22.2559 150.144 22.7051C149.714 23.1348 149.197 23.3496 148.591 23.3496C147.986 23.3496 147.449 23.1641 146.98 22.793C146.511 22.4219 146.189 21.9043 146.013 21.2402C144.841 21.5527 143.894 22.0605 143.171 22.7637C142.468 23.4473 142.117 24.0625 142.117 24.6094C143.679 25.1758 144.968 26.1523 145.984 27.5391C147 28.9062 147.507 30.332 147.507 31.8164C147.507 34.375 146.482 36.5723 144.431 38.4082C142.38 40.2441 140.066 41.1621 137.488 41.1621C135.789 41.1621 134.392 40.9473 133.298 40.5176C132.146 41.4746 131.57 42.1289 131.57 42.4805C131.57 43.0273 132.048 43.3301 133.005 43.3887L138.806 43.623C140.779 43.7012 142.322 44.0234 143.435 44.5898C144.548 45.1758 145.105 45.9961 145.105 47.0508C145.105 48.1055 144.802 49.0332 144.197 49.834C143.591 50.6348 142.761 51.2598 141.707 51.709C139.695 52.5684 137.156 52.998 134.089 52.998C132.566 52.998 131.16 52.832 129.871 52.5C127.351 51.8555 126.091 50.8594 126.091 49.5117C126.091 48.4375 126.882 47.5391 128.464 46.8164C128.699 46.6992 128.904 46.6113 129.08 46.5527ZM136.433 27.627C135.593 28.4668 134.988 29.4434 134.617 30.5566C134.265 31.6504 134.089 32.6367 134.089 33.5156C134.089 34.375 134.138 35.1074 134.236 35.7129C134.333 36.2988 134.5 36.8945 134.734 37.5C135.242 38.7891 136.14 39.4336 137.429 39.4336C138.718 39.4336 139.763 38.9844 140.564 38.0859C141.97 36.543 142.673 34.3262 142.673 31.4355C142.673 30.3223 142.38 29.1992 141.794 28.0664C141.208 26.9141 140.378 26.3379 139.304 26.3379C138.23 26.3379 137.273 26.7676 136.433 27.627ZM134.558 51.2988C138.914 51.2988 141.091 50.5371 141.091 49.0137C141.091 47.7051 137.732 47.0508 131.013 47.0508C130.525 47.0508 130.105 47.3242 129.753 47.8711C129.402 48.418 129.226 48.9258 129.226 49.3945C129.226 50.1367 129.685 50.6348 130.603 50.8887C131.521 51.1621 132.839 51.2988 134.558 51.2988Z" fill="#D4B45D"/>
<path d="M122.003 25.1953H126.573L124.259 33.9551C123.887 35.1855 123.702 36.3086 123.702 37.3242C123.702 38.3203 123.878 38.8184 124.229 38.8184C124.581 38.8184 125.059 38.5156 125.665 37.9102C126.29 37.2852 126.817 36.6602 127.247 36.0352L127.921 35.0977L129.18 36.2695C128.536 37.5195 127.716 38.6621 126.719 39.6973C124.786 41.709 123.106 42.7148 121.68 42.7148C120.001 42.7148 119.161 41.416 119.161 38.8184C119.161 38.3887 119.18 38.0664 119.219 37.8516C118.927 38.8477 118.37 39.7266 117.55 40.4883C115.987 41.9727 114.219 42.7148 112.247 42.7148C110.294 42.7148 108.721 42.0508 107.53 40.7227C106.358 39.375 105.772 37.6953 105.772 35.6836C105.772 32.5586 106.788 29.9219 108.819 27.7734C110.85 25.625 113.233 24.5508 115.968 24.5508C117.335 24.5508 118.468 24.9316 119.366 25.6934C120.264 26.4355 120.85 27.4121 121.124 28.623L122.003 25.1953ZM117.11 27.0703C115.977 27.0703 114.913 27.5488 113.917 28.5059C112.94 29.4434 112.188 30.5859 111.661 31.9336C111.134 33.2617 110.87 34.5605 110.87 35.8301C110.87 37.0996 111.143 38.125 111.69 38.9062C112.257 39.6875 113.116 40.0781 114.268 40.0781C115.44 40.0781 116.495 39.5508 117.432 38.4961C119.21 36.4648 120.098 34.0527 120.098 31.2598C120.098 28.4668 119.102 27.0703 117.11 27.0703Z" fill="#D4B45D"/>
<path d="M102.211 38.8184C101.254 39.9707 99.9844 40.9082 98.4023 41.6309C96.8203 42.3535 94.9941 42.7148 92.9238 42.7148C90.8535 42.7148 89.0957 42.0996 87.6504 40.8691C86.2246 39.6387 85.5117 38.0762 85.5117 36.1816C85.5117 35.9668 85.5508 35.5664 85.6289 34.9805C86.4297 29.6094 87.8848 23.7305 89.9941 17.3438C92.1035 10.9375 94.3691 6.16211 96.791 3.01758H101.771C100.307 4.6582 98.5488 8.14453 96.498 13.4766C94.4668 18.8086 92.8262 24.0625 91.5762 29.2383C93.9395 26.1133 96.5957 24.5508 99.5449 24.5508C101.381 24.5508 102.787 25.1758 103.764 26.4258C104.76 27.6562 105.258 29.0723 105.258 30.6738C105.258 32.2754 104.994 33.75 104.467 35.0977C103.939 36.4258 103.188 37.666 102.211 38.8184ZM90.668 34.9805C90.5117 35.8008 90.4336 36.6016 90.4336 37.3828C90.4336 38.1445 90.7168 38.9258 91.2832 39.7266C91.8496 40.5078 92.7188 40.8984 93.8906 40.8984C95.0625 40.8984 96.1367 40.3906 97.1133 39.375C98.9883 37.4023 99.9258 34.7949 99.9258 31.5527C99.9258 30.2246 99.7012 29.1406 99.252 28.3008C98.8027 27.4414 98.1094 27.0117 97.1719 27.0117C96.2344 27.0117 95.0625 27.7637 93.6562 29.2676C92.2695 30.7715 91.2734 32.6758 90.668 34.9805Z" fill="#D4B45D"/>
<path d="M69.3071 25.1953C71.3188 18.9453 73.3696 13.7109 75.4595 9.49219L79.0923 9.78516C78.8774 10.4102 78.3501 11.9141 77.5103 14.2969C75.6938 19.5508 74.522 23.1836 73.9946 25.1953H78.5942L78.1255 27.1289H73.3794C71.5825 32.6758 70.6841 36.0547 70.6841 37.2656C70.6841 38.457 70.8013 39.0527 71.0356 39.0527C71.2896 39.0527 71.5142 39.0039 71.7095 38.9062C72.2368 38.6133 73.3696 37.1875 75.1079 34.6289L76.3091 35.7129C75.0005 38.0957 73.6528 39.8633 72.2661 41.0156C70.8794 42.1484 69.7368 42.7148 68.8384 42.7148C67.9399 42.7148 67.2563 42.4023 66.7876 41.7773C66.3384 41.1523 66.1138 40.3516 66.1138 39.375C66.1138 36.8945 66.9829 32.8125 68.7212 27.1289H65.645L66.1138 25.1953H69.3071Z" fill="#D4B45D"/>
<path d="M60.853 27.1289L60.1499 30.1172C58.8413 35.6445 57.7573 39.5312 56.8979 41.7773C55.2378 46.0547 53.1089 48.7598 50.5112 49.8926C49.437 50.3613 48.353 50.5957 47.2593 50.5957C46.146 50.5957 45.3647 50.3809 44.9155 49.9512C44.4663 49.541 44.2417 49.0332 44.2417 48.4277C44.2417 47.8418 44.437 47.334 44.8276 46.9043C45.2183 46.4746 45.7163 46.2598 46.3218 46.2598C46.9077 46.2598 47.396 46.3965 47.7866 46.6699C48.1772 46.9434 48.3726 47.3145 48.3726 47.7832C48.3726 48.2715 48.2358 48.7305 47.9624 49.1602C49.9741 48.8477 51.7808 45.0391 53.3823 37.7344C53.6362 36.582 53.9194 35.2148 54.2319 33.6328C54.564 32.0312 54.8179 30.8594 54.9937 30.1172L55.6968 27.1289H50.189L50.6577 25.1953H56.1069C58.4312 15.7617 61.1558 9.17969 64.2808 5.44922C66.8589 2.38281 69.9741 0.849609 73.6265 0.849609C75.2671 0.849609 76.644 1.18164 77.7573 1.8457C78.8901 2.50977 79.4565 3.61328 79.4565 5.15625C79.4565 6.05469 79.144 6.76758 78.519 7.29492C77.9136 7.80273 77.1909 8.05664 76.3511 8.05664C75.5308 8.05664 74.8276 7.82227 74.2417 7.35352C73.6753 6.86523 73.3921 6.24023 73.3921 5.47852C73.3921 4.7168 73.6558 3.97461 74.1831 3.25195C73.2261 2.91992 72.4741 2.75391 71.9272 2.75391C71.3804 2.75391 70.7261 3.02734 69.9644 3.57422C69.2222 4.10156 68.5581 4.81445 67.9722 5.71289C65.687 9.22852 63.4604 15.7227 61.2925 25.1953H68.2944L67.8257 27.1289H60.853Z" fill="#D4B45D"/>
<path d="M43.3171 42.7148C42.4968 42.7148 41.8523 42.4609 41.3835 41.9531C40.9148 41.4453 40.6804 40.752 40.6804 39.873C40.6804 38.9746 40.905 37.7637 41.3542 36.2402C41.823 34.6973 42.282 33.3008 42.7312 32.0508C43.2 30.8008 43.4343 29.9707 43.4343 29.5605C43.4343 29.1309 43.2976 28.916 43.0242 28.916C42.3406 28.916 41.2371 30.2637 39.7136 32.959L37.7507 31.8164C40.6218 26.9727 43.2585 24.5508 45.6609 24.5508C47.3015 24.5508 48.1218 25.5859 48.1218 27.6562C48.1218 28.2617 47.9265 29.2285 47.5359 30.5566L45.4265 36.5918C45.2117 37.1582 45.1042 37.6758 45.1042 38.1445C45.1042 38.5938 45.28 38.8184 45.6316 38.8184C46.2957 38.8184 47.5164 37.5879 49.2937 35.127L50.5242 36.2695C49.4695 38.2227 48.2097 39.7852 46.7449 40.957C45.2996 42.1289 44.157 42.7148 43.3171 42.7148ZM51.6667 15.9082C51.6667 16.6895 51.4031 17.4023 50.8757 18.0469C50.3484 18.6914 49.6355 19.0137 48.7371 19.0137C47.8386 19.0137 47.1648 18.75 46.7156 18.2227C46.2664 17.6758 46.0417 16.9922 46.0417 16.1719C46.0417 15.3516 46.3152 14.6289 46.8621 14.0039C47.4285 13.3594 48.1511 13.0371 49.03 13.0371C49.9089 13.0371 50.5632 13.3203 50.9929 13.8867C51.4421 14.4336 51.6667 15.1074 51.6667 15.9082Z" fill="#D4B45D"/>
<path d="M39.3457 6.35742C36.7285 3.79883 33.8281 2.51953 30.6445 2.51953C24.5508 2.51953 19.5703 5.44922 15.7031 11.3086C13.457 14.707 12.334 18.3203 12.334 22.1484C12.334 25.1953 13.0957 27.6953 14.6191 29.6484C16.2598 31.7773 18.7402 32.8418 22.0605 32.8418C24.6777 32.8418 27.2168 32.0215 29.6777 30.3809C32.1387 28.7207 33.9453 26.5332 35.0977 23.8184L39.3457 23.7598C37.373 32.7637 33.8965 39.7852 28.916 44.8242C23.9551 49.8633 18.0371 52.3828 11.1621 52.3828C7.58789 52.3828 4.83398 51.6504 2.90039 50.1855C0.966797 48.7207 0 46.9629 0 44.9121C0 42.8809 0.966797 41.1133 2.90039 39.6094C4.83398 38.0859 7.48047 37.3242 10.8398 37.3242C14.1797 37.3242 16.8262 38.0859 18.7793 39.6094L17.5195 42.1875C15.7227 41.4258 13.6035 41.0449 11.1621 41.0449C8.7207 41.0449 6.68945 41.4453 5.06836 42.2461C3.44727 43.0664 2.63672 44.0723 2.63672 45.2637C2.63672 46.4551 3.41797 47.4707 4.98047 48.3105C6.5625 49.1504 8.7793 49.5703 11.6309 49.5703C16.1816 49.5703 20.3223 47.7832 24.0527 44.209C27.8027 40.6543 30.9961 35.4297 33.6328 28.5352C32.0117 30.8203 30.0391 32.5684 27.7148 33.7793C25.3906 34.9902 23.1445 35.5957 20.9766 35.5957C18.8281 35.5957 16.9238 35.3223 15.2637 34.7754C13.623 34.209 12.1484 33.4082 10.8398 32.373C9.55078 31.3184 8.51562 29.9512 7.73438 28.2715C6.97266 26.5723 6.5918 24.668 6.5918 22.5586C6.5918 20.4492 6.93359 18.3301 7.61719 16.2012C8.32031 14.0527 9.36523 12.0117 10.752 10.0781C12.1387 8.14453 13.7695 6.42578 15.6445 4.92188C17.5391 3.41797 19.7754 2.22656 22.3535 1.34766C24.9316 0.449219 27.6562 0 30.5273 0C33.3398 0 36.0059 0.664062 38.5254 1.99219C39.7754 2.63672 40.791 3.53516 41.5723 4.6875C42.373 5.83984 42.7734 7.1582 42.7734 8.64258C42.7734 10.127 42.334 11.2793 41.4551 12.0996C40.5762 12.9004 39.5801 13.3008 38.4668 13.3008C37.373 13.3008 36.4648 13.0078 35.7422 12.4219C35.0195 11.8359 34.6582 11.0352 34.6582 10.0195C34.6582 7.57812 36.2207 6.35742 39.3457 6.35742Z" fill="#D4B45D"/>
</svg>
