<svg width="32" height="24" viewBox="0 0 32 24" fill="none" xmlns="http://www.w3.org/2000/svg">
<path d="M16.5037 23.4644C16.304 23.4644 16.1339 23.3941 15.9934 23.2536C15.8603 23.1131 15.7937 22.9467 15.7937 22.7544C15.7937 22.5621 15.8603 22.3993 15.9934 22.2662C16.1339 22.1257 16.304 22.0554 16.5037 22.0554C16.696 22.0554 16.8625 22.1257 17.003 22.2662C17.1435 22.3993 17.2138 22.5621 17.2138 22.7544C17.2138 22.9467 17.1435 23.1131 17.003 23.2536C16.8625 23.3941 16.696 23.4644 16.5037 23.4644Z" fill="#D95F77"/>
<path d="M11.7883 23.4532C11.2484 23.4532 10.7713 23.3164 10.3571 23.0427C9.94293 22.769 9.6212 22.4177 9.39191 21.9887C9.17003 21.5524 9.05908 21.1012 9.05908 20.6352C9.05908 20.1471 9.17003 19.6885 9.39191 19.2595C9.6138 18.8306 9.93184 18.4866 10.346 18.2278C10.7602 17.9615 11.241 17.8284 11.7883 17.8284C12.3356 17.8284 12.8164 17.9615 13.2306 18.2278C13.6447 18.4866 13.9628 18.8306 14.1847 19.2595C14.4066 19.6885 14.5175 20.1471 14.5175 20.6352C14.5175 21.1012 14.4029 21.5524 14.1736 21.9887C13.9517 22.4177 13.6336 22.769 13.2195 23.0427C12.8053 23.3164 12.3282 23.4532 11.7883 23.4532ZM11.7883 23.1093C12.2616 23.1093 12.6315 22.8726 12.8977 22.3992C13.1714 21.9185 13.3082 21.3305 13.3082 20.6352C13.3082 19.9178 13.1751 19.3261 12.9088 18.8601C12.6426 18.3942 12.269 18.1612 11.7883 18.1612C11.3075 18.1612 10.934 18.3942 10.6678 18.8601C10.4015 19.3261 10.2684 19.9178 10.2684 20.6352C10.2684 21.3305 10.4015 21.9185 10.6678 22.3992C10.9414 22.8726 11.3149 23.1093 11.7883 23.1093Z" fill="#D95F77"/>
<path d="M0.0776604 23.2982C0.0332831 23.2982 0.0110944 23.2501 0.0110944 23.1539C0.0110944 23.0652 0.0332831 23.0208 0.0776604 23.0208H0.221887C0.458566 23.0208 0.673057 22.9321 0.865359 22.7545C1.06506 22.577 1.16491 22.3441 1.16491 22.0556V16.1978C1.09834 15.9537 0.991094 15.7762 0.84317 15.6653C0.702641 15.5469 0.499245 15.4767 0.232981 15.4545L0.0776604 15.4434C0.0258868 15.436 0 15.3916 0 15.3102C0 15.2141 0.0258868 15.166 0.0776604 15.166H2.26325L6.51238 21.2457V16.4086C6.51238 16.1201 6.40883 15.8871 6.20174 15.7096C6.00204 15.5321 5.78755 15.4434 5.55826 15.4434H5.41404C5.36226 15.4434 5.33638 15.399 5.33638 15.3102C5.33638 15.2141 5.36226 15.166 5.41404 15.166H8.0323C8.06928 15.166 8.09147 15.1771 8.09887 15.1993C8.11366 15.2215 8.12106 15.2585 8.12106 15.3102C8.12106 15.399 8.09147 15.4434 8.0323 15.4434H7.89917C7.65509 15.4434 7.43691 15.5321 7.2446 15.7096C7.0523 15.8798 6.95615 16.1127 6.95615 16.4086V23.2982H6.39034L1.60868 16.4086V22.0556C1.60868 22.3514 1.70853 22.5881 1.90823 22.7656C2.11532 22.9358 2.33721 23.0208 2.57389 23.0208H2.70702C2.75879 23.0208 2.78468 23.0652 2.78468 23.1539C2.78468 23.2501 2.75879 23.2982 2.70702 23.2982H0.0776604Z" fill="#D95F77"/>
<path d="M20.6467 23.2981C20.4988 23.2981 20.4248 23.1502 20.4248 22.8543C20.4248 22.5374 20.4988 22.3789 20.6467 22.3789H21.1539C22.1893 22.3789 23.024 22.2204 23.658 21.9034C24.292 21.5864 24.609 21.0898 24.609 20.4136V5.23019C24.609 4.59623 24.5456 4.17358 24.4188 3.96226C24.3131 3.72981 24.0384 3.58189 23.5946 3.51849C23.172 3.43396 22.369 3.3917 21.1856 3.3917H20.6467C20.4988 3.3917 20.4248 3.23321 20.4248 2.91623C20.4248 2.62038 20.4988 2.47245 20.6467 2.47245C21.978 2.47245 23.1614 2.28226 24.1969 1.90189C25.2324 1.50038 26.215 0.866415 27.1448 0V20.4136C27.1448 21.7238 28.2965 22.3789 30.5999 22.3789H31.0754C31.1599 22.3789 31.2127 22.4211 31.2339 22.5057C31.2761 22.5691 31.2973 22.6853 31.2973 22.8543C31.2973 23.1502 31.2233 23.2981 31.0754 23.2981H20.6467Z" fill="#D95F77"/>
</svg>
