<svg width="33" height="23" viewBox="0 0 33 23" fill="none" xmlns="http://www.w3.org/2000/svg">
<path d="M30.6707 22.8125H19.0849L18.7666 22.1297C19.3607 20.5365 20.114 19.088 21.0265 17.7845C21.9389 16.4809 23.159 14.929 24.6868 13.1289C26.2358 11.3701 27.3605 9.92164 28.0607 8.7836C28.761 7.62487 29.1111 6.44545 29.1111 5.24533C29.1111 4.12798 28.7928 3.14513 28.1562 2.29677C27.5196 1.44842 26.5223 1.02424 25.1643 1.02424C24.1669 1.02424 23.3182 1.27254 22.6179 1.76914C21.9177 2.24504 21.5676 2.83475 21.5676 3.53827C21.5676 3.80726 21.5994 4.03487 21.6631 4.2211C21.7479 4.40732 21.8752 4.61424 22.045 4.84184C22.1935 5.06945 22.2996 5.27637 22.3633 5.46259C22.4482 5.62813 22.4906 5.83504 22.4906 6.08334C22.4906 6.57994 22.3315 6.98343 22.0132 7.29381C21.7161 7.58349 21.3235 7.72833 20.8355 7.72833C20.4111 7.72833 20.0185 7.53176 19.6578 7.13862C19.3183 6.72478 19.1486 6.16611 19.1486 5.46259C19.1486 4.697 19.382 3.89003 19.8488 3.04167C20.3368 2.19331 21.0583 1.47945 22.0132 0.900086C22.9893 0.300028 24.1776 0 25.578 0C27.1058 0 28.3366 0.300028 29.2702 0.900086C30.2039 1.47945 30.8617 2.21401 31.2436 3.10375C31.6468 3.9728 31.8484 4.88323 31.8484 5.83504C31.8484 6.70409 31.6998 7.46969 31.4028 8.13182C31.1057 8.77326 30.7025 9.37332 30.1933 9.93199C29.684 10.47 28.9201 11.1942 27.9016 12.1046C27.6682 12.3322 27.3711 12.6012 27.0103 12.9116C26.6496 13.222 26.2358 13.6048 25.769 14.06C23.6471 16.1498 22.0556 18.3121 20.9946 20.5468H24.7823C26.3313 20.5468 27.4878 20.464 28.2517 20.2985C29.0156 20.1123 29.5885 19.7916 29.9705 19.3363C30.3736 18.8811 30.7662 18.1466 31.1481 17.1327C31.1906 17.0085 31.2648 16.9465 31.3709 16.9465C31.3922 16.9465 31.4876 16.9672 31.6574 17.0085C31.7847 17.0499 31.8802 17.0913 31.9439 17.1327C32.0075 17.1741 32.0394 17.2361 32.0394 17.3189L32.0075 17.4741L30.6707 22.8125Z" fill="#767676"/>
<path d="M16.1351 22.889C15.9399 22.889 15.7736 22.8203 15.6362 22.6829C15.506 22.5455 15.4409 22.3828 15.4409 22.1948C15.4409 22.0068 15.506 21.8477 15.6362 21.7176C15.7736 21.5802 15.9399 21.5115 16.1351 21.5115C16.3231 21.5115 16.4858 21.5802 16.6232 21.7176C16.7606 21.8477 16.8293 22.0068 16.8293 22.1948C16.8293 22.3828 16.7606 22.5455 16.6232 22.6829C16.4858 22.8203 16.3231 22.889 16.1351 22.889Z" fill="#767676"/>
<path d="M11.5252 22.8782C10.9974 22.8782 10.5309 22.7444 10.126 22.4769C9.72106 22.2093 9.4065 21.8658 9.18234 21.4464C8.9654 21.0198 8.85693 20.5787 8.85693 20.1231C8.85693 19.6459 8.9654 19.1975 9.18234 18.7781C9.39927 18.3587 9.71021 18.0225 10.1152 17.7694C10.5201 17.5091 10.9901 17.3789 11.5252 17.3789C12.0603 17.3789 12.5304 17.5091 12.9353 17.7694C13.3402 18.0225 13.6512 18.3587 13.8681 18.7781C14.0851 19.1975 14.1935 19.6459 14.1935 20.1231C14.1935 20.5787 14.0814 21.0198 13.8573 21.4464C13.6403 21.8658 13.3294 22.2093 12.9245 22.4769C12.5195 22.7444 12.0531 22.8782 11.5252 22.8782ZM11.5252 22.5419C11.988 22.5419 12.3496 22.3105 12.6099 21.8478C12.8775 21.3777 13.0112 20.8029 13.0112 20.1231C13.0112 19.4217 12.8811 18.8432 12.6207 18.3877C12.3604 17.9321 11.9953 17.7043 11.5252 17.7043C11.0552 17.7043 10.69 17.9321 10.4297 18.3877C10.1694 18.8432 10.0392 19.4217 10.0392 20.1231C10.0392 20.8029 10.1694 21.3777 10.4297 21.8478C10.6973 22.3105 11.0624 22.5419 11.5252 22.5419Z" fill="#767676"/>
<path d="M0.0759271 22.7265C0.0325402 22.7265 0.0108468 22.6795 0.0108468 22.5855C0.0108468 22.4987 0.0325402 22.4554 0.0759271 22.4554H0.216934C0.448331 22.4554 0.658034 22.3686 0.846044 22.195C1.04128 22.0215 1.13891 21.7937 1.13891 21.5117V15.7846C1.07383 15.546 0.968973 15.3724 0.82435 15.264C0.686959 15.1483 0.488102 15.0796 0.227781 15.0579L0.0759271 15.047C0.025309 15.0398 0 14.9964 0 14.9169C0 14.8229 0.025309 14.7759 0.0759271 14.7759H2.21273L6.36702 20.7199V15.9907C6.36702 15.7087 6.26579 15.4809 6.06332 15.3074C5.86807 15.1338 5.65837 15.047 5.43421 15.047H5.2932C5.24258 15.047 5.21727 15.0037 5.21727 14.9169C5.21727 14.8229 5.24258 14.7759 5.2932 14.7759H7.85302C7.88918 14.7759 7.91087 14.7867 7.9181 14.8084C7.93257 14.8301 7.9398 14.8663 7.9398 14.9169C7.9398 15.0037 7.91087 15.047 7.85302 15.047H7.72286C7.48423 15.047 7.27092 15.1338 7.08291 15.3074C6.8949 15.4737 6.80089 15.7015 6.80089 15.9907V22.7265H6.24771L1.57277 15.9907V21.5117C1.57277 21.8009 1.67039 22.0323 1.86564 22.2059C2.06811 22.3722 2.28504 22.4554 2.51644 22.4554H2.6466C2.69722 22.4554 2.72253 22.4987 2.72253 22.5855C2.72253 22.6795 2.69722 22.7265 2.6466 22.7265H0.0759271Z" fill="#767676"/>
</svg>
