<svg width="33" height="24" viewBox="0 0 33 24" fill="none" xmlns="http://www.w3.org/2000/svg">
<path d="M26.6845 11.247C28.381 11.5674 29.7607 12.251 30.8236 13.2977C31.8865 14.3445 32.418 15.6475 32.418 17.2069C32.418 18.1682 32.2033 19.1722 31.7741 20.219C31.3653 21.2443 30.6294 22.1308 29.5666 22.8785C28.5037 23.6262 27.0831 24 25.3048 24C23.9148 24 22.7702 23.733 21.8708 23.1989C20.9919 22.6649 20.3582 22.024 19.9699 21.2764C19.6019 20.5073 19.418 19.7704 19.418 19.0654C19.418 18.3818 19.5713 17.8798 19.8779 17.5594C20.2049 17.2176 20.5728 17.0467 20.9816 17.0467C21.4109 17.0467 21.7993 17.1856 22.1467 17.4633C22.4942 17.7196 22.668 18.0935 22.668 18.5848C22.668 18.8198 22.5555 19.1295 22.3307 19.514C22.2285 19.6635 22.1365 19.8131 22.0548 19.9626C21.9934 20.1121 21.9628 20.283 21.9628 20.4753C21.9628 21.0948 22.1876 21.6609 22.6373 22.1736C23.087 22.6862 23.8842 22.9426 25.0288 22.9426C25.9282 22.9426 26.7356 22.6862 27.451 22.1736C28.1664 21.6609 28.7285 20.9559 29.1373 20.0587C29.5461 19.1615 29.7505 18.1362 29.7505 16.9826C29.7505 15.4232 29.3417 14.1629 28.5241 13.2016C27.7065 12.2403 26.5721 11.7597 25.1208 11.7597C24.9777 11.7597 24.7631 11.781 24.4769 11.8238C24.1908 11.8665 23.9455 11.8878 23.7411 11.8878C23.5162 11.8878 23.3221 11.8344 23.1585 11.7276C23.0155 11.5995 22.9439 11.4286 22.9439 11.215C22.9439 11.0227 23.0155 10.8625 23.1585 10.7343C23.3221 10.6061 23.5162 10.5421 23.7411 10.5421C24.0272 10.5421 24.293 10.5741 24.5383 10.6382C24.8653 10.6809 25.1208 10.7023 25.3048 10.7023C26.1633 10.7023 26.9911 10.4032 27.7883 9.80507C28.5854 9.20694 28.984 7.92523 28.984 5.95995C28.984 4.18691 28.6161 2.93725 27.8802 2.21095C27.1648 1.46328 26.3268 1.08945 25.3661 1.08945C24.7733 1.08945 24.1908 1.23898 23.6184 1.53805C23.0666 1.81575 22.7906 2.3498 22.7906 3.14019C22.7906 3.48197 22.8724 3.84513 23.0359 4.22964C23.179 4.48598 23.2505 4.76368 23.2505 5.06275C23.2505 5.46862 23.1279 5.79973 22.8826 6.05607C22.6577 6.31242 22.3716 6.44059 22.0241 6.44059C21.3905 6.44059 20.9305 6.23765 20.6444 5.83177C20.3787 5.40454 20.2458 4.93458 20.2458 4.4219C20.2458 3.84513 20.4706 3.21495 20.9203 2.53137C21.3905 1.82644 22.0445 1.2283 22.8826 0.736983C23.7206 0.245661 24.6813 0 25.7647 0C26.9502 0 27.9824 0.267022 28.8614 0.801067C29.7607 1.31375 30.4455 2.00801 30.9156 2.88384C31.3857 3.73832 31.6208 4.66756 31.6208 5.67156C31.6208 7.06008 31.2018 8.26702 30.3637 9.29239C29.5461 10.2964 28.3197 10.9479 26.6845 11.247Z" fill="#A95200"/>
<path d="M16.504 23.4117C16.3043 23.4117 16.1342 23.3414 15.9936 23.2009C15.8605 23.0603 15.7939 22.8939 15.7939 22.7016C15.7939 22.5093 15.8605 22.3466 15.9936 22.2135C16.1342 22.0729 16.3043 22.0027 16.504 22.0027C16.6963 22.0027 16.8627 22.0729 17.0032 22.2135C17.1438 22.3466 17.214 22.5093 17.214 22.7016C17.214 22.8939 17.1438 23.0603 17.0032 23.2009C16.8627 23.3414 16.6963 23.4117 16.504 23.4117Z" fill="#A95200"/>
<path d="M11.7883 23.4005C11.2484 23.4005 10.7713 23.2636 10.3571 22.99C9.94293 22.7163 9.6212 22.365 9.39191 21.936C9.17003 21.4996 9.05908 21.0485 9.05908 20.5825C9.05908 20.0944 9.17003 19.6358 9.39191 19.2068C9.6138 18.7778 9.93184 18.4339 10.346 18.175C10.7602 17.9088 11.241 17.7756 11.7883 17.7756C12.3356 17.7756 12.8164 17.9088 13.2306 18.175C13.6447 18.4339 13.9628 18.7778 14.1847 19.2068C14.4066 19.6358 14.5175 20.0944 14.5175 20.5825C14.5175 21.0485 14.4029 21.4996 14.1736 21.936C13.9517 22.365 13.6336 22.7163 13.2195 22.99C12.8053 23.2636 12.3282 23.4005 11.7883 23.4005ZM11.7883 23.0565C12.2616 23.0565 12.6315 22.8199 12.8977 22.3465C13.1714 21.8657 13.3082 21.2777 13.3082 20.5825C13.3082 19.8651 13.1751 19.2734 12.9088 18.8074C12.6426 18.3414 12.269 18.1085 11.7883 18.1085C11.3075 18.1085 10.934 18.3414 10.6678 18.8074C10.4015 19.2734 10.2684 19.8651 10.2684 20.5825C10.2684 21.2777 10.4015 21.8657 10.6678 22.3465C10.9414 22.8199 11.3149 23.0565 11.7883 23.0565Z" fill="#A95200"/>
<path d="M0.0776604 23.2454C0.0332831 23.2454 0.0110944 23.1974 0.0110944 23.1012C0.0110944 23.0125 0.0332831 22.9681 0.0776604 22.9681H0.221887C0.458566 22.9681 0.673057 22.8793 0.865359 22.7018C1.06506 22.5243 1.16491 22.2913 1.16491 22.0029V16.1451C1.09834 15.901 0.991094 15.7235 0.84317 15.6125C0.702641 15.4942 0.499245 15.4239 0.232981 15.4017L0.0776604 15.3906C0.0258868 15.3832 0 15.3389 0 15.2575C0 15.1614 0.0258868 15.1133 0.0776604 15.1133H2.26325L6.51238 21.193V16.3558C6.51238 16.0674 6.40883 15.8344 6.20174 15.6569C6.00204 15.4794 5.78755 15.3906 5.55826 15.3906H5.41404C5.36226 15.3906 5.33638 15.3463 5.33638 15.2575C5.33638 15.1614 5.36226 15.1133 5.41404 15.1133H8.0323C8.06928 15.1133 8.09147 15.1244 8.09887 15.1466C8.11366 15.1688 8.12106 15.2057 8.12106 15.2575C8.12106 15.3463 8.09147 15.3906 8.0323 15.3906H7.89917C7.65509 15.3906 7.43691 15.4794 7.2446 15.6569C7.0523 15.827 6.95615 16.06 6.95615 16.3558V23.2454H6.39034L1.60868 16.3558V22.0029C1.60868 22.2987 1.70853 22.5354 1.90823 22.7129C2.11532 22.883 2.33721 22.9681 2.57389 22.9681H2.70702C2.75879 22.9681 2.78468 23.0125 2.78468 23.1012C2.78468 23.1974 2.75879 23.2454 2.70702 23.2454H0.0776604Z" fill="#A95200"/>
</svg>
