<svg width="313" height="217" viewBox="0 0 313 217" fill="none" xmlns="http://www.w3.org/2000/svg">
<path d="M79.8376 45.612C81.2633 48.3699 83.0981 47.4742 84.4027 46.3145C87.7527 43.3807 91.5391 41.7453 95.9359 40.5001C99.4858 39.4938 102.456 36.6162 105.68 34.5688C107.3 33.5442 108.57 31.078 111.036 33.6777C111.357 34.0307 113.661 32.6497 115.083 32.1328C116.456 31.6377 117.87 31.2057 119.263 30.7421C119.412 31.0458 119.576 31.3311 119.725 31.6348C119.202 32.4112 118.662 33.1894 117.992 34.1658C120.671 34.7783 121.96 36.0555 122.514 38.8196C122.863 40.5638 125.71 41.8307 127.5 43.2574C127.682 43.3898 128.358 43.2861 128.522 43.0844C130.754 40.3672 133.218 39.8766 135.343 41.9406C140.286 37.8842 144.922 34.0949 149.541 30.3073C149.619 30.2489 149.733 30.2202 149.778 30.1652C151.932 26.0453 154.394 27.6376 156.964 29.9576C156.266 30.9873 155.499 32.1586 154.615 33.4931C155.737 33.9647 156.576 34.2976 156.945 34.4609C157.299 35.9358 157.41 37.9733 157.886 38.0415C159.47 38.2804 161.185 37.8507 162.853 37.6106C164.308 37.4094 166.122 36.4823 167.13 36.9825C170.825 38.8332 172.627 35.8416 175.114 34.6096C175.672 34.3334 176.272 34.1368 176.832 33.8772C178.541 33.0618 180.188 32.1353 181.941 31.4161C185.237 30.0666 188.657 28.9395 191.93 27.5253C197.595 25.0905 203.151 22.4151 208.854 20.0267C210.364 19.3999 212.2 19.4783 213.856 19.1219C214.807 18.9225 215.721 18.5254 216.612 18.8697C218.24 18.8858 219.892 18.8153 221.5 18.9677C222.956 19.1023 224.391 19.5246 225.835 19.7108C226.582 19.8013 227.836 19.9399 228.084 19.5784C230.508 16.1191 234.899 16.1174 238.204 14.196C239.674 13.3382 240.835 13.3858 240.224 11.0474C239.298 7.44835 244.588 3.99423 248.748 4.99062C254.437 6.34911 260.279 7.23833 265.865 8.89306C269.288 9.89863 273.549 11.2205 275.251 13.7313C276.715 15.8972 279.67 15.9436 280.355 18.3416C280.98 20.4938 281.394 22.7016 282.261 24.7615C282.904 26.2736 284.05 27.6328 285.109 28.9506C286.823 31.0908 288.644 33.1358 290.419 35.2192C291.41 36.3761 293.072 37.0436 292.012 39.2697C291.573 40.2054 293.112 41.9605 293.773 43.3196C293.965 43.7196 294.507 44.1001 294.457 44.4244C293.856 47.8458 293.02 51.258 292.589 54.6954C292.358 56.5164 292.432 58.5242 292.996 60.2461C294.141 63.6881 293.699 66.8579 292.116 70.0284C291.991 70.2765 291.836 70.5613 291.879 70.8088C292.389 73.6279 292.704 76.501 293.539 79.2193C294.148 81.2219 295.836 82.9449 296.33 84.9595C296.936 87.416 298.428 87.8996 300.662 87.7855C301.079 87.7591 301.502 87.9671 302.602 88.2227C298.558 89.4816 299.023 92.02 299.296 94.4942C299.332 94.8432 299.704 95.3589 299.582 95.4723C295.674 99.1694 300.453 100.639 300.901 103.028C300.8 104.634 300.665 106.244 300.596 107.846C300.46 110.732 301.896 113.59 299.485 116.527C298.294 117.978 298.059 120.723 298.493 122.643C299.077 125.202 297.85 126.472 295.962 127.339C294.25 128.121 293.362 128.768 293.815 130.719C294.34 133.033 293.31 134.736 290.896 135.708C289.303 136.343 287.798 137.188 286.288 137.983C284.89 138.732 283.746 139.338 283.674 141.395C283.621 142.66 281.703 144.202 280.266 145.057C269.824 151.211 259.467 157.542 248.705 163.193C236.813 169.43 224.596 175.114 212.414 180.811C208.464 182.648 204.138 183.769 199.981 185.224C199.782 184.926 199.582 184.61 199.384 184.312C200.397 183.417 201.411 182.523 202.408 181.63C200.644 181.914 198.879 182.197 196.802 182.53C196.959 181.943 197.055 181.58 197.176 181.131C196.069 180.96 194.844 180.785 192.937 180.496C195.523 179.086 197.586 177.965 199.63 176.829C199.538 176.587 199.448 176.361 199.372 176.117C191.53 177.602 184.65 182.866 175.951 182.223C177.941 181.211 179.66 180.327 181.523 179.378C178.315 178.35 175.206 179.243 174.176 181.433C170.818 178.791 167.478 178.264 163.512 180.758C158.413 183.957 152.938 186.607 147.801 189.76C146.114 190.792 144.818 192.521 143.643 194.121C141.852 196.574 139.82 198.313 136.471 198.509C134.922 198.603 133.012 198.935 131.952 199.868C129.506 201.986 126.725 201.67 123.913 201.709C122.624 201.725 121.854 201.906 121.128 203.308C119.386 206.713 114.823 207.489 111.121 206.059C108.205 204.933 104.941 204.331 101.772 204.156C99.2243 204 98.3976 202.977 97.8986 200.913C97.3709 198.734 96.5168 196.639 95.7329 194.251C93.1526 194.586 92.7187 193.472 93.8128 191.091C94.8939 188.745 95.5911 186.254 96.5136 183.673C95.0616 183.571 93.9132 183.489 92.8145 183.401C93.3683 181.144 93.8553 179.212 94.4074 176.938C92.0959 177.278 90.5456 177.523 88.977 177.753C88.7836 177.504 88.5885 177.239 88.3951 176.99C89.3355 176.036 90.2924 175.08 91.7055 173.674L84.6407 174.406C86.6142 172.909 88.0172 171.89 89.347 170.811C90.1359 170.175 90.8465 169.43 91.5954 168.731C90.7922 168.26 89.9891 167.789 89.2208 167.331C89.848 166.913 90.5861 166.434 91.3077 165.956L90.4981 165.099C88.583 165.382 86.6512 165.666 83.9269 166.066C84.7075 164.541 85.3086 163.386 85.964 162.109C84.9117 161.983 83.6071 161.85 82.3009 161.7C82.2436 161.47 82.1697 161.243 82.1124 161.014C86.1217 160.397 90.5551 160.474 92.1481 155.791C91.8181 155.842 91.1222 156.082 91.0421 155.956C88.7611 152.548 86.2784 154.955 83.5244 155.392C77.998 156.25 74.3612 160.138 69.6188 162.091C62.7858 164.898 55.7337 167.208 48.7868 169.726C47.2195 170.291 45.6591 170.923 43.9229 171.154C50.6841 166.522 58.9661 164.757 66.1486 160.956C65.9746 160.57 65.7857 160.204 65.6117 159.819C56.9095 163.19 48.1925 166.579 39.4902 169.95C40.7305 165.421 44.5199 162.845 47.6535 159.279C46.7248 159.375 46.1495 159.485 45.5805 159.494C44.6746 159.487 43.2587 159.734 42.9617 159.295C42.4879 158.605 42.6527 157.446 42.722 156.498C42.7471 156.092 43.1769 155.712 43.4044 155.319C45.58 151.566 45.3188 150.501 42.1754 148.476C41.7024 147.148 41.6138 145.645 41.0258 145.471C39.9676 145.127 38.6135 145.486 37.4115 145.695C35.2213 146.073 33.0415 146.551 30.8599 147.012C28.8258 147.441 26.7649 147.773 24.7813 148.364C22.0834 149.182 19.4411 150.211 16.5012 150.634C17.8316 149.723 19.1786 148.811 20.8846 147.643C17.8638 147.284 16.1718 146.486 17.9308 143.566C18.7601 142.186 17.3737 140.617 15.5854 140.668C14.3661 140.71 13.1475 140.921 11.3896 141.103C12.8637 137.86 15.1214 136.03 17.9939 134.473C20.7389 132.979 23.2001 131.011 25.7832 129.248C25.6841 128.939 25.5702 128.649 25.4711 128.34L13.6134 129.569C15.1409 128.134 16.7776 126.621 18.4126 125.091C18.1512 124.833 17.8748 124.593 17.6133 124.334C16.9872 124.601 16.3611 124.867 15.2364 125.336C15.8768 123.59 16.3726 122.229 16.9901 120.586C17.9608 121.057 18.7553 121.444 20.0103 122.07C21.8527 120.116 23.7825 118.034 26.0314 115.635C21.1223 114.363 22.9447 119.331 20.0739 119.611C20.3182 117.117 18.9463 114.555 21.3108 112.463C20.1704 108.416 23.2874 107.437 26.2562 106.323C26.6605 106.181 27.2756 105.647 27.2183 105.417C26.2869 101.769 29.7862 101.406 31.7941 100.24C33.3585 99.3224 34.4681 98.3844 35.4197 96.8917C36.2707 95.5606 37.7949 94.5796 39.0749 93.5063C39.8141 92.8755 40.6483 92.3523 41.4441 91.7827C41.324 91.5936 41.1855 91.3896 41.0653 91.2006C38.0384 92.7236 34.953 94.1688 32.0245 95.8328C31.5493 96.1004 31.6986 97.3782 31.528 98.3197C27.7961 99.0257 24.7366 100.72 22.2067 103.804C20.4662 105.933 17.6176 107.236 15.4336 108.806C15.4563 106.922 15.3697 105.117 15.572 103.35C15.6586 102.568 16.1861 101.674 16.7995 101.123C18.562 99.5295 20.4761 98.105 22.0374 96.8346C20.567 95.425 19.3581 94.2739 18.0377 93.0167C22.5027 90.9751 27.1224 89.4548 30.6668 86.1314C33.1415 83.809 35.1751 81.1124 38.4005 79.4008C40.2913 78.3986 40.9363 78.3149 41.7944 80.1239C42.2025 80.9885 43.0114 81.6773 43.7582 82.574C45.338 81.8056 46.7571 81.1042 47.5221 80.7226C47.8928 78.316 48.1877 76.4715 48.5779 73.9285C49.8561 74.1319 51.1499 74.4848 52.4773 74.5152C53.3002 74.5306 54.4839 74.3072 54.9132 73.7588C57.682 70.2302 61.4201 69.4228 65.7938 69.0869C68.7029 68.8525 71.4918 67.1358 74.2536 66.1273C74.3138 64.9286 74.3877 63.8628 74.4665 62.3598C71.4152 63.1632 67.9839 61.7554 65.3887 64.6949C66.2173 64.4411 67.0642 64.2021 67.8945 63.9649C67.978 64.1242 68.045 64.2852 68.1286 64.4445C64.7368 66.0054 61.3467 67.5829 57.7462 69.2326C57.7008 67.3394 63.5698 66.7142 59.6709 64.5151C60.6615 61.9434 61.5092 59.7729 62.5672 57.0431C63.4798 56.6294 64.7053 56.4855 64.691 59.2583C66.7488 58.0876 68.5218 57.0808 70.2765 56.0591C70.1746 55.885 70.0911 55.7256 69.9892 55.5515C69.0006 56.0402 67.9937 56.5141 67.0051 57.0029C66.8317 56.7858 66.6566 56.552 66.4832 56.3348C70.7818 52.8492 75.0987 49.3784 79.7695 45.6023L79.8376 45.612ZM98.891 53.1599C99.0924 53.3238 99.2641 53.5243 99.4768 53.6366C99.7245 53.7621 100.042 53.9139 100.289 53.8715C104.188 52.9971 107.867 51.6247 111.002 49.2003C111.435 48.853 111.703 47.7168 111.443 47.3071C111.082 46.7398 110.059 46.0901 109.468 46.2018C108.284 46.4253 107.154 47.6509 106.073 47.5782C101.415 47.2717 98.4758 50.4485 94.8508 52.1847C94.6957 51.9824 94.5389 51.7636 94.3673 51.563C96.7834 49.9689 99.2161 48.373 101.632 46.7789C101.51 46.5732 101.405 46.3658 101.283 46.1601C99.0269 47.0322 96.7705 47.9044 93.8052 49.0515C94.7602 47.5921 95.2517 46.8357 95.7284 46.0977C95.8615 45.7648 96.0094 45.4135 96.1425 45.0806C93.3284 46.716 91.5093 46.955 92.3084 43.3451C86.8647 46.2944 81.8183 49.0346 76.7536 51.7598L77.1583 52.5912L80.0108 52.2955C77.9634 53.5659 76.4122 54.4489 74.9778 55.4878C74.4318 55.8803 73.7779 56.6871 73.8479 57.2005C74.2368 59.9818 80.1936 62.7906 82.5835 61.2664C84.6904 59.9227 86.5586 58.2174 88.2325 56.9017C87.3081 56.3929 86.4701 55.9088 85.687 55.4693C83.0331 56.0635 79.7062 56.7947 76.3643 57.5443C76.1869 57.126 76.0094 56.7077 75.8319 56.2894C79.5718 54.2053 83.3134 52.1379 86.2917 50.4687C88.2574 50.836 89.4362 51.0497 90.4971 51.2588C93.5371 57.4603 97.1762 51.171 100.866 51.5108C100.047 52.1835 99.5061 52.6258 98.9059 53.1415L98.891 53.1599ZM187.139 177.284C188.974 177.195 188.802 176.994 191.06 175.165C192.034 174.375 193.956 174.646 195.43 174.308C195.563 174.295 195.604 173.4 195.506 172.94C195.398 172.38 195.11 171.873 194.857 171.21L186.83 172.042C191.32 167.815 197.203 166.348 202.543 163.695C198.138 165.025 193.715 166.34 189.311 167.67C189.212 167.362 189.114 167.069 189.015 166.76C191.653 165.53 194.292 164.299 196.928 163.051C196.804 162.829 196.681 162.607 196.559 162.401C193.018 163.658 189.245 164.452 186.742 167.634C186.372 168.109 185.96 168.656 185.431 168.895C182.335 170.392 179.213 171.808 176.096 173.273C176.031 173.296 176.096 173.592 176.136 174.142C178.712 173.606 181.222 173.077 184.012 172.503C183.624 173.45 183.384 174.046 182.968 175.046C185.177 175.338 187.066 175.612 189.09 175.889C188.574 176.245 188.105 176.579 187.136 177.251L187.139 177.284ZM100.142 58.9254C99.9891 58.7398 99.8523 58.5524 99.7007 58.3834C95.3531 59.4555 90.9602 60.4148 86.6664 61.6829C85.5759 61.9975 84.0278 63.2329 83.983 64.0941C83.897 66.3368 86.1481 65.4148 87.463 65.648C88.0441 65.7558 88.7994 65.4423 89.3741 65.1644C92.305 63.6849 95.2158 62.1738 98.1032 60.598C98.8648 60.1832 99.4496 59.5179 100.129 58.9603L100.142 58.9254ZM54.5698 84.1908C52.6732 84.9753 50.9041 85.6962 49.135 86.417C49.1328 86.7196 49.1289 87.0055 49.1268 87.308C49.9853 87.5046 50.9794 88.0397 51.6919 87.7979C53.1683 87.3257 55.4027 87.2117 54.5698 84.1908ZM67.6391 70.0713C68.6602 70.7045 69.3862 71.4018 69.6578 71.2729C72.2742 69.9939 74.8071 68.5556 77.3635 67.1821C77.2164 66.895 77.0527 66.6097 76.9056 66.3226C73.9786 67.5162 71.035 68.7115 67.6408 70.0879L67.6391 70.0713ZM106.045 55.3911C106.197 55.728 106.35 56.0649 106.504 56.4184C109.543 55.1796 112.566 53.9424 115.606 52.7035C115.432 52.3185 115.256 51.9168 115.082 51.5317C112.081 52.817 109.065 54.1207 106.063 55.4059L106.045 55.3911ZM186.474 32.9448C186.562 33.3052 186.648 33.649 186.719 34.0112C189.622 35.3394 191.367 33.5796 193.183 32.0142C193.086 31.7219 192.988 31.4297 192.908 31.1358C190.758 31.7449 188.607 32.3374 186.457 32.9465L186.474 32.9448ZM164.983 43.6041C168.518 45.2027 168.614 45.1592 169.486 42.2472C167.829 42.7549 166.414 43.1703 164.983 43.6041Z" fill="#DFCBBF"/>
<path d="M30.837 79.8492C29.1572 79.6539 27.4758 79.4419 25.7795 79.2483C24.5867 78.4146 24.5857 77.2726 26.4621 75.9695C29.5728 73.7995 32.3752 71.2416 35.2725 68.7914C35.643 68.4843 35.5872 67.7846 35.8941 67.3497C36.7257 66.155 37.6637 65.0165 38.4953 63.8217C39.2115 62.8069 41.6162 62.5576 40.1461 60.3419C39.9475 60.0433 42.2992 57.6665 43.8362 56.9697C47.6008 55.2862 51.5761 54.0175 55.4861 52.6044C57.022 52.0589 58.5996 51.593 60.3627 51.4606C58.2832 52.5832 56.2037 53.7057 54.1076 54.83C54.1849 55.0907 54.2788 55.3497 54.3561 55.6104C55.4085 55.7364 56.4591 55.8459 57.528 55.9702C56.3682 58.5258 55.7128 58.5098 52.9673 57.7362C51.6553 57.3684 49.73 58.0383 48.4338 58.7941C46.7569 59.7573 44.4642 61.0867 44.1479 62.5639C43.4619 65.8094 42.2377 67.5823 38.5764 67.6763C37.9577 67.6901 37.4104 69.0401 36.7392 69.6807C35.5622 70.7769 34.3118 71.8134 33.0982 72.8798C32.1606 73.6992 30.7781 74.4304 30.4617 75.4205C30.2715 76.0113 31.7388 77.0685 32.1989 77.6254C31.9977 77.9486 31.3942 78.9181 30.7758 79.906L30.8353 79.8326L30.837 79.8492Z" fill="#DFCBBF"/>
<path d="M64.8591 50.2052C70.7991 45.5752 76.612 40.6897 85.0113 40.5412C78.5099 44.1208 73.5136 50.4165 64.8591 50.2052Z" fill="#DFCBBF"/>
<path d="M181.412 191.567C183.016 190.057 186.063 189.858 185.25 186.55C185.161 186.173 187.56 185.219 188.669 184.6C189.591 185.73 190.281 186.566 191.106 187.572C188.864 190.844 184.527 189.917 181.412 191.567Z" fill="#DFCBBF"/>
<path d="M46.4574 70.7729C47.8927 70.3889 49.328 70.005 50.6638 69.6314C48.5478 73.7977 44.7589 76.0548 39.5786 77.1797C42.0699 74.8556 44.3017 72.7767 46.5335 70.6978L46.4574 70.7729Z" fill="#DFCBBF"/>
<path d="M46.55 70.6959C45.2228 71.1526 43.8957 71.6093 42.5519 72.0677C42.422 71.9468 42.2922 71.8259 42.1623 71.705C42.7826 71.2208 43.4046 70.7533 44.8653 69.6445C43.5539 69.4445 42.7887 69.3391 42.0234 69.2337C42.1583 68.9174 42.3097 68.5994 42.4462 68.2997L50.9399 66.7977C51.0653 67.0367 51.1906 67.2756 51.3326 67.5128C49.7191 68.6038 48.1057 69.6949 46.4923 70.7859L46.5683 70.7108L46.55 70.6959Z" fill="#DFCBBF"/>
<path d="M180.831 185.631C178.361 186.223 175.909 186.83 173.44 187.422C175.571 185.672 177.594 183.514 180.831 185.631Z" fill="#DFCBBF"/>
<path d="M87.1201 40.9945C86.3422 39.3116 88.608 37.8842 93.2173 37.5575C90.8582 38.8938 89.0669 39.8857 87.1201 40.9945Z" fill="#DFCBBF"/>
<path d="M30.7778 79.9225L35.7198 79.4102C34.5508 80.4215 33.1335 81.6266 31.4419 83.0952C31.1794 81.6948 31 80.7728 30.8372 79.8492L30.7778 79.9225Z" fill="#DFCBBF"/>
<path d="M97.8466 34.6759C99.944 33.8874 102.041 33.0989 104.155 32.3087C104.294 32.6806 104.448 33.0341 104.588 33.406C102.43 34.0999 100.273 34.7939 98.1152 35.4878C98.0196 35.2122 97.9405 34.9348 97.8449 34.6592L97.8466 34.6759Z" fill="#DFCBBF"/>
</svg>
