<svg width="225" height="66" viewBox="0 0 225 66" fill="none" xmlns="http://www.w3.org/2000/svg">
<path d="M197.732 57.415C196.72 56.5719 196.214 55.7891 196.214 55.0664C196.214 54.3438 196.503 53.8018 197.081 53.4404L201.453 49.1406C198.9 46.9967 197.623 44.4313 197.623 41.4443C197.623 38.4333 198.936 35.7835 201.562 33.4951C204.212 31.2067 207.186 30.0625 210.487 30.0625C211.233 30.0625 211.799 30.0866 212.185 30.1348C212.378 28.304 213.269 26.5817 214.859 24.9678C216.473 23.3298 218.484 22.5107 220.893 22.5107C223.326 22.5107 224.542 23.5947 224.542 25.7627C224.542 26.7021 224.265 27.4489 223.711 28.0029C223.181 28.5329 222.543 28.7979 221.796 28.7979C221.049 28.7979 220.387 28.569 219.809 28.1113C219.231 27.6536 218.833 27.0153 218.616 26.1963C217.171 26.5817 216.003 27.208 215.112 28.0752C214.244 28.9183 213.811 29.6771 213.811 30.3516C215.738 31.0501 217.328 32.2546 218.58 33.9648C219.833 35.651 220.459 37.4095 220.459 39.2402C220.459 42.3958 219.195 45.1058 216.665 47.3701C214.136 49.6344 211.281 50.7666 208.102 50.7666C206.006 50.7666 204.284 50.5016 202.935 49.9717C201.514 51.152 200.803 51.959 200.803 52.3926C200.803 53.0671 201.393 53.4404 202.573 53.5127L209.728 53.8018C212.161 53.8981 214.064 54.2956 215.437 54.9941C216.81 55.7168 217.496 56.7285 217.496 58.0293C217.496 59.3301 217.123 60.4743 216.376 61.4619C215.629 62.4495 214.606 63.2204 213.305 63.7744C210.824 64.8343 207.692 65.3643 203.91 65.3643C202.031 65.3643 200.297 65.1595 198.707 64.75C195.6 63.9551 194.046 62.7266 194.046 61.0645C194.046 59.7396 195.022 58.6315 196.973 57.7402C197.262 57.5957 197.515 57.4873 197.732 57.415ZM206.801 34.0732C205.765 35.109 205.018 36.3135 204.561 37.6865C204.127 39.0355 203.91 40.252 203.91 41.3359C203.91 42.3958 203.971 43.2992 204.091 44.0459C204.212 44.7686 204.416 45.5033 204.705 46.25C205.332 47.8398 206.44 48.6348 208.03 48.6348C209.619 48.6348 210.908 48.0807 211.896 46.9727C213.63 45.0697 214.497 42.3356 214.497 38.7705C214.497 37.3975 214.136 36.0124 213.413 34.6152C212.691 33.194 211.667 32.4834 210.342 32.4834C209.017 32.4834 207.837 33.0133 206.801 34.0732ZM204.489 63.2686C209.86 63.2686 212.546 62.3291 212.546 60.4502C212.546 58.8363 208.403 58.0293 200.116 58.0293C199.514 58.0293 198.996 58.3665 198.563 59.041C198.129 59.7155 197.912 60.3418 197.912 60.9199C197.912 61.8353 198.478 62.4495 199.611 62.7627C200.743 63.0999 202.369 63.2686 204.489 63.2686Z" fill="#D95F77"/>
<path d="M176.971 41.9502C182.006 34.1696 186.522 30.2793 190.521 30.2793C191.87 30.2793 192.882 30.6888 193.556 31.5078C194.231 32.3268 194.568 33.3626 194.568 34.6152C194.568 35.8678 194.002 38.0358 192.87 41.1191C191.762 44.2025 191.208 46.1175 191.208 46.8643C191.208 47.5869 191.388 47.9482 191.75 47.9482C192.231 47.9482 192.942 47.4544 193.881 46.4668C194.821 45.4551 195.652 44.3952 196.375 43.2871L197.892 44.7324C196.447 47.3581 194.857 49.3454 193.123 50.6943C191.412 52.0192 190.015 52.6816 188.931 52.6816C187.871 52.6816 187.04 52.3324 186.438 51.6338C185.836 50.9111 185.535 49.9355 185.535 48.707C185.535 47.4785 186.016 45.4792 186.98 42.709C187.968 39.9147 188.461 37.9395 188.461 36.7832C188.461 35.6029 188.064 35.0127 187.269 35.0127C186.354 35.0127 185.27 35.6029 184.017 36.7832C182.764 37.9395 181.548 39.3607 180.368 41.0469C178.489 43.7448 176.574 46.8522 174.623 50.3691L173.647 52.1035H168.552L169.672 48.707C171.768 42.444 172.816 38.7344 172.816 37.5781C172.816 36.3978 172.623 35.8076 172.238 35.8076C171.539 35.8076 170.708 36.6387 169.745 38.3008C169.528 38.6862 169.347 38.9993 169.203 39.2402C169.058 39.457 168.889 39.734 168.697 40.0713C168.528 40.3844 168.42 40.5771 168.372 40.6494L165.951 39.2402C167.83 36.181 169.552 33.9287 171.118 32.4834C172.683 31.014 174.285 30.2793 175.923 30.2793C176.67 30.2793 177.308 30.5924 177.838 31.2188C178.392 31.8451 178.669 32.6038 178.669 33.4951C178.669 34.3864 178.597 35.2656 178.453 36.1328C178.308 36.9759 178.152 37.6865 177.983 38.2646C177.838 38.8187 177.634 39.5413 177.369 40.4326C177.128 41.3239 176.995 41.8298 176.971 41.9502Z" fill="#D95F77"/>
<path d="M158.307 52.6816C157.295 52.6816 156.5 52.3685 155.922 51.7422C155.344 51.1159 155.055 50.2607 155.055 49.1768C155.055 48.0687 155.332 46.5752 155.886 44.6963C156.464 42.7933 157.03 41.071 157.584 39.5293C158.162 37.9876 158.451 36.9639 158.451 36.458C158.451 35.9281 158.283 35.6631 157.945 35.6631C157.102 35.6631 155.741 37.3252 153.862 40.6494L151.441 39.2402C154.982 33.2663 158.234 30.2793 161.197 30.2793C163.221 30.2793 164.232 31.556 164.232 34.1094C164.232 34.8561 163.992 36.0485 163.51 37.6865L160.908 45.1299C160.643 45.8285 160.511 46.4668 160.511 47.0449C160.511 47.599 160.728 47.876 161.161 47.876C161.98 47.876 163.486 46.3584 165.678 43.3232L167.195 44.7324C165.895 47.1413 164.341 49.0684 162.534 50.5137C160.752 51.959 159.342 52.6816 158.307 52.6816ZM168.604 19.6201C168.604 20.5837 168.279 21.4629 167.629 22.2578C166.979 23.0527 166.099 23.4502 164.991 23.4502C163.883 23.4502 163.052 23.125 162.498 22.4746C161.944 21.8001 161.667 20.957 161.667 19.9453C161.667 18.9336 162.004 18.0423 162.679 17.2715C163.377 16.4766 164.269 16.0791 165.353 16.0791C166.437 16.0791 167.243 16.4284 167.773 17.127C168.327 17.8014 168.604 18.6325 168.604 19.6201Z" fill="#D95F77"/>
<path d="M133.03 13.0439C134.74 9.3584 137.028 6.39551 139.895 4.15527C142.761 1.89095 145.809 0.758789 149.036 0.758789C150.939 0.758789 152.577 1.24056 153.95 2.2041C155.348 3.16764 156.046 4.625 156.046 6.57617C156.046 7.70833 155.661 8.58756 154.89 9.21387C154.143 9.84017 153.252 10.1533 152.216 10.1533C151.204 10.1533 150.337 9.86426 149.615 9.28613C148.916 8.68392 148.567 7.93717 148.567 7.0459C148.567 6.15462 148.892 5.21517 149.542 4.22754C148.723 3.84212 147.916 3.64941 147.121 3.64941C146.351 3.64941 145.471 3.96257 144.484 4.58887C143.52 5.21517 142.629 6.04622 141.81 7.08203C140.365 8.91276 139.028 11.153 137.799 13.8027C136.595 16.4525 134.68 22.848 132.054 32.9893C129.452 43.1305 128.152 49.502 128.152 52.1035H122.443C122.443 47.9844 123.599 41.7575 125.911 33.4229C128.248 25.0882 130.621 18.2952 133.03 13.0439ZM151.168 45.7441C150.108 47.5749 148.759 49.1888 147.121 50.5859C145.507 51.9831 143.893 52.6816 142.28 52.6816C140.69 52.6816 139.485 51.9951 138.666 50.6221C137.847 49.249 137.101 48.0085 136.426 46.9004C135.776 45.7682 135.246 44.877 134.836 44.2266C134.451 43.5521 134.089 42.9378 133.752 42.3838C133.415 41.8298 133.162 41.4202 132.993 41.1553C132.849 40.8662 132.704 40.6133 132.56 40.3965C132.415 40.1315 132.307 39.8665 132.235 39.6016L133.282 38.4453C140.124 31.1706 145.495 27.5332 149.398 27.5332C150.891 27.5332 152.035 27.8945 152.83 28.6172C153.649 29.3398 154.059 30.1468 154.059 31.0381C154.059 31.9294 153.77 32.7243 153.192 33.4229C152.638 34.0973 151.855 34.4346 150.843 34.4346C149.831 34.4346 149.048 34.1937 148.494 33.7119C147.964 33.2301 147.651 32.7484 147.555 32.2666L147.41 31.5439C143.725 33.5433 140.461 35.7594 137.618 38.1924C137.016 38.7223 136.655 39.0475 136.534 39.168C137.209 39.6497 139.618 42.5042 143.761 47.7314C144.17 48.2855 144.604 48.5625 145.062 48.5625C145.544 48.5625 146.11 48.2614 146.76 47.6592C147.41 47.057 148.386 45.9971 149.687 44.4795L151.168 45.7441Z" fill="#D95F77"/>
<path d="M102.405 41.9502C107.439 34.1696 111.956 30.2793 115.955 30.2793C117.304 30.2793 118.315 30.6888 118.99 31.5078C119.664 32.3268 120.001 33.3626 120.001 34.6152C120.001 35.8678 119.435 38.0358 118.303 41.1191C117.195 44.2025 116.641 46.1175 116.641 46.8643C116.641 47.5869 116.822 47.9482 117.183 47.9482C117.665 47.9482 118.375 47.4544 119.315 46.4668C120.254 45.4551 121.085 44.3952 121.808 43.2871L123.326 44.7324C121.88 47.3581 120.291 49.3454 118.556 50.6943C116.846 52.0192 115.449 52.6816 114.365 52.6816C113.305 52.6816 112.474 52.3324 111.872 51.6338C111.269 50.9111 110.968 49.9355 110.968 48.707C110.968 47.4785 111.45 45.4792 112.414 42.709C113.401 39.9147 113.895 37.9395 113.895 36.7832C113.895 35.6029 113.498 35.0127 112.703 35.0127C111.787 35.0127 110.703 35.6029 109.451 36.7832C108.198 37.9395 106.982 39.3607 105.801 41.0469C103.922 43.7448 102.007 46.8522 100.056 50.3691L99.0806 52.1035H93.9858L95.106 48.707C97.2017 42.444 98.2495 38.7344 98.2495 37.5781C98.2495 36.3978 98.0568 35.8076 97.6714 35.8076C96.9728 35.8076 96.1418 36.6387 95.1782 38.3008C94.9614 38.6862 94.7808 38.9993 94.6362 39.2402C94.4917 39.457 94.3231 39.734 94.1304 40.0713C93.9618 40.3844 93.8534 40.5771 93.8052 40.6494L91.3843 39.2402C93.2632 36.181 94.9855 33.9287 96.5513 32.4834C98.117 31.014 99.7189 30.2793 101.357 30.2793C102.104 30.2793 102.742 30.5924 103.272 31.2188C103.826 31.8451 104.103 32.6038 104.103 33.4951C104.103 34.3864 104.031 35.2656 103.886 36.1328C103.742 36.9759 103.585 37.6865 103.417 38.2646C103.272 38.8187 103.067 39.5413 102.802 40.4326C102.561 41.3239 102.429 41.8298 102.405 41.9502Z" fill="#D95F77"/>
<path d="M83.9929 31.0742H89.6296L86.7751 41.8779C86.3175 43.3955 86.0886 44.7806 86.0886 46.0332C86.0886 47.2617 86.3054 47.876 86.739 47.876C87.1726 47.876 87.7628 47.5026 88.5095 46.7559C89.2804 45.985 89.9307 45.2142 90.4607 44.4434L91.2917 43.2871L92.8455 44.7324C92.0505 46.2741 91.0388 47.6833 89.8103 48.96C87.4255 51.4411 85.3539 52.6816 83.5955 52.6816C81.5238 52.6816 80.488 51.0798 80.488 47.876C80.488 47.346 80.5121 46.9486 80.5603 46.6836C80.199 47.9121 79.5125 48.9961 78.5007 49.9355C76.5736 51.7663 74.3936 52.6816 71.9607 52.6816C69.5518 52.6816 67.6127 51.8626 66.1433 50.2246C64.698 48.5625 63.9753 46.4909 63.9753 44.0098C63.9753 40.1556 65.2279 36.9036 67.7332 34.2539C70.2384 31.6042 73.1772 30.2793 76.5496 30.2793C78.2358 30.2793 79.6329 30.749 80.741 31.6885C81.849 32.6038 82.5717 33.8083 82.9089 35.3018L83.9929 31.0742ZM77.9587 33.3867C76.5616 33.3867 75.2488 33.9769 74.0203 35.1572C72.8158 36.3135 71.8884 37.7227 71.238 39.3848C70.5876 41.0228 70.2625 42.6247 70.2625 44.1904C70.2625 45.7562 70.5997 47.0208 71.2742 47.9844C71.9727 48.9479 73.0326 49.4297 74.4539 49.4297C75.8992 49.4297 77.2 48.7793 78.3562 47.4785C80.5483 44.9733 81.6443 41.9984 81.6443 38.5537C81.6443 35.109 80.4158 33.3867 77.9587 33.3867Z" fill="#D95F77"/>
<path d="M63.3408 44.4072L65.6172 45.5273C64.8945 47.4062 63.9912 48.9238 62.9072 50.0801C60.9801 52.1276 58.8001 53.1514 56.3672 53.1514C54.127 53.1514 52.1637 51.7663 50.4775 48.9961C49.1768 46.8522 48.0928 44.5397 47.2256 42.0586C46.3584 39.5534 45.6839 37.6986 45.2021 36.4941C44.1182 33.724 43.0583 32.3389 42.0225 32.3389C39.71 39.3727 36.2773 44.6361 31.7246 48.1289C27.196 51.5977 21.7279 53.332 15.3203 53.332C11.4661 53.332 8.03353 52.4889 5.02246 50.8027C3.50488 49.9837 2.28841 48.8757 1.37305 47.4785C0.457682 46.0573 0 44.3831 0 42.4561C0 40.529 0.493815 38.7223 1.48145 37.0361C2.46908 35.3499 3.76986 33.9889 5.38379 32.9531C8.70801 30.7611 12.4538 29.665 16.6211 29.665C16.7656 23.2816 18.9215 17.5124 23.0889 12.3574C27.3044 7.10612 32.3268 3.49284 38.1562 1.51758C41.1914 0.505859 43.9736 0 46.5029 0C49.0322 0 51.2122 0.25293 53.043 0.758789C54.8737 1.24056 56.5719 1.96322 58.1377 2.92676C59.7034 3.8903 60.9561 5.20312 61.8955 6.86523C62.8591 8.52734 63.3408 10.4303 63.3408 12.5742C63.3408 14.694 62.9313 16.7415 62.1123 18.7168C61.3174 20.668 60.1973 22.4264 58.752 23.9922C56.054 26.931 52.6214 29.4482 48.4541 31.5439C50.0921 32.8929 51.8747 36.1569 53.8018 41.3359C54.5003 43.1667 55.3193 44.8047 56.2588 46.25C57.1982 47.6953 58.1497 48.418 59.1133 48.418C60.0527 48.418 60.8356 48.0085 61.4619 47.1895C62.2568 46.1536 62.8831 45.2262 63.3408 44.4072ZM20.7041 40.7939L18.5 41.2998C17.9219 40.1676 17.3799 38.1322 16.874 35.1934L16.6211 33.748C12.6224 33.748 9.06934 34.6875 5.96191 36.5664C4.92611 37.2168 4.05892 38.0599 3.36035 39.0957C2.68587 40.1315 2.34863 41.3239 2.34863 42.6729C2.34863 44.0218 2.72201 45.2624 3.46875 46.3945C4.21549 47.5026 5.21517 48.3698 6.46777 48.9961C8.9248 50.2728 11.6589 50.9111 14.6699 50.9111C19.8249 50.9111 23.9681 49.5381 27.0996 46.792C30.2311 44.0459 32.6641 40.1195 34.3984 35.0127C34.7598 33.9528 35.2295 32.5075 35.8076 30.6768C36.4098 28.8219 36.8916 27.3525 37.2529 26.2686C37.6143 25.1605 38.1081 23.7874 38.7344 22.1494C39.3607 20.4873 39.9388 19.1022 40.4688 17.9941C40.9987 16.8861 41.6732 15.6335 42.4922 14.2363C43.3353 12.8392 44.2025 11.6107 45.0938 10.5508C47.2376 8.04557 49.5983 5.986 52.1758 4.37207C51.5977 4.03483 50.5378 3.73372 48.9961 3.46875C47.4544 3.17969 45.8405 3.03516 44.1543 3.03516C41.2878 3.03516 38.3249 3.80599 35.2656 5.34766C32.2305 6.88932 29.5085 8.88867 27.0996 11.3457C24.6908 13.8027 22.6914 16.6813 21.1016 19.9814C19.5358 23.2816 18.7409 26.5697 18.7168 29.8457C24.0163 30.5924 28.1836 32.9049 31.2188 36.7832L30.0264 38.0479C29.8818 37.9756 29.4844 37.7227 28.834 37.2891C28.1836 36.8314 27.5452 36.4339 26.9189 36.0967C26.3167 35.7594 25.582 35.3861 24.7148 34.9766C22.8841 34.1094 20.8848 33.6758 18.7168 33.6758C18.8372 35.2415 19.1865 36.8073 19.7646 38.373C20.3669 39.9147 20.68 40.7217 20.7041 40.7939ZM42.167 31.6162C46.4788 30.2673 50.0439 28.015 52.8623 24.8594C55.7048 21.7038 57.126 17.9821 57.126 13.6943C57.126 12.2249 56.8369 10.7435 56.2588 9.25C55.6807 7.73242 54.8857 6.55208 53.874 5.70898C51.2002 7.61198 49.2129 9.77995 47.9121 12.2129C47.1654 13.61 46.5632 14.7904 46.1055 15.7539C45.6478 16.6934 45.1781 18.1146 44.6963 20.0176C44.0941 22.3542 43.5521 24.7269 43.0703 27.1357C42.5885 29.5205 42.2874 31.014 42.167 31.6162Z" fill="#D95F77"/>
</svg>
