<svg width="313" height="69" viewBox="0 0 313 69" fill="none" xmlns="http://www.w3.org/2000/svg">
<path d="M296.676 44.9854C296.821 47.7555 298.688 49.1406 302.277 49.1406C303.602 49.1406 304.975 48.7673 306.396 48.0205C307.841 47.2497 309.01 46.3464 309.901 45.3105L311.455 46.3223C309.455 49.6706 306.264 51.7181 301.879 52.4648C300.916 52.6094 299.988 52.6816 299.097 52.6816C296.496 52.6816 294.328 51.8265 292.593 50.1162C290.859 48.3818 289.992 46.2741 289.992 43.793C289.992 41.3118 290.75 39.0234 292.268 36.9277C293.786 34.8079 295.677 33.1699 297.941 32.0137C300.229 30.8574 302.482 30.2793 304.698 30.2793C306.914 30.2793 308.829 30.7852 310.443 31.7969C312.081 32.8086 312.912 34.1696 312.936 35.8799C312.984 37.5902 312.49 39.0716 311.455 40.3242C310.419 41.5527 309.106 42.4922 307.516 43.1426C304.361 44.4193 301.265 45.0576 298.23 45.0576L296.676 44.9854ZM296.459 42.998C299.133 42.9017 301.277 42.4801 302.891 41.7334C304.529 40.9626 305.661 40.0954 306.288 39.1318C306.938 38.1442 307.263 37.1204 307.263 36.0605C307.263 34.9766 306.986 34.1816 306.432 33.6758C305.878 33.1458 305.288 32.8809 304.662 32.8809C303.12 32.8809 301.699 33.4229 300.398 34.5068C299.121 35.5667 298.146 36.8675 297.471 38.4092C296.797 39.9268 296.459 41.4564 296.459 42.998Z" fill="#D95F77"/>
<path d="M286.756 44.624L288.237 45.6719C287.177 47.8158 285.539 49.526 283.323 50.8027C281.131 52.0553 278.831 52.6816 276.422 52.6816C274.013 52.6816 271.978 51.9469 270.315 50.4775C268.677 49.0081 267.858 46.9365 267.858 44.2627C267.858 41.5648 268.677 39.1318 270.315 36.9639C271.978 34.7959 274.013 33.1458 276.422 32.0137C278.831 30.8574 281.264 30.2793 283.721 30.2793C286.732 30.2793 288.755 31.002 289.791 32.4473C290.225 33.0254 290.441 33.7601 290.441 34.6514C290.441 35.5186 290.14 36.2533 289.538 36.8555C288.936 37.4577 288.213 37.7588 287.37 37.7588C286.527 37.7588 285.816 37.4938 285.238 36.9639C284.66 36.4098 284.371 35.7113 284.371 34.8682C284.371 34.0251 284.889 33.2542 285.925 32.5557C285.009 32.2666 284.166 32.1221 283.396 32.1221C281.733 32.1221 280.204 32.7363 278.807 33.9648C277.41 35.1934 276.35 36.6868 275.627 38.4453C274.904 40.1797 274.543 41.89 274.543 43.5762C274.543 45.2624 274.94 46.6234 275.735 47.6592C276.554 48.6709 277.723 49.1768 279.24 49.1768C280.758 49.1768 282.215 48.7552 283.612 47.9121C285.009 47.0449 286.057 45.9489 286.756 44.624Z" fill="#D95F77"/>
<path d="M259.13 52.6816C258.118 52.6816 257.323 52.3685 256.745 51.7422C256.167 51.1159 255.878 50.2607 255.878 49.1768C255.878 48.0687 256.155 46.5752 256.709 44.6963C257.287 42.7933 257.853 41.071 258.407 39.5293C258.986 37.9876 259.275 36.9639 259.275 36.458C259.275 35.9281 259.106 35.6631 258.769 35.6631C257.926 35.6631 256.565 37.3252 254.686 40.6494L252.265 39.2402C255.806 33.2663 259.058 30.2793 262.021 30.2793C264.044 30.2793 265.056 31.556 265.056 34.1094C265.056 34.8561 264.815 36.0485 264.333 37.6865L261.732 45.1299C261.467 45.8285 261.334 46.4668 261.334 47.0449C261.334 47.599 261.551 47.876 261.985 47.876C262.804 47.876 264.309 46.3584 266.501 43.3232L268.019 44.7324C266.718 47.1413 265.164 49.0684 263.358 50.5137C261.575 51.959 260.166 52.6816 259.13 52.6816ZM269.428 19.6201C269.428 20.5837 269.103 21.4629 268.452 22.2578C267.802 23.0527 266.923 23.4502 265.815 23.4502C264.707 23.4502 263.876 23.125 263.322 22.4746C262.767 21.8001 262.49 20.957 262.49 19.9453C262.49 18.9336 262.828 18.0423 263.502 17.2715C264.201 16.4766 265.092 16.0791 266.176 16.0791C267.26 16.0791 268.067 16.4284 268.597 17.127C269.151 17.8014 269.428 18.6325 269.428 19.6201Z" fill="#D95F77"/>
<path d="M247.15 35.0127C246.235 35.0127 245.151 35.6029 243.898 36.7832C242.645 37.9395 241.429 39.3607 240.249 41.0469C238.37 43.7448 236.455 46.8522 234.503 50.3691L233.528 52.1035H228.433C228.433 52.1035 228.806 50.9714 229.553 48.707C231.649 42.444 232.697 38.7344 232.697 37.5781C232.697 36.3978 232.504 35.8076 232.119 35.8076C231.42 35.8076 230.589 36.6387 229.625 38.3008C229.409 38.6862 229.228 38.9993 229.083 39.2402C228.939 39.457 228.77 39.734 228.578 40.0713C228.409 40.3844 228.301 40.5771 228.252 40.6494L225.832 39.2402C227.71 36.181 229.433 33.9287 230.999 32.4834C232.564 31.014 234.166 30.2793 235.804 30.2793C236.551 30.2793 237.189 30.5924 237.719 31.2188C238.273 31.8451 238.55 32.5918 238.55 33.459C238.55 34.3021 238.502 35.0609 238.406 35.7354C238.309 36.3857 238.201 36.988 238.081 37.542C237.96 38.096 237.792 38.7585 237.575 39.5293C237.358 40.3001 237.177 40.8903 237.033 41.2998C236.912 41.7093 236.744 42.2633 236.527 42.9619C236.31 43.6605 236.178 44.07 236.129 44.1904C236.563 43.3232 237.298 42.0465 238.333 40.3604C239.369 38.6742 240.044 37.6143 240.357 37.1807C240.67 36.7471 241.104 36.1689 241.658 35.4463C242.212 34.7236 242.694 34.1696 243.103 33.7842C243.537 33.3747 244.042 32.917 244.621 32.4111C245.223 31.8812 245.789 31.4837 246.319 31.2188C247.668 30.5924 248.969 30.2793 250.221 30.2793C251.474 30.2793 252.473 30.6527 253.22 31.3994C253.991 32.1221 254.376 32.9772 254.376 33.9648C254.376 34.9284 254.063 35.7835 253.437 36.5303C252.835 37.2529 252.124 37.6143 251.305 37.6143C250.51 37.6143 249.884 37.4818 249.426 37.2168C248.969 36.9277 248.655 36.6266 248.487 36.3135C247.981 35.4463 247.535 35.0127 247.15 35.0127Z" fill="#D95F77"/>
<path d="M224.944 45.166C223.86 47.334 222.318 49.1286 220.319 50.5498C218.344 51.971 216.067 52.6816 213.49 52.6816C210.913 52.6816 208.853 51.694 207.311 49.7188C206.179 54.1751 205.216 57.3548 204.421 59.2578C201.915 65.1595 198.483 68.1224 194.123 68.1465C193.063 68.1465 192.172 67.7852 191.449 67.0625C190.726 66.3398 190.365 65.4967 190.365 64.5332C190.365 63.5938 190.606 62.847 191.088 62.293C191.569 61.763 192.208 61.498 193.003 61.498C193.798 61.498 194.46 61.6787 194.99 62.04C195.52 62.4255 195.785 63.0036 195.785 63.7744C195.785 64.5693 195.363 65.4124 194.52 66.3037L194.737 66.5928C196.231 66.5928 197.592 64.4128 198.82 60.0527C199.302 58.2943 199.651 56.9212 199.868 55.9336C200.085 54.946 200.217 54.3558 200.265 54.1631L204.059 39.2402C202.879 40.0111 201.373 41.5046 199.543 43.7207L198.134 42.0947C199.193 40.6253 200.446 39.1921 201.891 37.7949C203.337 36.3978 204.252 35.5065 204.637 35.1211C206.516 29.5566 208.335 25.3893 210.094 22.6191C211.924 19.8249 213.948 17.6208 216.164 16.0068L217.139 16.874C215.622 18.6807 214.333 20.9811 213.273 23.7754C212.213 26.5697 211.527 29.2555 211.214 31.833C213.791 30.7972 216.236 30.2793 218.549 30.2793C220.885 30.2793 222.812 31.014 224.33 32.4834C225.847 33.9528 226.606 35.8919 226.606 38.3008C226.606 40.7096 226.052 42.998 224.944 45.166ZM210.852 35.085L208.106 47.2256C208.54 48.165 209.262 48.8757 210.274 49.3574C211.286 49.8392 212.454 50.0801 213.779 50.0801C215.104 50.0801 216.32 49.514 217.428 48.3818C219.5 46.262 220.536 43.5039 220.536 40.1074C220.536 37.0723 219.717 35.0247 218.079 33.9648C217.428 33.5312 216.561 33.3145 215.477 33.3145C214.417 33.3145 212.876 33.9046 210.852 35.085Z" fill="#D95F77"/>
<path d="M164.634 39.6016L162.285 38.1924C163.49 36.0967 164.983 34.2539 166.766 32.6641C168.573 31.0742 170.186 30.2793 171.608 30.2793C173.92 30.2793 175.076 31.3151 175.076 33.3867C175.076 34.2539 174.474 36.3617 173.27 39.71C172.089 43.0583 171.499 45.1781 171.499 46.0693C171.499 46.9606 171.559 47.5387 171.68 47.8037C171.8 48.0446 172.065 48.165 172.475 48.165C174.667 48.165 176.919 47.346 179.232 45.708C181.568 44.0459 183.086 42.2152 183.784 40.2158L186.314 32.8447C186.579 32.098 186.988 31.5078 187.542 31.0742C188.096 30.6406 188.626 30.4238 189.132 30.4238C189.662 30.4238 190.084 30.5924 190.397 30.9297C190.734 31.2669 190.903 31.7126 190.903 32.2666C190.903 32.8206 190.794 33.3988 190.577 34.001L187.831 42.0225C186.314 46.7438 183.965 51.3929 180.785 55.9697C183.556 56.2588 186.025 56.7526 188.193 57.4512L187.904 59.4746C184.579 58.8001 181.641 58.4027 179.087 58.2822C176.751 61.2933 174.354 63.6901 171.897 65.4727C169.464 67.2793 167.332 68.1826 165.501 68.1826C163.695 68.1826 162.346 67.8092 161.454 67.0625C160.539 66.3398 160.081 65.3402 160.081 64.0635C160.081 62.7868 160.563 61.6185 161.527 60.5586C162.49 59.5228 163.779 58.6797 165.393 58.0293C168.669 56.6803 172.427 55.9095 176.666 55.7168C177.003 55.3314 177.81 53.9824 179.087 51.6699C180.364 49.3333 181.05 47.8639 181.147 47.2617C176.883 50.875 173.125 52.6816 169.873 52.6816C168.548 52.6816 167.585 52.236 166.983 51.3447C166.38 50.4294 166.079 49.3092 166.079 47.9844C166.079 46.6595 166.573 44.3952 167.561 41.1914C168.573 37.9635 169.078 36.1328 169.078 35.6992C169.078 35.2415 168.97 35.0127 168.753 35.0127C168.56 35.0127 168.344 35.0729 168.103 35.1934C167.862 35.2897 167.621 35.4583 167.38 35.6992C167.163 35.916 166.959 36.1328 166.766 36.3496C166.573 36.5423 166.356 36.8193 166.115 37.1807C165.899 37.542 165.73 37.819 165.61 38.0117C165.104 38.8066 164.779 39.3366 164.634 39.6016ZM175.076 58.2822C173.125 58.4027 171.138 58.752 169.115 59.3301C165.212 60.4382 163.261 61.7389 163.261 63.2324C163.261 64.1237 163.815 64.5693 164.923 64.5693C166.031 64.5693 167.838 63.7624 170.343 62.1484C172.848 60.5586 174.426 59.2699 175.076 58.2822Z" fill="#D95F77"/>
<path d="M158.507 47.876C157.327 49.2972 155.761 50.4534 153.81 51.3447C151.859 52.236 149.607 52.6816 147.053 52.6816C144.5 52.6816 142.332 51.9229 140.549 50.4053C138.791 48.8877 137.912 46.9606 137.912 44.624C137.912 44.3591 137.96 43.8652 138.056 43.1426C139.044 36.5182 140.838 29.2676 143.44 21.3906C146.042 13.4896 148.836 7.59993 151.823 3.72168H157.965C156.159 5.74512 153.991 10.0449 151.461 16.6211C148.956 23.1973 146.933 29.6771 145.391 36.0605C148.306 32.2064 151.582 30.2793 155.219 30.2793C157.484 30.2793 159.218 31.0501 160.422 32.5918C161.651 34.1094 162.265 35.8558 162.265 37.8311C162.265 39.8063 161.94 41.625 161.29 43.2871C160.639 44.9251 159.712 46.4548 158.507 47.876ZM144.271 43.1426C144.078 44.1543 143.982 45.1419 143.982 46.1055C143.982 47.0449 144.331 48.0085 145.03 48.9961C145.728 49.9596 146.8 50.4414 148.246 50.4414C149.691 50.4414 151.016 49.8151 152.22 48.5625C154.533 46.1296 155.689 42.9137 155.689 38.915C155.689 37.277 155.412 35.9401 154.858 34.9043C154.304 33.8444 153.449 33.3145 152.292 33.3145C151.136 33.3145 149.691 34.2419 147.957 36.0967C146.246 37.9515 145.018 40.3001 144.271 43.1426Z" fill="#D95F77"/>
<path d="M124.683 45.166C123.599 47.334 122.057 49.1286 120.058 50.5498C118.083 51.971 115.806 52.6816 113.229 52.6816C110.651 52.6816 108.592 51.694 107.05 49.7188C105.918 54.1751 104.954 57.3548 104.159 59.2578C101.654 65.1595 98.2216 68.1224 93.8616 68.1465C92.8017 68.1465 91.9104 67.7852 91.1877 67.0625C90.4651 66.3398 90.1038 65.4967 90.1038 64.5332C90.1038 63.5938 90.3446 62.847 90.8264 62.293C91.3082 61.763 91.9465 61.498 92.7415 61.498C93.5364 61.498 94.1988 61.6787 94.7288 62.04C95.2587 62.4255 95.5237 63.0036 95.5237 63.7744C95.5237 64.5693 95.1021 65.4124 94.259 66.3037L94.4758 66.5928C95.9693 66.5928 97.3303 64.4128 98.5588 60.0527C99.0406 58.2943 99.3899 56.9212 99.6067 55.9336C99.8235 54.946 99.956 54.3558 100.004 54.1631L103.798 39.2402C102.618 40.0111 101.112 41.5046 99.2815 43.7207L97.8723 42.0947C98.9322 40.6253 100.185 39.1921 101.63 37.7949C103.075 36.3978 103.991 35.5065 104.376 35.1211C106.255 29.5566 108.074 25.3893 109.832 22.6191C111.663 19.8249 113.686 17.6208 115.903 16.0068L116.878 16.874C115.361 18.6807 114.072 20.9811 113.012 23.7754C111.952 26.5697 111.266 29.2555 110.952 31.833C113.53 30.7972 115.975 30.2793 118.287 30.2793C120.624 30.2793 122.551 31.014 124.069 32.4834C125.586 33.9528 126.345 35.8919 126.345 38.3008C126.345 40.7096 125.791 42.998 124.683 45.166ZM110.591 35.085L107.845 47.2256C108.279 48.165 109.001 48.8757 110.013 49.3574C111.025 49.8392 112.193 50.0801 113.518 50.0801C114.843 50.0801 116.059 49.514 117.167 48.3818C119.239 46.262 120.275 43.5039 120.275 40.1074C120.275 37.0723 119.456 35.0247 117.818 33.9648C117.167 33.5312 116.3 33.3145 115.216 33.3145C114.156 33.3145 112.615 33.9046 110.591 35.085Z" fill="#D95F77"/>
<path d="M73.9321 43.5039C73.9321 41.6973 74.3657 39.9629 75.2329 38.3008C76.1242 36.6146 77.2684 35.1934 78.6655 34.0371C81.7489 31.5319 84.8924 30.2793 88.0962 30.2793C91.3 30.2793 93.9256 31.1344 95.9731 32.8447C98.0207 34.555 99.0444 36.6989 99.0444 39.2764C99.0444 41.8298 98.3338 44.1302 96.9126 46.1777C95.5155 48.2253 93.6606 49.8271 91.3481 50.9834C89.0356 52.1156 86.5063 52.6816 83.7603 52.6816C81.0382 52.6816 78.7137 51.8265 76.7866 50.1162C74.8836 48.3818 73.9321 46.1777 73.9321 43.5039ZM85.7476 50.4414C86.8556 50.4414 87.8914 50.0801 88.855 49.3574C89.8426 48.6348 90.5894 47.6953 91.0952 46.5391C92.0828 44.3229 92.5767 42.0345 92.5767 39.6738C92.5767 37.3132 92.1431 35.5306 91.2759 34.3262C90.4087 33.0977 89.1802 32.4834 87.5903 32.4834C86.0005 32.4834 84.4227 33.5192 82.8569 35.5908C81.3153 37.6624 80.5444 40.3001 80.5444 43.5039C80.5444 48.1289 82.2788 50.4414 85.7476 50.4414Z" fill="#D95F77"/>
<path d="M61.988 48.7793C61.988 47.5267 62.4939 45.5153 63.5056 42.7451C64.5173 39.9749 65.0232 37.9997 65.0232 36.8193C65.0232 35.6149 64.6016 35.0127 63.7585 35.0127C62.9395 35.0127 61.9399 35.6029 60.7595 36.7832C59.5792 37.9395 58.447 39.3607 57.363 41.0469C55.5805 43.7689 53.7859 46.8763 51.9792 50.3691L51.0398 52.1035H45.8367C47.017 43.3835 48.1492 36.9277 49.2332 32.7363C50.3171 28.5449 51.3529 24.9678 52.3406 22.0049C53.3282 19.042 54.3881 16.4163 55.5203 14.1279C58.0736 8.87663 61.0125 4.98633 64.3367 2.45703L67.0828 3.72168C64.5053 6.29915 62.1326 10.8398 59.9646 17.3438C57.8207 23.8236 55.436 32.7725 52.8103 44.1904C52.9548 43.9495 53.2439 43.4437 53.6775 42.6729C54.1352 41.8779 54.4845 41.2878 54.7253 40.9023C54.9662 40.4928 55.3276 39.8906 55.8093 39.0957C56.3152 38.3008 56.7367 37.6745 57.074 37.2168C57.4112 36.735 57.8448 36.1449 58.3748 35.4463C58.9288 34.7477 59.4106 34.1937 59.8201 33.7842C60.2537 33.3506 60.7595 32.8929 61.3376 32.4111C61.9158 31.9053 62.4698 31.5078 62.9998 31.2188C64.2283 30.5924 65.5411 30.2793 66.9382 30.2793C68.3354 30.2793 69.3832 30.6647 70.0818 31.4355C70.8044 32.2064 71.1658 33.2422 71.1658 34.543C71.1658 35.8438 70.5636 38.0358 69.3591 41.1191C68.1547 44.1784 67.5525 46.0693 67.5525 46.792C67.5525 47.5146 67.7452 47.876 68.1306 47.876C69.1423 47.876 70.672 46.3464 72.7195 43.2871L74.2732 44.7324C72.7315 47.3822 71.1176 49.3695 69.4314 50.6943C67.7693 52.0192 66.3962 52.6816 65.3123 52.6816C64.2524 52.6816 63.4333 52.3444 62.8552 51.6699C62.2771 50.9954 61.988 50.0319 61.988 48.7793Z" fill="#D95F77"/>
<path d="M33.459 50.4414C31.1224 51.4531 28.7376 52.1758 26.3047 52.6094C23.8958 53.0671 21.6074 53.2959 19.4395 53.2959C17.2956 53.2959 15.3564 53.1755 13.6221 52.9346C11.9118 52.7178 10.2015 52.3324 8.49121 51.7783C6.80501 51.2002 5.34766 50.4655 4.11914 49.5742C1.37305 47.623 0 44.8649 0 41.2998C0 39.18 0.493815 37.2048 1.48145 35.374C2.46908 33.5192 3.75781 31.9896 5.34766 30.7852C8.72005 28.1836 12.4056 26.8828 16.4043 26.8828C21.1979 26.8828 24.763 28.292 27.0996 31.1104C28.2559 32.5316 28.834 34.2539 28.834 36.2773C28.834 38.3008 27.8704 40.0592 25.9434 41.5527C24.0404 43.0221 22.029 43.7568 19.9092 43.7568C19.4033 43.7568 19.1504 43.5039 19.1504 42.998C19.1504 42.4681 19.3913 42.0947 19.873 41.8779C20.3548 41.637 20.9329 41.4202 21.6074 41.2275C22.2819 41.0107 22.9564 40.7578 23.6309 40.4688C25.293 39.722 26.124 38.5176 26.124 36.8555C26.124 35.1693 25.3532 33.9046 23.8115 33.0615C22.2939 32.1943 19.6442 31.7607 15.8623 31.7607C12.0804 31.7607 9.15365 32.7243 7.08203 34.6514C5.01042 36.5544 3.97461 38.8307 3.97461 41.4805C3.97461 44.9733 5.52832 47.4544 8.63574 48.9238C11.4059 50.2487 14.7181 50.9111 18.5723 50.9111C25.1966 50.9111 30.5563 49.0202 34.6514 45.2383C37.542 42.5885 38.9873 39.2523 38.9873 35.2295C38.9873 32.8206 38.1322 30.484 36.4219 28.2197C35.6751 27.208 34.8441 26.2083 33.9287 25.2207C33.0133 24.2331 32.098 23.2454 31.1826 22.2578C30.2673 21.2702 29.4362 20.2826 28.6895 19.2949C26.9792 17.127 26.124 15.1035 26.124 13.2246C26.124 11.3457 26.4251 9.73177 27.0273 8.38281C27.6536 7.00977 28.4727 5.82943 29.4844 4.8418C30.5202 3.83008 31.7005 2.96289 33.0254 2.24023C35.6992 0.746745 38.5296 0 41.5166 0C44.1182 0 46.5391 0.626302 48.7793 1.87891C51.2363 3.22786 52.4648 5.28743 52.4648 8.05762C52.4648 9.1416 52.0794 10.0931 51.3086 10.9121C50.5378 11.7311 49.6706 12.1406 48.707 12.1406C47.7435 12.1406 46.9486 11.8636 46.3223 11.3096C45.7201 10.7555 45.4189 10.1413 45.4189 9.4668C45.4189 8.76823 45.708 8.03353 46.2861 7.2627C46.8883 6.46777 47.1895 5.81738 47.1895 5.31152C47.1895 4.78158 46.9727 4.2998 46.5391 3.86621C46.1055 3.43262 45.5514 3.10742 44.877 2.89062C43.528 2.48112 42.2995 2.27637 41.1914 2.27637C38.638 2.27637 36.446 3.03516 34.6152 4.55273C32.7845 6.07031 31.8691 8.17806 31.8691 10.876C31.8691 12.3454 32.7845 14.0677 34.6152 16.043C35.4342 16.9102 36.3255 17.8376 37.2891 18.8252C38.2767 19.7887 39.2643 20.8245 40.252 21.9326C41.2396 23.0407 42.1429 24.1849 42.9619 25.3652C44.7926 27.9668 45.708 30.6647 45.708 33.459C45.708 36.2533 45.154 38.7826 44.0459 41.0469C42.9378 43.3112 41.4805 45.1901 39.6738 46.6836C37.8913 48.153 35.8197 49.4056 33.459 50.4414Z" fill="#D95F77"/>
</svg>
