<svg width="49" height="18" viewBox="0 0 49 18" fill="none" xmlns="http://www.w3.org/2000/svg">
<path d="M5.80204 6.10046L7.17172 10.3159H11.6041L8.01823 12.9212L9.3879 17.1366L5.80204 14.5313L2.21618 17.1366L3.58586 12.9212L0 10.3159H4.43237L5.80204 6.10046Z" fill="#D4B45D"/>
<path d="M42.406 6.10046L43.7757 10.3159H48.2081L44.6222 12.9212L45.9919 17.1366L42.406 14.5313L38.8202 17.1366L40.1899 12.9212L36.604 10.3159H41.0364L42.406 6.10046Z" fill="#D4B45D"/>
<path d="M24.1038 0L25.4735 4.21543H29.9058L26.32 6.82071L27.6897 11.0361L24.1038 8.43086L20.5179 11.0361L21.8876 6.82071L18.3018 4.21543H22.7341L24.1038 0Z" fill="#D4B45D"/>
</svg>
