<svg width="21" height="8" viewBox="0 0 21 8" fill="none" xmlns="http://www.w3.org/2000/svg">
<path d="M2.51222 2.64148L3.10528 4.46672H5.02445L3.47181 5.59478L4.06487 7.42001L2.51222 6.29196L0.959584 7.42001L1.55264 5.59478L0 4.46672H1.91917L2.51222 2.64148Z" fill="#D4B45D"/>
<path d="M18.3611 2.64148L18.9542 4.46672H20.8733L19.3207 5.59478L19.9137 7.42001L18.3611 6.29196L16.8085 7.42001L17.4015 5.59478L15.8489 4.46672H17.768L18.3611 2.64148Z" fill="#D4B45D"/>
<path d="M10.4368 0L11.0298 1.82524H12.949L11.3964 2.9533L11.9894 4.77854L10.4368 3.65048L8.88415 4.77854L9.4772 2.9533L7.92456 1.82524H9.84373L10.4368 0Z" fill="#D4B45D"/>
</svg>
