<svg width="68" height="168" viewBox="0 0 68 168" fill="none" xmlns="http://www.w3.org/2000/svg">
<g filter="url(#filter0_d_67_1486)">
<path d="M62.4969 60.4514H46.5911C45.3324 60.4475 44.3222 59.4598 44.3182 58.2291V43.508C45.2602 42.3831 46.2423 41.415 47.3767 40.784C47.966 40.6076 49.365 40.1451 50.0945 38.6479C50.1306 38.5774 50.1627 38.5029 50.1907 38.4324C50.6798 37.2135 50.4954 35.8574 49.7017 34.8109C48.8679 33.7135 47.4649 33.102 46.0499 33.2079C46.0339 33.2079 46.0178 33.2079 46.0018 33.2118C45.8575 33.2235 45.7212 33.251 45.5809 33.2706C46.1982 32.8982 46.8236 32.4553 47.4529 31.9145C47.8497 31.5931 48.1544 31.2639 48.4029 31.0013C48.431 30.9699 48.467 30.9346 48.4991 30.8994C48.5472 30.8994 48.5953 30.8994 48.6434 30.8954C49.405 30.8641 50.8521 30.8053 52.0066 29.8568C52.0306 29.8607 52.0507 29.8686 52.0747 29.8764C52.1589 29.896 52.2671 29.9156 52.3513 29.9274C52.4355 29.9391 52.5157 29.9509 52.5958 29.9587C52.9406 30.0018 53.2973 30.0214 53.6541 30.0214H53.7062C56.6565 30.0018 59.1337 28.5556 61.122 27.3915L61.3585 27.2543C62.8857 26.4626 64.417 24.8243 63.6874 21.4458C64.0682 20.1681 63.8838 19.1334 63.483 18.3299C63.4269 17.5225 63.2545 16.0645 61.9798 14.8495C61.8756 14.7516 61.7633 14.6575 61.6471 14.5713C61.3384 14.3439 61.0458 13.7952 60.8013 13.2896C60.6449 12.9682 60.4405 12.6743 60.192 12.4195C60.0597 12.2824 59.8633 11.9727 59.6709 11.6748C59.3101 11.1105 58.8611 10.4089 58.1877 9.74652C58.1156 9.67597 58.0434 9.60934 57.9672 9.54663C57.4582 9.12726 56.929 8.88034 56.4761 8.72748C55.8908 8.35514 55.2414 8.08079 54.564 7.92401C53.9788 7.74764 52.9005 7.43017 51.6859 7.56735C51.6378 7.52816 51.5937 7.48504 51.5416 7.44585C51.3893 7.33219 51.2409 7.2342 51.1006 7.1519C50.4432 6.39154 49.5734 5.87026 48.5753 5.6547C48.4791 5.6351 48.3869 5.61942 48.2907 5.60767C48.0261 4.99624 47.6693 4.4201 47.2284 3.91058C47.1883 3.85571 47.1523 3.79692 47.1122 3.73813C46.6031 2.99345 45.4126 1.24541 43.0275 1.10823C42.8832 1.10039 42.7389 1.10039 42.5946 1.10823C42.2178 1.13567 41.8891 1.19446 41.6245 1.24933C41.1154 1.05336 40.4139 0.853472 39.5441 0.888747C38.7704 0.92794 38.1371 1.14351 37.628 1.41002C36.69 0.445858 35.6718 0.132308 34.9944 0.0382435C34.4613 -0.0362245 33.411 -0.0636601 32.2846 0.55952C30.9258 0.49289 29.9597 0.947537 29.3664 1.35515C26.9573 -0.0244663 24.2796 0.202857 22.6401 2.01361C22.5119 2.14686 22.3996 2.27228 22.3034 2.38595C21.4015 2.68774 20.7641 3.20117 20.3713 3.53824C19.6297 3.70285 18.3671 4.02816 17.3409 5.16478C17.3168 5.18829 17.2968 5.21573 17.2727 5.23925C15.7094 5.32547 13.7613 5.85851 12.6549 7.95929C12.6469 7.97888 12.6349 7.99456 12.6268 8.01416C12.5066 8.25716 12.4104 8.4884 12.3342 8.70005C10.7909 9.63286 10.338 11.0125 10.1816 11.9139C9.76075 12.251 9.33986 12.7252 9.03922 13.3837C8.71453 14.1127 8.62634 14.8143 8.66643 15.4492C8.34574 15.9195 8.15333 16.382 8.0411 16.8131C6.85858 16.5153 5.52374 16.4526 4.21697 17.1659C3.58763 17.5069 2.97032 18.3966 2.50533 19.9408C1.91607 21.0657 1.75172 22.3747 2.05236 23.6211C1.97219 24.0718 1.89202 24.7773 2.08042 25.5886C2.15659 25.9923 2.28486 26.3372 2.41714 26.6155C2.47326 26.9134 2.56145 27.2034 2.67368 27.4895C2.93023 28.3949 3.04648 29.1043 3.81611 29.798C4.1368 30.5192 4.6579 31.1659 5.37142 31.7263C5.8324 33.6155 7.055 34.5757 7.92485 35.0304C8.57824 35.4066 9.28775 35.6496 10.0253 35.7437C10.2738 35.7751 10.5224 35.7946 10.7709 35.7946H10.803C11.8011 35.7868 12.8152 35.5203 13.7733 35.0147C14.0619 35.2303 14.3826 35.4145 14.7233 35.5516C15.1282 35.728 15.5611 35.8495 16.0181 35.9122C16.0421 35.9122 16.0662 35.9201 16.0942 35.9201C16.5592 35.9749 16.9601 35.9553 17.2086 35.9436C17.878 36.0494 18.5635 36.1004 19.2569 36.1004C19.285 36.1004 19.3091 36.1004 19.3371 36.1004C20.1468 36.0964 20.9926 36.0181 21.8625 35.873C22.8245 35.7633 23.6663 35.5242 24.4159 35.3086C24.5362 35.2734 24.6524 35.242 24.7727 35.2107C24.9731 36.5237 25.4501 37.6681 26.0354 38.6832C25.0332 38.8361 23.7826 38.5539 22.4397 39.9609C22.0028 40.4234 21.7863 40.9917 21.7502 41.5992L21.6099 41.5875V58.233C21.6059 59.4637 20.5958 60.4514 19.3371 60.4553H3.40724C1.51923 60.4632 0.00400852 61.9408 0 63.7868L0 143.781C0.0400852 156.092 10.1335 165.961 22.7243 166H43.1758C55.7666 165.961 65.86 156.092 65.9001 143.781V63.7868C65.8921 61.9408 64.3809 60.4592 62.4929 60.4553L62.4969 60.4514Z" fill="#F5E4D4"/>
</g>
<path d="M28.7819 159.914C28.7819 160.031 28.7659 160.137 28.9182 160.137V160.215C28.818 160.215 28.7218 160.208 28.6176 160.208C28.5133 160.208 28.4091 160.215 28.3049 160.215V160.137C28.345 160.137 28.4091 160.129 28.4332 160.094C28.4572 160.063 28.4572 159.957 28.4572 159.914V159.592C28.4572 159.471 28.4612 159.322 28.2969 159.33V159.251C28.4492 159.236 28.6015 159.212 28.7498 159.157L28.7619 159.377H28.7659C28.834 159.243 28.9783 159.157 29.1306 159.157C29.283 159.157 29.4193 159.22 29.4473 159.377C29.5275 159.24 29.6558 159.157 29.8201 159.157C29.9404 159.157 30.0646 159.2 30.1248 159.314C30.1648 159.396 30.1568 159.581 30.1568 159.675V159.914C30.1568 159.953 30.1568 160.063 30.1809 160.094C30.2089 160.129 30.2731 160.137 30.3092 160.137V160.215C30.2049 160.215 30.1007 160.208 29.9925 160.208C29.8963 160.208 29.7921 160.215 29.6959 160.215V160.137C29.8522 160.129 29.8321 160.043 29.8321 159.914V159.612C29.8321 159.506 29.8402 159.31 29.6838 159.31C29.5996 159.31 29.5355 159.373 29.4994 159.447C29.4634 159.518 29.4634 159.624 29.4634 159.702V159.914C29.4634 160.031 29.4473 160.137 29.5996 160.137V160.215C29.4994 160.215 29.4032 160.208 29.303 160.208C29.2068 160.208 29.1066 160.215 29.0064 160.215V160.137C29.1587 160.137 29.1427 160.035 29.1427 159.914V159.612C29.1427 159.506 29.1507 159.314 28.9944 159.314C28.9102 159.314 28.8541 159.377 28.814 159.447C28.7739 159.518 28.7739 159.635 28.7739 159.714V159.914H28.7819Z" fill="#231815"/>
<path d="M31.6125 159.694C31.6125 160.012 31.344 160.239 31.0313 160.239C30.7186 160.239 30.426 160.023 30.426 159.69C30.426 159.373 30.7186 159.153 31.0233 159.153C31.3279 159.153 31.6125 159.369 31.6125 159.69M30.7828 159.69C30.7828 159.867 30.7988 160.145 31.0433 160.145C31.2478 160.145 31.2558 159.843 31.2558 159.706C31.2558 159.545 31.2478 159.255 31.0273 159.255C30.8068 159.255 30.7828 159.534 30.7828 159.694V159.69Z" fill="#231815"/>
<path d="M31.7239 159.251L32.1728 159.157L32.1889 159.388H32.1929C32.253 159.275 32.3652 159.157 32.5015 159.157C32.6017 159.157 32.6859 159.24 32.6859 159.341C32.6859 159.42 32.6258 159.463 32.5456 159.463C32.4133 159.463 32.4334 159.361 32.3532 159.361C32.2209 159.361 32.2049 159.592 32.2049 159.678V159.918C32.2049 160.094 32.2049 160.141 32.3773 160.141V160.219C32.265 160.219 32.1488 160.212 32.0365 160.212C31.9323 160.212 31.8321 160.219 31.7319 160.219V160.141C31.772 160.141 31.8361 160.133 31.8602 160.098C31.8842 160.067 31.8842 159.961 31.8842 159.918V159.53C31.8842 159.381 31.8481 159.341 31.7239 159.33V159.251Z" fill="#231815"/>
<path d="M33.2352 159.914C33.2352 159.953 33.2352 160.063 33.2592 160.094C33.2873 160.129 33.3514 160.137 33.3875 160.137V160.215C33.2913 160.215 33.1911 160.208 33.0869 160.208C32.9786 160.208 32.8704 160.215 32.7582 160.215V160.137C32.7982 160.137 32.8624 160.129 32.8864 160.094C32.9105 160.063 32.9105 159.957 32.9105 159.914V159.498C32.9105 159.353 32.8824 159.302 32.7542 159.306V159.228C32.9145 159.216 33.0708 159.193 33.2312 159.157V159.914H33.2352Z" fill="#231815"/>
<path d="M34.0534 159.349H34.0574C34.1296 159.22 34.2779 159.157 34.4262 159.157C34.6026 159.157 34.7629 159.259 34.7629 159.443V159.914C34.7629 159.953 34.7629 160.063 34.787 160.094C34.815 160.129 34.8791 160.137 34.9152 160.137V160.215C34.819 160.215 34.7228 160.208 34.6306 160.208C34.5144 160.208 34.4021 160.215 34.2859 160.215V160.137C34.326 160.137 34.3901 160.129 34.4142 160.094C34.4382 160.063 34.4382 159.957 34.4382 159.914V159.526C34.4382 159.42 34.4021 159.314 34.2739 159.314C34.1255 159.314 34.0494 159.49 34.0494 159.612V159.918C34.0494 159.957 34.0494 160.066 34.0734 160.098C34.1015 160.133 34.1656 160.141 34.2017 160.141V160.219C34.0975 160.219 33.9933 160.211 33.885 160.211C33.7808 160.211 33.6766 160.219 33.5724 160.219V160.141C33.6125 160.141 33.6766 160.133 33.7006 160.098C33.7247 160.066 33.7247 159.961 33.7247 159.918V158.93C33.7247 158.8 33.7087 158.761 33.5684 158.746V158.667L34.0454 158.597V159.353L34.0534 159.349Z" fill="#231815"/>
<path d="M36.1812 160.094C36.1291 160.188 35.9888 160.243 35.8886 160.243C35.7723 160.243 35.7082 160.192 35.6761 160.082C35.5879 160.172 35.4596 160.243 35.3314 160.243C35.1791 160.243 35.0508 160.141 35.0508 159.984C35.0508 159.749 35.3274 159.667 35.5438 159.584C35.62 159.557 35.6801 159.557 35.6801 159.467C35.6801 159.361 35.6721 159.255 35.5398 159.255C35.4476 159.255 35.4196 159.294 35.3835 159.373C35.3554 159.451 35.3234 159.522 35.2231 159.522C35.147 159.522 35.0909 159.471 35.0909 159.392C35.0909 159.189 35.4115 159.157 35.5639 159.157C35.7723 159.157 36.0008 159.208 36.0008 159.455V159.941C36.0008 159.98 36.0008 160.063 36.0529 160.063C36.093 160.063 36.109 160.051 36.1371 160.027L36.1852 160.09M35.6761 159.628C35.5518 159.678 35.3915 159.745 35.3915 159.898C35.3915 159.972 35.4236 160.059 35.5118 160.059C35.5839 160.059 35.6761 159.988 35.6761 159.91V159.624V159.628Z" fill="#231815"/>
<path d="M36.747 159.914C36.747 159.953 36.747 160.063 36.771 160.094C36.7991 160.129 36.8632 160.137 36.8993 160.137V160.215C36.7951 160.215 36.6909 160.208 36.5867 160.208C36.4824 160.208 36.3782 160.215 36.274 160.215V160.137C36.3141 160.137 36.3782 160.129 36.4023 160.094C36.4223 160.063 36.4223 159.957 36.4223 159.914V159.573C36.4223 159.443 36.4223 159.33 36.262 159.33V159.251C36.4143 159.236 36.5666 159.216 36.7109 159.157L36.739 159.373C36.8312 159.247 36.9434 159.157 37.0997 159.157C37.204 159.157 37.3202 159.196 37.3924 159.283C37.4525 159.361 37.4525 159.502 37.4525 159.6V159.914C37.4525 159.953 37.4525 160.063 37.4765 160.094C37.5046 160.129 37.5687 160.137 37.6048 160.137V160.215C37.5086 160.215 37.4124 160.208 37.3162 160.208C37.204 160.208 37.0877 160.215 36.9755 160.215V160.133C37.0156 160.133 37.0797 160.133 37.1038 160.094C37.1278 160.063 37.1278 159.957 37.1278 159.914V159.616C37.1278 159.502 37.1358 159.31 36.9715 159.31C36.8753 159.31 36.8111 159.381 36.771 159.459C36.735 159.53 36.739 159.631 36.739 159.706V159.91L36.747 159.914Z" fill="#231815"/>
<path d="M33.2516 158.765C33.2516 158.863 33.1715 158.942 33.0713 158.942C32.971 158.942 32.8909 158.863 32.8909 158.765C32.8909 158.667 32.971 158.589 33.0713 158.589C33.1715 158.589 33.2516 158.667 33.2516 158.765Z" fill="#231815"/>
<path d="M33.1791 157.292C32.9787 156.872 32.4496 156.727 31.9966 156.602C31.7962 156.551 31.8443 156.233 31.8964 156.061C31.9205 156.01 32.0207 155.986 32.0968 155.963C32.2211 155.888 32.0728 155.739 31.9966 155.692V155.618C32.173 155.496 32.4736 155.594 32.5257 155.371C32.5257 155.297 32.3734 155.273 32.2732 155.199C32.197 155.148 32.0968 155.25 32.0968 155.199C32.0968 155.003 32.0207 154.83 31.8683 154.681C31.8162 154.658 31.7681 154.705 31.7441 154.705C31.6198 154.877 31.5918 155.073 31.5196 155.269C31.4675 155.344 31.3953 155.391 31.3192 155.418C30.8422 155.567 30.4654 155.861 30.0124 156.08C29.9603 156.104 29.9884 155.908 30.0124 155.834C30.1367 155.661 30.3892 155.712 30.4894 155.563C30.5135 155.512 30.4894 155.391 30.4133 155.367C30.313 155.367 30.1848 155.367 30.1607 155.316C29.9603 155.046 30.4373 154.85 30.6618 154.752C30.786 154.728 30.8622 154.873 30.9384 154.901C31.1628 154.924 31.0907 154.579 31.2671 154.481C31.4915 154.36 31.7441 154.407 31.9966 154.383C32.0487 154.36 32.1209 154.332 32.1209 154.285C32.0688 153.866 31.5437 153.94 31.215 153.94C30.9905 153.917 31.1628 153.596 31.215 153.423C31.2671 153.227 31.5437 153.204 31.72 153.078C31.7721 153.027 31.8202 152.98 31.7962 152.929H31.696C31.5958 152.808 31.4956 152.71 31.3192 152.71C31.2951 152.71 31.243 152.659 31.243 152.635C31.243 152.514 31.243 152.341 31.1428 152.29C31.0666 152.239 30.8662 152.141 30.8422 152.216C30.8422 152.412 30.9183 152.682 30.766 152.808C30.5135 153.004 30.1367 153.027 29.812 153.004C29.9884 153.125 30.0645 153.47 30.3411 153.396C30.3932 153.396 30.3652 153.47 30.3652 153.494C30.1407 153.764 29.8881 153.96 29.7118 154.23C29.6356 154.352 29.6597 154.575 29.836 154.575C29.8881 154.599 29.9362 154.524 29.9884 154.501C30.2409 154.278 30.3892 153.984 30.6939 153.839C30.746 154.062 30.6939 154.305 30.6417 154.477C30.5656 154.673 30.313 154.799 30.1126 154.869C29.9884 154.893 29.8841 154.771 29.7358 154.795C29.7879 154.893 29.7358 154.991 29.6837 155.089C29.4833 155.312 29.1546 155.336 28.9542 155.508C28.8299 155.606 28.9542 155.853 29.1065 155.877C29.2307 155.928 29.359 155.802 29.4833 155.853C29.5354 155.877 29.5073 155.951 29.5073 156.002C29.3831 156.296 29.1065 156.492 28.9542 156.79C29.0544 156.739 29.0544 156.617 29.1546 156.57C29.1786 156.57 29.1786 156.594 29.1786 156.621C29.0784 156.77 29.0544 156.943 28.902 156.99C28.8499 157.013 28.878 156.915 28.902 156.841C28.8499 156.892 28.8018 156.939 28.8018 156.99C28.7497 157.088 28.8539 157.162 28.902 157.237C28.9261 157.311 29.0544 157.386 29.1546 157.335C29.3069 157.237 29.355 157.041 29.5314 156.99C29.6075 157.162 29.5554 157.358 29.6075 157.531C29.6597 157.629 29.7078 157.727 29.836 157.75C29.9122 157.774 30.0124 157.75 30.0124 157.727C30.1647 157.358 29.9362 156.966 30.0124 156.594C30.3652 156.249 30.766 155.931 31.243 155.783C31.2671 155.783 31.2671 155.806 31.2671 155.834C30.9384 156.3 30.3852 156.523 30.2609 157.064C30.2609 157.115 30.3852 157.213 30.4614 157.213C30.5375 157.213 30.6137 157.041 30.6618 157.115C30.8622 157.288 30.786 157.632 31.0386 157.73C31.1909 157.805 31.3553 157.727 31.5156 157.805C31.6158 157.856 31.7401 157.903 31.8443 157.954C31.8443 157.903 31.8964 157.93 31.9205 157.903C31.9726 157.828 31.9445 157.754 31.9726 157.68C32.0247 157.46 31.9205 157.213 31.9726 156.99C32.2251 157.041 32.4255 157.162 32.65 157.311C32.7262 157.386 32.8264 157.409 32.9025 157.433C33.0549 157.507 33.2793 157.484 33.1791 157.284V157.292ZM31.3673 157.389C31.3152 157.511 31.1147 157.511 30.9905 157.464C30.8662 157.413 30.7901 157.244 30.7379 157.119C30.6858 156.97 30.8782 156.919 30.9384 156.798C30.9624 156.747 31.0386 156.7 31.0907 156.676C31.215 156.625 31.3913 156.7 31.4194 156.825C31.4434 157.021 31.4715 157.217 31.3673 157.389Z" fill="#231815"/>
<path d="M33.7482 153.725C33.8725 153.776 33.9246 153.945 34.0248 153.996C34.1491 154.07 34.2253 153.847 34.3255 153.823C34.3776 153.8 34.3495 153.921 34.3255 153.972C34.2012 154.192 34.2253 154.415 34.1491 154.662C34.125 154.76 33.9727 154.736 33.8725 154.713C33.7723 154.662 33.6721 154.615 33.5438 154.564C33.4917 154.513 33.4436 154.442 33.3915 154.368C33.3153 154.148 33.2672 153.874 33.4155 153.678C33.4676 153.58 33.616 153.678 33.7442 153.729L33.7482 153.725Z" fill="#231815"/>
<path d="M35.9094 152.177C35.9335 152.165 36.0096 152.153 36.0337 152.177C36.158 152.298 36.2341 152.471 36.2582 152.62C36.3103 152.816 36.1339 152.988 36.158 153.184C36.158 153.207 36.182 153.235 36.2101 153.235C36.3343 153.258 36.4345 153.184 36.5628 153.211C36.6149 153.235 36.663 153.286 36.7392 153.309C36.9156 153.407 37.0398 153.58 37.116 153.776C36.8394 154.046 36.4386 153.799 36.162 153.603C36.1379 153.58 36.1099 153.627 36.0858 153.654C35.9856 153.976 35.9856 154.317 35.9856 154.638C36.0096 154.689 36.0618 154.76 36.1099 154.787C36.2101 154.838 36.4105 154.936 36.3383 155.006C36.1099 155.253 35.9375 155.696 36.2381 155.869C36.4145 155.967 36.7432 155.892 36.9156 156.088C36.8635 156.48 36.3624 156.261 36.0858 156.335C36.0096 156.656 36.0337 156.974 35.9335 157.272C35.8573 157.421 35.8092 157.617 35.6809 157.664C35.3803 157.785 35.1759 157.417 35.0035 157.197C35.0797 157.174 35.1278 157.295 35.1558 157.272C35.4084 156.978 35.4845 156.582 35.3563 156.237C35.3322 156.139 35.1558 156.186 35.0797 156.065C34.9795 155.916 34.9273 155.794 35.0035 155.645C35.0276 155.547 35.2039 155.524 35.2801 155.398C35.2801 155.375 35.2801 155.3 35.256 155.3C35.0276 155.375 34.779 155.375 34.6508 155.547C34.5986 155.598 34.7029 155.743 34.6267 155.841C34.6267 155.865 34.5505 155.79 34.5024 155.767C34.4263 155.692 34.3261 155.618 34.2499 155.547C34.1497 155.426 34.274 155.328 34.3742 155.253C34.6748 155.081 35.0035 154.983 35.2801 154.81C35.3322 154.489 35.2801 154.172 35.3563 153.827C35.4324 153.384 35.5086 152.964 35.6328 152.549C35.685 152.4 35.7571 152.255 35.9094 152.181V152.177Z" fill="#231815"/>
<path d="M32.1608 13.9995C32.4695 15.2459 32.6218 16.6412 33.7362 17.4956C34.129 17.817 34.4818 17.9777 34.8145 18.0208C34.8746 18.0286 34.9347 18.0326 34.9909 18.0326C36.5502 18.0247 37.5082 15.3086 38.6386 14.3131C40.3182 12.4906 42.4066 11.0208 44.5752 9.76269C45.9101 8.93963 45.4772 6.97994 44.5632 5.99226C44.0942 5.3926 43.6974 4.47547 42.8195 4.42451C42.2262 4.46371 41.641 4.73806 41.0437 4.63224C40.6108 4.47155 40.1859 4.18935 39.7049 4.20895C38.9713 4.24422 38.6065 4.94187 38.0013 5.23974C37.5603 5.02026 37.0552 4.93795 36.5943 5.14568C36.446 5.18487 36.1654 5.33381 35.981 5.23974C35.4999 3.7935 34.4778 2.35901 33.2271 4.16584C29.6876 2.69215 30.806 7.13672 31.0665 9.04153C31.303 10.719 31.7159 12.3652 32.1568 13.9995H32.1608Z" fill="#D3575E"/>
<path d="M31.8203 23.1982C31.8203 23.1982 31.8414 23.2229 31.8541 23.2353C31.8541 23.2353 31.8584 23.2394 31.8626 23.2435C31.8499 23.227 31.8372 23.2147 31.8245 23.1982H31.8203Z" fill="#D3575E"/>
<path d="M14.4671 19.8863C14.6394 19.9294 14.932 19.9804 15.3088 20.0274C16.1546 20.1332 17.4253 20.2273 18.656 20.2195C20.6121 20.2077 22.4641 19.9412 22.3518 19.0515C21.4739 13.8897 26.18 13.0117 28.9378 9.77826C30.1524 8.25754 29.7876 5.7805 28.2163 4.61645C27.4146 3.97759 25.9555 3.2917 25.1458 4.25195C24.7209 4.67132 24.4322 5.22003 23.851 5.46695C22.9972 5.44735 22.5883 6.17636 21.9229 6.56437C21.2415 6.82697 20.3997 6.78778 19.8786 7.36784C19.5018 7.77546 19.3134 8.33593 18.8163 8.62988V8.62204C17.734 8.5123 16.2669 8.35944 15.6736 9.4843C15.397 10.0369 15.3449 10.7189 14.9561 11.2088C13.0039 11.687 13.7736 12.6316 13.2445 14.0347C12.9238 14.309 12.3546 14.2699 12.1501 14.7167C11.8976 15.2811 12.1982 15.9395 12.4468 16.4608C9.66484 18.2049 12.5951 19.4473 14.4671 19.8981V19.8863Z" fill="#D3575E"/>
<path d="M38.3698 15.7006C37.7124 16.4492 33.7961 19.4789 35.4275 20.2863C35.7081 20.4705 36.0007 20.5685 36.3014 20.6037C36.4136 20.6155 36.5259 20.6233 36.6341 20.6233C37.5601 20.6194 38.5341 20.1726 39.4521 20.1334C41.9013 19.7807 44.126 18.6676 46.3427 17.6485C47.0041 17.3507 47.7337 17.0685 48.1826 16.4806C48.8681 15.3361 48.8962 13.9408 49.3892 12.718C49.5816 12.1261 49.9063 11.5304 49.8823 10.8915C49.8622 10.5741 49.7219 10.2684 49.4614 10.0724C49.2008 9.86859 48.828 9.85291 48.6677 9.53544C47.8419 8.08528 45.8938 9.34731 44.9237 10.0371C42.5948 11.7538 40.4702 13.7213 38.3778 15.7006H38.3698Z" fill="#A55251"/>
<path d="M60.1877 19.4752C59.9873 18.7227 60.2318 17.833 59.5945 17.2216C58.7126 16.5749 58.1835 15.6656 57.7185 14.7053C56.9569 13.9214 56.552 12.8515 55.7704 12.0872C55.5339 11.8951 55.2653 11.8246 54.9807 11.7893C54.6239 11.4679 54.191 11.2367 53.6899 11.1387C52.9684 10.927 52.1146 10.6292 51.4371 11.1152C50.6916 11.6247 50.8158 12.6124 50.6154 13.3845C50.3669 14.721 49.8498 16.0457 48.9198 17.0805C48.6352 17.3705 48.3586 17.6605 48.07 17.9427C46.5347 18.8207 44.8351 19.3458 43.0994 19.875C42.6825 20.0592 42.1013 20.0631 41.8007 20.4198C41.484 21.3212 43.0072 21.3173 43.5965 21.4506C44.8632 21.5172 45.7771 22.5284 46.7792 23.2025C48.6632 24.586 50.447 26.095 52.8201 26.6241C52.8802 26.632 52.9403 26.6437 53.0005 26.6476C53.229 26.6751 53.4534 26.6868 53.6779 26.6868C55.8305 26.6751 57.8989 25.3817 59.6947 24.3391C61.0295 23.6924 60.3481 22.2266 60.1116 21.2076C60.4122 20.6079 60.757 20.0709 60.1877 19.4791V19.4752Z" fill="#D3575E"/>
<path d="M44.5396 23.0809C43.7619 22.5439 43.0404 21.8502 42.1024 21.568C41.1965 21.2975 40.2344 21.3602 39.3004 21.4112C38.2903 21.5405 37.2721 21.5013 36.2539 21.4661C36.1617 21.4661 36.0736 21.4622 35.9814 21.4582C35.817 21.4269 35.6487 21.4112 35.4763 21.4073C35.2478 21.419 34.875 21.3759 34.4541 21.3328C33.2676 21.2074 31.7163 21.082 32.0731 22.2891C32.4659 23.0064 33.2195 23.4767 33.7366 24.1077C34.6586 25.1777 35.5685 26.2751 36.3582 27.4392C36.9153 28.1408 37.0316 29.1363 37.7411 29.7203C38.162 30.0025 38.623 30.1984 39.1 30.3709C39.7013 30.6687 40.2825 30.9196 40.535 31.0803C40.6834 31.1195 40.8317 31.1469 40.98 31.1665C41.1283 31.1861 41.2686 31.1939 41.4129 31.19C42.844 31.1822 44.1788 30.2807 45.233 29.3714C45.9906 28.7718 46.4917 27.7645 47.566 27.6704C48.2915 27.3882 50.3158 27.8821 49.939 26.6083C49.1253 24.4134 46.3073 24.2214 44.5356 23.0769L44.5396 23.0809Z" fill="#D3575E"/>
<path d="M27.0416 12.5652C26.3842 13.1452 25.8591 13.8233 25.5625 14.6503C25.0895 15.2225 24.4201 15.5909 24.0793 16.2847C23.466 17.4762 22.7726 18.6716 22.6363 20.0433C22.5721 20.7175 22.1152 21.5366 22.6242 22.1324C22.7926 22.2813 22.977 22.3518 23.1614 22.3754C23.2095 22.3793 23.2576 22.3832 23.3057 22.3832C23.3217 22.3832 23.3378 22.3793 23.3538 22.3793C23.43 22.4067 23.5061 22.4302 23.5823 22.4381C23.6304 22.442 23.6745 22.4459 23.7226 22.4459C24.38 22.442 25.0254 21.8776 25.6747 21.7483C28.136 20.8938 30.5852 20.4314 33.1987 20.8311C33.8601 20.9252 34.4293 20.8664 34.3532 20.0316C34.0165 19.0557 33.3711 18.2287 32.7778 17.3742C32.4972 16.6688 32.2527 15.9476 32.0162 15.2539C31.455 13.9056 31.6755 10.0999 29.7875 10.0137C28.4446 10.2841 27.8514 11.6245 27.0457 12.5652H27.0416Z" fill="#D3575E"/>
<path d="M46.3152 36.5282C43.2607 36.8065 41.4929 39.7264 39.2963 41.4823C38.5186 42.1251 37.761 42.7914 37.0114 43.4616C37.0715 43.2539 37.1918 43.0736 37.296 42.9481C37.5205 42.6777 37.6969 42.3759 37.8532 42.0624C38.9235 39.8832 39.4847 37.4101 40.4467 35.2074C40.7594 34.1335 41.2043 33.0478 41.1522 31.9151C41.0921 31.4762 40.6712 31.4291 40.2503 31.3782C40.0058 31.3507 39.7653 31.3233 39.5889 31.2214C38.7351 31.045 37.9654 30.6257 37.308 30.0573C36.9954 29.8379 36.6065 29.4342 36.1897 29.6341C35.3238 30.0103 34.6063 30.6609 33.7445 31.0489C33.512 31.0842 33.2714 31.0725 33.0309 31.0607C32.7383 31.045 32.4497 31.0293 32.1691 31.1038C31.6039 31.19 31.163 31.5545 30.5897 31.6212C30.2651 31.6329 29.9444 31.5467 29.6277 31.4644C29.2269 31.3586 28.83 31.2528 28.4251 31.339C28.1806 31.4448 27.9922 31.6996 27.9922 31.9622C27.9642 32.699 27.9922 33.4319 28.0564 34.1688C28.1967 36.9868 30.4975 38.923 31.9647 41.1531C32.6181 42.0389 32.8666 43.1324 33.1953 44.1906C33.1392 44.0142 32.6662 43.7516 32.5178 43.638C32.2292 43.4185 31.9326 43.2107 31.636 43.0069C30.6378 42.3289 29.5275 41.7527 28.361 41.3765C27.7677 41.1844 27.1585 41.0473 26.5411 40.961C26.012 40.8905 25.3386 40.8043 24.9177 41.2079C23.9957 42.0976 26.5331 42.9129 27.0422 43.1324C28.2528 43.6654 29.4513 44.2298 30.5897 44.9C31.1189 45.2096 31.636 45.5506 32.0929 45.9582C32.582 46.3972 32.9027 46.9185 33.2554 47.4593C33.4558 47.8748 33.524 48.3138 33.6603 48.7371C33.7084 49.7051 33.8286 50.8065 33.9288 51.7001C33.7926 58.5041 33.9369 65.316 33.9168 72.1161C33.8767 74.1777 33.54 82.1301 33.54 82.1301C33.54 82.1301 31.9045 102.236 30.3853 112.215C30.3693 112.325 30.4013 112.431 30.4615 112.517C30.4815 112.619 30.5416 112.713 30.6258 112.776C30.702 112.827 30.7781 112.854 30.8463 112.862C30.8623 112.862 30.8784 112.862 30.8944 112.862C31.2151 112.862 31.4516 112.442 31.656 112.196C32.7183 111.016 33.6643 109.816 33.9008 108.206C35.0633 101.339 34.8468 94.3428 35.2797 87.4173C35.4641 85.5752 35.9451 74.2561 35.9451 74.2561C35.9451 74.2561 36.358 68.0399 36.1416 64.928C36.1736 63.9912 36.1816 63.0584 36.1335 62.1217C36.1536 60.9929 36.1015 59.8641 36.0293 58.7354C36.0574 57.4067 36.0894 56.078 36.1135 54.7494C36.1496 54.5612 36.1576 54.3535 36.1536 54.1889C36.2498 52.8406 36.33 51.363 36.5544 50.003C36.6707 49.6268 36.7989 49.2583 36.9352 48.886C37.4563 47.9767 37.769 46.4207 38.2821 45.8446C40.5028 42.9873 42.5111 39.5775 45.8141 37.802C46.1428 37.5747 46.8243 37.5708 47.0046 37.2024C47.173 36.783 46.688 36.4851 46.3072 36.5125L46.3152 36.5282Z" fill="#748F71"/>
<path d="M35.0953 71.5983C36.8551 70.2814 37.2279 65.9701 38.2781 64.4024C38.8834 63.1443 39.9176 62.1095 41.1482 61.408C41.4649 61.2394 41.4328 60.7456 41.0921 60.6202C40.7674 60.5065 40.4066 60.726 40.1461 60.8985C39.0317 61.651 38.1258 62.6504 37.2359 63.6499C36.5143 64.4181 35.8569 65.2411 35.2998 66.123L35.0913 71.6023L35.0953 71.5983Z" fill="#748F71"/>
<path d="M34.3974 62.0627C33.9284 60.6086 33.2349 59.276 31.7558 58.6136C30.9701 58.3706 29.7114 58.4764 29.2665 59.229C29.2585 59.229 29.2464 59.2368 29.2344 59.2368C29.0019 59.4602 29.0901 59.8835 29.3948 59.9932C29.5511 60.0481 29.7074 60.0364 29.8718 60.0207C29.98 60.0128 30.0922 60.005 30.2005 60.0207C30.7456 60.1383 31.2267 60.3577 31.6435 60.6478C32.0123 61.2004 32.3731 61.7491 32.6056 62.3801C32.6056 62.3801 32.6096 62.388 32.6096 62.3919C33.0145 63.5834 33.1948 65.0531 34.209 65.8958L34.3974 62.0666V62.0627Z" fill="#748F71"/>
<path d="M16.3391 27.4858C16.3391 27.4858 16.3351 27.4936 16.3311 27.5015C17.2371 26.1297 18.2552 24.6952 19.9508 24.2053C20.492 23.9779 21.1373 24.2249 21.6184 23.8486C22.877 22.904 21.6585 21.399 20.4799 21.0855C18.4997 20.3564 16.4875 20.6112 14.4832 21.0227C13.9901 21.0345 13.5011 21.0933 13.0081 21.1599C11.9699 21.3049 10.9357 21.446 9.92551 21.0502C8.59468 20.7249 5.63238 18.6907 5.27161 21.0737C4.8908 21.5793 4.77856 22.2377 4.97097 22.8609C5.29566 23.5311 4.77856 24.1034 4.99102 24.8206C5.01106 25.0597 5.18342 25.2831 5.31971 25.5183C5.28765 25.7965 5.34777 26.0591 5.48807 26.306C5.58027 26.9645 6.14948 27.4544 6.71869 27.7837C6.73472 27.7993 6.74675 27.815 6.75477 27.8307C6.76679 27.9091 6.78683 27.9875 6.81088 28.058C6.81088 28.0658 6.8189 28.0737 6.82291 28.0815C6.89106 28.7243 7.42419 29.1358 7.99741 29.4651C8.09762 29.7747 8.274 30.0451 8.57463 30.2176C8.59468 30.9858 8.79109 31.7461 9.57677 32.1224C9.86538 32.3027 10.166 32.4007 10.4667 32.4399C10.5669 32.4516 10.6631 32.4595 10.7593 32.4595C11.3726 32.4595 11.9779 32.2086 12.511 31.852C13.6454 31.4679 14.6876 30.6644 15.2328 29.6728C15.5174 29.1476 15.7218 28.5871 15.9343 28.0345C16.0706 27.8464 16.2029 27.6622 16.3351 27.4858H16.3391Z" fill="#D3575E"/>
<path d="M34.5618 29.9478C36.7705 28.576 34.9105 26.1891 33.3071 24.8683C33.0786 24.637 32.8542 24.4058 32.6377 24.1667C32.3611 23.8649 32.1166 23.5396 31.844 23.2339C31.5835 22.9478 31.3069 22.6774 31.0263 22.4069C31.0263 22.4069 31.0263 22.4069 31.0223 22.4069C30.1083 21.8347 29.0661 21.478 27.8555 21.478C27.5629 21.5799 27.2663 21.6779 26.9697 21.7602C26.5287 21.8817 26.0918 22.0111 25.6589 22.16C25.5226 22.211 25.3863 22.2658 25.258 22.3246C25.262 22.3246 25.266 22.3246 25.274 22.3207C25.1378 22.3873 25.0095 22.4579 24.8772 22.5323C24.308 23.0575 23.7949 23.6807 23.2618 24.2137C22.7206 24.637 22.0432 24.5978 21.3617 24.5626C20.7725 24.5312 20.1752 24.4999 19.6541 24.7664C19.2412 24.931 18.8684 25.2053 18.68 25.609C18.4676 26.0284 18.4155 26.581 17.9625 26.8358C16.2388 27.4355 16.0063 27.6667 16.1306 29.4618C15.9743 30.0066 15.4291 30.3436 15.3489 30.9433C15.3169 31.1902 15.3449 31.5038 15.4652 31.7546C15.4652 32.0525 15.7498 32.3817 16.0424 32.4758C16.1867 32.5463 16.335 32.5855 16.4753 32.6051C16.6637 32.6286 16.8561 32.6169 17.0566 32.6051C17.1808 32.6012 17.3091 32.5934 17.4414 32.5973C18.0547 32.7109 18.672 32.7658 19.2933 32.7619C19.9828 32.758 20.6723 32.6874 21.3537 32.5698C22.5402 32.4483 23.6586 31.9859 24.8211 31.7546C26.5087 31.4842 28.1241 31.0805 29.8077 30.7473C31.347 30.324 33.0265 30.4064 34.5578 29.9517L34.5618 29.9478Z" fill="#A55251"/>
<mask id="mask0_67_1486" style="mask-type:luminance" maskUnits="userSpaceOnUse" x="0" y="0" width="66" height="166">
<path d="M62.4969 60.4514H46.5911C45.3324 60.4475 44.3222 59.4598 44.3182 58.2291V43.508C45.2602 42.3831 46.2423 41.415 47.3767 40.784C47.966 40.6076 49.365 40.1451 50.0945 38.6479C50.1306 38.5774 50.1627 38.5029 50.1907 38.4324C50.6798 37.2135 50.4954 35.8574 49.7017 34.8109C48.8679 33.7135 47.4649 33.102 46.0499 33.2079C46.0339 33.2079 46.0178 33.2079 46.0018 33.2118C45.8575 33.2235 45.7212 33.251 45.5809 33.2706C46.1982 32.8982 46.8236 32.4553 47.4529 31.9145C47.8497 31.5931 48.1544 31.2639 48.4029 31.0013C48.431 30.9699 48.467 30.9346 48.4991 30.8994C48.5472 30.8994 48.5953 30.8994 48.6434 30.8954C49.405 30.8641 50.8521 30.8053 52.0066 29.8568C52.0306 29.8607 52.0507 29.8686 52.0747 29.8764C52.1589 29.896 52.2671 29.9156 52.3513 29.9274C52.4355 29.9391 52.5157 29.9509 52.5958 29.9587C52.9406 30.0018 53.2973 30.0214 53.6541 30.0214H53.7062C56.6565 30.0018 59.1337 28.5556 61.122 27.3915L61.3585 27.2543C62.8857 26.4626 64.417 24.8243 63.6874 21.4458C64.0682 20.1681 63.8838 19.1334 63.483 18.3299C63.4269 17.5225 63.2545 16.0645 61.9798 14.8495C61.8756 14.7516 61.7633 14.6575 61.6471 14.5713C61.3384 14.3439 61.0458 13.7952 60.8013 13.2896C60.6449 12.9682 60.4405 12.6743 60.192 12.4195C60.0597 12.2824 59.8633 11.9727 59.6709 11.6748C59.3101 11.1105 58.8611 10.4089 58.1877 9.74652C58.1156 9.67597 58.0434 9.60934 57.9672 9.54663C57.4582 9.12726 56.929 8.88034 56.4761 8.72748C55.8908 8.35514 55.2414 8.08079 54.564 7.92401C53.9788 7.74764 52.9005 7.43017 51.6859 7.56735C51.6378 7.52816 51.5937 7.48504 51.5416 7.44585C51.3893 7.33219 51.2409 7.2342 51.1006 7.1519C50.4432 6.39154 49.5734 5.87026 48.5753 5.6547C48.4791 5.6351 48.3869 5.61942 48.2907 5.60767C48.0261 4.99624 47.6693 4.4201 47.2284 3.91058C47.1883 3.85571 47.1523 3.79692 47.1122 3.73813C46.6031 2.99345 45.4126 1.24541 43.0275 1.10823C42.8832 1.10039 42.7389 1.10039 42.5946 1.10823C42.2178 1.13567 41.8891 1.19446 41.6245 1.24933C41.1154 1.05336 40.4139 0.853472 39.5441 0.888747C38.7704 0.92794 38.1371 1.14351 37.628 1.41002C36.69 0.445858 35.6718 0.132308 34.9944 0.0382435C34.4613 -0.0362245 33.411 -0.0636601 32.2846 0.55952C30.9258 0.49289 29.9597 0.947537 29.3664 1.35515C26.9573 -0.0244663 24.2796 0.202857 22.6401 2.01361C22.5119 2.14686 22.3996 2.27228 22.3034 2.38595C21.4015 2.68774 20.7641 3.20117 20.3713 3.53824C19.6297 3.70285 18.3671 4.02816 17.3409 5.16478C17.3168 5.18829 17.2968 5.21573 17.2727 5.23925C15.7094 5.32547 13.7613 5.85851 12.6549 7.95929C12.6469 7.97888 12.6349 7.99456 12.6268 8.01416C12.5066 8.25716 12.4104 8.4884 12.3342 8.70005C10.7909 9.63286 10.338 11.0125 10.1816 11.9139C9.76075 12.251 9.33986 12.7252 9.03922 13.3837C8.71453 14.1127 8.62634 14.8143 8.66643 15.4492C8.34574 15.9195 8.15333 16.382 8.0411 16.8131C6.85858 16.5153 5.52374 16.4526 4.21697 17.1659C3.58763 17.5069 2.97032 18.3966 2.50533 19.9408C1.91607 21.0657 1.75172 22.3747 2.05236 23.6211C1.97219 24.0718 1.89202 24.7773 2.08042 25.5886C2.15659 25.9923 2.28486 26.3372 2.41714 26.6155C2.47326 26.9134 2.56145 27.2034 2.67368 27.4895C2.93023 28.3949 3.04648 29.1043 3.81611 29.798C4.1368 30.5192 4.6579 31.1659 5.37142 31.7263C5.8324 33.6155 7.055 34.5757 7.92485 35.0304C8.57824 35.4066 9.28775 35.6496 10.0253 35.7437C10.2738 35.7751 10.5224 35.7946 10.7709 35.7946H10.803C11.8011 35.7868 12.8152 35.5203 13.7733 35.0147C14.0619 35.2303 14.3826 35.4145 14.7233 35.5516C15.1282 35.728 15.5611 35.8495 16.0181 35.9122C16.0421 35.9122 16.0662 35.9201 16.0942 35.9201C16.5592 35.9749 16.9601 35.9553 17.2086 35.9436C17.878 36.0494 18.5635 36.1004 19.2569 36.1004C19.285 36.1004 19.3091 36.1004 19.3371 36.1004C20.1468 36.0964 20.9926 36.0181 21.8625 35.873C22.8245 35.7633 23.6663 35.5242 24.4159 35.3086C24.5362 35.2734 24.6524 35.242 24.7727 35.2107C24.9731 36.5237 25.4501 37.6681 26.0354 38.6832C25.0332 38.8361 23.7826 38.5539 22.4397 39.9609C22.0028 40.4234 21.7863 40.9917 21.7502 41.5992L21.6099 41.5875V58.233C21.6059 59.4637 20.5958 60.4514 19.3371 60.4553H3.40724C1.51923 60.4632 0.00400852 61.9408 0 63.7868L0 143.781C0.0400852 156.092 10.1335 165.961 22.7243 166H43.1758C55.7666 165.961 65.86 156.092 65.9001 143.781V63.7868C65.8921 61.9408 64.3809 60.4592 62.4929 60.4553L62.4969 60.4514Z" fill="white"/>
</mask>
<g mask="url(#mask0_67_1486)">
<path d="M32.7811 82.1416L32.8292 81.5693C32.7971 81.5693 32.749 81.5693 32.6929 81.5693C24.6438 81.3734 18.7152 76.7328 17.7972 75.9999C11.8486 71.2183 11.4317 66.0408 9.05864 66.3935C7.38308 66.6444 6.38495 69.58 6.23263 71.6259C5.81975 77.1679 11.1711 82.7687 17.0677 84.5598C22.9923 86.3549 28.2274 83.9288 29.7106 83.1763C30.7127 82.7804 31.7349 82.4355 32.7771 82.1455L32.7811 82.1416Z" fill="#A55251"/>
<path d="M47.9415 84.5559C44.2015 83.3918 40.7061 82.1494 38.0204 80.4092L36.1685 83.5839C36.3128 84.2149 36.4571 84.8341 36.6094 85.4377C38.9824 87.1191 41.9528 88.6869 45.5845 90.0077C55.0245 93.4411 65.0619 94.6992 66.0159 87.6757C66.064 87.3151 66.1282 86.9584 66.1241 86.59L66.0039 86.5744C63.5427 89.898 57.0168 87.3778 47.9415 84.5598V84.5559Z" fill="#A55251"/>
<path d="M37.1345 80.123L36.9901 80.076L36.9581 80.0642L36.0281 79.7664L35.8798 79.7193L35.2545 79.5195L34.9378 79.4175L34.1601 79.1667L33.2742 78.8806L33.0738 78.814L32.8654 81.2518L32.8373 81.5654L32.7892 82.1376L32.697 83.1997L32.7892 83.2272L33.0979 83.3252L33.3063 83.3918L33.6831 83.5133L33.8996 83.5838L34.096 83.6465L34.8296 83.8817L35.0941 83.9679L35.1943 83.9993C35.2505 84.0424 35.3026 84.0894 35.3587 84.1325C35.531 84.2736 35.7074 84.4108 35.8878 84.548C35.8597 84.4304 35.8357 84.3128 35.8076 84.1953L37.0142 85.3123C37.0342 85.4063 36.2566 83.3016 36.2766 83.3957L36.5212 82.9763L37.1425 81.9103L38.0203 80.4052L37.1345 80.1191V80.123Z" fill="url(#paint0_linear_67_1486)"/>
<path d="M32.7648 83.1214L32.7848 82.1416C31.7426 82.4316 30.7204 82.7726 29.7183 83.1724C29.1932 83.3801 28.8164 83.5447 28.7843 83.5604C27.7421 84.0111 13.103 87.9148 8.14845 90.4703C-1.26357 95.3264 -3.75687 109.777 -2.10937 110.777C-0.542034 111.729 7.78768 102.385 10.309 99.0145C10.4814 98.7832 10.9584 98.1248 11.684 97.2625C13.2513 95.3851 15.0351 93.6254 16.9111 91.9087C17.9172 90.9876 18.9594 90.1293 20.0297 89.3336C19.6489 89.6864 19.2721 90.0509 18.8993 90.4271C15.464 93.9036 12.5779 98.2267 10.3251 103.271C7.61932 109.334 3.64687 114.872 -1.15935 119.282C-3.76488 121.672 -6.56284 123.82 -9.49306 125.443C-10.2186 125.988 -10.9602 126.513 -11.7098 127.014C-13.5938 127.967 -15.5139 128.751 -17.45 129.35C-25.0822 131.722 -32.5461 131.102 -38.4667 127.602L-38.5148 127.575L-44.1748 131.318L-44.0586 131.388C-39.1682 134.277 -33.0632 135.033 -26.4611 133.638V133.654C-23.6271 133.046 -20.9775 132.302 -18.4842 131.412C-13.1328 129.507 -8.53503 126.94 -4.56258 123.659C1.33396 118.788 5.23024 112.799 7.96405 108.119L7.94 108.107C8.7417 106.693 9.47927 105.242 10.1407 103.761C12.4416 98.6069 15.3838 94.1937 18.8913 90.6466C19.6609 89.8667 20.4546 89.1338 21.2723 88.4479C24.6435 86.155 28.2512 84.4736 31.935 83.4899C32.0593 83.4546 32.1876 83.4272 32.3118 83.3958C32.4441 83.3605 32.6445 83.2743 32.7768 83.2429C32.7688 83.2155 32.7648 83.1606 32.7568 83.1332L32.7648 83.1214Z" fill="#DD5B5A"/>
<path d="M10.3258 103.271C12.5786 98.2226 15.4607 93.9035 18.9 90.427C19.2728 90.0507 19.6456 89.6862 20.0304 89.3335C19.357 89.9175 18.2226 90.3016 16.8597 91.3794C6.86645 99.2377 0.957885 100.77 -3.30718 104.584C-6.58615 107.519 -10.0856 113.214 -9.55647 125.482C-9.54044 125.474 -9.51638 125.458 -9.48432 125.443C-6.55409 123.82 -3.76015 121.672 -1.1506 119.281C3.65562 114.872 7.62406 109.338 10.3338 103.271H10.3258Z" fill="#A55251"/>
<path d="M36.3883 83.1445L35.783 84.2655C35.326 85.1238 34.7127 86.4055 34.2116 88.0281C33.6585 89.8231 31.0048 98.4418 35.8872 104.399C40.1082 109.553 47.3476 109.522 48.9269 109.514C59.8381 109.467 68.1799 100.057 67.2739 98.4183C67.0254 97.9715 65.903 97.7677 62.0628 98.8455C55.1682 101.534 47.7324 101.526 43.3511 97.85C39.1902 94.3539 37.202 87.0522 36.7129 85.2649C36.4724 84.3752 36.4845 83.6462 36.3842 83.1406L36.3883 83.1445Z" fill="#DD5B5A"/>
<path d="M88.2436 90.7055C88.2436 90.7055 88.2196 90.6977 88.0632 90.6428C88.0272 90.631 87.9911 90.6193 87.959 90.6036C87.8909 90.5801 87.8267 90.5566 87.7586 90.5291C87.7305 90.5174 87.7025 90.5095 87.6744 90.4978C87.5822 90.4625 87.49 90.4272 87.3978 90.3959C87.3818 90.388 87.3658 90.3841 87.3497 90.3763C87.2736 90.3489 87.1974 90.3175 87.1252 90.2901C87.0932 90.2783 87.0611 90.2665 87.029 90.2509C86.9689 90.2274 86.9088 90.2038 86.8487 90.1803C86.8126 90.1686 86.7805 90.1529 86.7444 90.1411C86.6883 90.1176 86.6322 90.098 86.5761 90.0745C86.54 90.0588 86.5039 90.0471 86.4638 90.0314C86.4077 90.0079 86.3476 89.9844 86.2915 89.9648C86.2554 89.9491 86.2153 89.9334 86.1792 89.9216C86.1031 89.8903 86.0309 89.8629 85.9548 89.8315C85.8666 89.7962 85.7744 89.7609 85.6862 89.7257C85.6701 89.7178 85.6501 89.71 85.6341 89.7061C85.5619 89.6786 85.4938 89.6512 85.4216 89.6238C85.3936 89.612 85.3655 89.6003 85.3374 89.5885C85.2773 89.565 85.2212 89.5415 85.1611 89.5179C85.129 89.5062 85.0929 89.4905 85.0609 89.4788C85.0047 89.4552 84.9486 89.4356 84.8925 89.416C84.8604 89.4043 84.8244 89.3886 84.7923 89.3769C84.7362 89.3533 84.676 89.3337 84.6199 89.3141C84.5879 89.3024 84.5558 89.2906 84.5237 89.2789C84.4556 89.2553 84.3874 89.2279 84.3193 89.2044C84.2992 89.1966 84.2752 89.1887 84.2551 89.1809C84.167 89.1495 84.0748 89.1182 83.9866 89.0868C83.9625 89.079 83.9425 89.0711 83.9184 89.0633C83.8503 89.0398 83.7821 89.0163 83.714 88.9928C83.6819 88.981 83.6499 88.9732 83.6178 88.9614C83.5577 88.9418 83.4975 88.9222 83.4374 88.9026C83.4013 88.8909 83.3652 88.8791 83.3292 88.8673C83.269 88.8477 83.2129 88.8321 83.1528 88.8125C83.1167 88.8007 83.0806 88.7889 83.0446 88.7811C82.9844 88.7615 82.9203 88.7458 82.8602 88.7262C82.8281 88.7184 82.792 88.7066 82.76 88.6988C82.6838 88.6792 82.6036 88.6557 82.5275 88.6361C82.5074 88.6322 82.4914 88.6243 82.4714 88.6204C82.3751 88.5969 82.2749 88.5695 82.1787 88.5459C82.1507 88.5381 82.1226 88.5342 82.0945 88.5263C82.0224 88.5107 81.9502 88.4911 81.8781 88.4754C81.842 88.4676 81.8019 88.4597 81.7658 88.4519C81.7017 88.4362 81.6336 88.4244 81.5694 88.4127C81.5293 88.4049 81.4893 88.397 81.4492 88.3892C81.385 88.3774 81.3169 88.3657 81.2528 88.3539C81.2127 88.3461 81.1726 88.3382 81.1325 88.3304C81.0644 88.3186 80.9922 88.3069 80.92 88.2951C80.884 88.2912 80.8479 88.2833 80.8078 88.2794C80.7116 88.2637 80.6194 88.252 80.5192 88.2402C80.5032 88.2402 80.4911 88.2363 80.4791 88.2363C80.3669 88.2206 80.2546 88.2089 80.1424 88.1971C80.1063 88.1971 80.0702 88.1893 80.0342 88.1854C79.954 88.1775 79.8738 88.1697 79.7937 88.1618C79.7496 88.1618 79.7055 88.154 79.6614 88.1501C79.5852 88.1422 79.5131 88.1383 79.4369 88.1344C79.3888 88.1344 79.3407 88.1266 79.2966 88.1266C79.2204 88.1227 79.1443 88.1187 79.0681 88.1148C79.02 88.1148 78.9759 88.1109 78.9278 88.107C78.8436 88.107 78.7554 88.0991 78.6713 88.0991C78.6312 88.0991 78.5911 88.0991 78.551 88.0991C78.4227 88.0991 78.2945 88.0952 78.1622 88.0952C77.7613 88.0952 49.87 105.321 44.5748 106.904C42.4262 107.547 40.6344 107.23 40.6344 107.23C38.9228 106.924 37.644 106.054 37.604 106.124C37.5639 106.195 38.8306 107.038 40.0732 107.7C44.3022 109.95 48.5272 110.22 49.6496 110.283C57.2778 110.698 63.5391 106.92 63.96 106.657C71.1433 102.201 82.1146 89.8668 82.4553 89.8668C82.6638 89.8668 82.8602 89.8707 82.8602 89.8707C82.9003 89.8707 82.9444 89.8707 82.9844 89.8707C83.0766 89.8707 83.1648 89.8746 83.257 89.8785C83.3011 89.8785 83.3492 89.8824 83.3933 89.8864C83.4815 89.8903 83.5697 89.8942 83.6539 89.902C83.694 89.902 83.734 89.906 83.7741 89.9099C83.8904 89.9177 84.0026 89.9256 84.1148 89.9373C84.1229 89.9373 84.1349 89.9373 84.1429 89.9373C84.2632 89.9491 84.3834 89.9608 84.4997 89.9765C84.5357 89.9804 84.5718 89.9844 84.6079 89.9883C84.6921 90 84.7722 90.0079 84.8524 90.0196C84.8925 90.0235 84.9326 90.0314 84.9727 90.0353C85.0528 90.0471 85.129 90.0588 85.2052 90.0706C85.2412 90.0745 85.2773 90.0823 85.3134 90.0863C85.4096 90.1019 85.5058 90.1176 85.598 90.1372C85.614 90.1372 85.6261 90.1411 85.6421 90.145C85.7503 90.1646 85.8586 90.1882 85.9628 90.2078C85.9948 90.2156 86.0269 90.2195 86.059 90.2274C86.1351 90.243 86.2073 90.2587 86.2835 90.2783C86.3195 90.2861 86.3556 90.294 86.3957 90.3057C86.4678 90.3214 86.536 90.341 86.6041 90.3567C86.6362 90.3645 86.6723 90.3724 86.7043 90.3802C86.7885 90.3998 86.8727 90.4233 86.9529 90.4468C86.9689 90.4508 86.989 90.4547 87.005 90.4586C87.1052 90.486 87.2014 90.5135 87.3016 90.5409C87.3297 90.5487 87.3577 90.5566 87.3858 90.5644C87.458 90.584 87.5261 90.6075 87.5982 90.6271C87.6544 90.6428 87.6864 90.6546 87.6985 90.6585C87.9029 90.7212 88.2316 90.7251 88.2356 90.7016L88.2436 90.7055Z" fill="#A55251"/>
<path d="M9.9561 116.326C12.8583 120.167 15.7645 124.012 18.6666 127.853C14.9988 127.348 11.331 126.842 7.66724 126.336C10.7538 130.808 17.893 139.588 29.4095 142.233C47.4598 146.38 69.5708 133.92 80.3177 110.181C80.3177 110.181 82.791 96.8902 89.1926 92.8063C89.9141 92.3438 90.6918 92.2654 90.6918 92.2654C92.3553 92.1125 93.8184 93.3471 94.6281 94.1702C89.1164 95.5067 83.6047 96.8393 78.089 98.1758C75.8803 100.492 72.6975 103.647 68.6048 107.096C56.6554 117.165 44.4454 127.457 30.3034 126.336C26.5995 126.043 18.7268 124.647 9.96011 116.326H9.9561Z" fill="#DD5B5A"/>
<path d="M24.1744 129.989C24.3188 129.962 24.5673 129.946 24.5472 130.075C24.5312 130.177 24.419 130.314 24.3027 130.334C24.2426 130.346 24.1985 130.338 24.1504 130.326C24.1143 130.318 24.1063 130.326 24.1023 130.342C24.0582 130.593 23.966 130.957 23.8177 131.357C23.8057 131.388 23.8137 131.384 23.8377 131.373C24.1143 131.251 24.3989 131.157 24.7156 131.098C25.369 130.977 25.9783 131.165 25.8821 131.702C25.7819 132.274 24.7276 133.238 24.2306 133.662C24.0422 133.826 23.966 133.885 23.8738 133.901C23.7175 133.928 23.6974 133.83 23.7054 133.771C23.7175 133.709 23.7616 133.666 23.8738 133.603C24.3669 133.325 25.5414 132.255 25.6255 131.769C25.6937 131.388 25.2688 131.239 24.6795 131.345C24.3027 131.416 24.0141 131.514 23.7616 131.631C23.7375 131.643 23.7135 131.655 23.7014 131.682C23.5251 132.098 23.3126 132.525 23.0761 132.823C22.9639 132.952 22.8075 133.031 22.6472 133.062C22.3987 133.109 22.1622 133.031 22.2063 132.803C22.2504 132.56 22.7073 131.964 23.473 131.545C23.513 131.526 23.5291 131.506 23.5451 131.478C23.6774 131.134 23.7776 130.785 23.8257 130.526C23.8457 130.412 23.8457 130.334 23.7536 130.354C23.5652 130.389 23.1883 130.534 22.9518 130.655C22.8637 130.699 22.8236 130.714 22.7955 130.718C22.7073 130.734 22.6512 130.659 22.6672 130.589C22.6753 130.538 22.7153 130.483 22.7835 130.456C23.0962 130.33 23.8097 130.052 24.1704 129.985L24.1744 129.989ZM22.6873 132.823C22.7634 132.807 22.8597 132.764 22.9238 132.674C23.0921 132.454 23.2605 132.168 23.4008 131.87C23.4249 131.812 23.2765 131.906 23.2044 131.957C22.7073 132.305 22.4788 132.646 22.4628 132.717C22.4508 132.788 22.543 132.846 22.6833 132.823H22.6873ZM27.1768 130.416C27.2249 130.436 27.241 130.467 27.237 130.495C27.2249 130.565 27.1207 130.655 26.9924 130.679C26.9323 130.691 26.8602 130.679 26.796 130.632C26.5876 130.463 26.3751 129.719 26.4513 129.299C26.4793 129.15 26.5234 129.048 26.6357 129.029C26.7399 129.009 26.808 129.052 26.7519 129.19C26.5956 129.605 26.8201 130.287 27.1728 130.416H27.1768Z" fill="white"/>
<path d="M30.2438 131.803C30.2718 131.654 30.36 131.243 30.5164 131.212C30.5845 131.2 30.6126 131.235 30.6005 131.314C30.5805 131.427 30.5645 131.592 30.6567 131.482C31.2098 130.859 31.5025 130.326 31.5666 129.969C31.6147 129.691 31.3942 129.62 31.0575 129.679C30.9052 129.707 30.7288 129.761 30.5725 129.816C30.5324 129.832 30.5164 129.84 30.5043 129.863C30.2157 130.455 30.0113 130.882 29.9632 131.157C29.9472 131.235 29.9031 131.321 29.8229 131.337C29.6585 131.368 29.5904 131.247 29.7147 131.043C29.8109 130.875 30.0514 130.373 30.2318 129.969C30.2438 129.946 30.2358 129.942 30.2117 129.953C29.9431 130.063 29.7147 130.169 29.6144 130.228C29.41 130.357 29.382 130.361 29.3579 130.365C29.2457 130.385 29.1615 130.326 29.1735 130.247C29.1815 130.212 29.2096 130.173 29.2657 130.142C29.5744 129.969 30.0073 129.785 30.3119 129.671C30.3333 129.663 30.348 129.649 30.356 129.628C30.4602 129.373 30.4963 129.174 30.5244 129.017C30.5404 128.938 30.6046 128.891 30.6647 128.88C30.7689 128.86 30.8571 128.934 30.833 129.072C30.817 129.158 30.7649 129.283 30.6607 129.518C30.6486 129.542 30.6567 129.546 30.7008 129.53C30.8411 129.483 30.9934 129.444 31.1297 129.417C31.7029 129.311 31.8873 129.491 31.8111 129.973C31.747 130.338 31.5065 130.828 30.7248 131.713C30.5685 131.886 30.4803 131.972 30.368 131.995C30.2759 132.011 30.2197 131.941 30.2438 131.803ZM34.3205 130.361C33.9837 129.875 33.3223 129.005 32.8894 128.586C32.8333 128.535 32.8253 128.499 32.8293 128.48C32.8373 128.429 32.9014 128.39 32.9776 128.378C33.0618 128.362 33.174 128.425 33.2261 128.507C33.4225 128.789 34.2523 129.816 34.4768 130.04C34.5249 130.087 34.565 130.149 34.557 130.212C34.5409 130.291 34.4888 130.385 34.4167 130.396C34.3926 130.4 34.3485 130.4 34.3285 130.365L34.3205 130.361Z" fill="white"/>
<path d="M38.4568 126.96C38.5169 126.94 38.5329 126.932 38.541 126.889C38.569 126.771 38.6131 126.611 38.6692 126.462C38.7093 126.364 38.7654 126.34 38.7935 126.336C38.8857 126.321 39.01 126.442 38.9899 126.552C38.9899 126.572 38.9739 126.595 38.9578 126.615C38.8857 126.689 38.8256 126.779 38.8175 126.834C38.8175 126.85 38.8296 126.846 38.8616 126.834C39.042 126.76 39.3467 126.642 39.3948 126.634C39.523 126.611 39.6553 126.685 39.6393 126.764C39.6353 126.791 39.6152 126.818 39.5591 126.842C39.4188 126.905 39.1062 127.007 38.7975 127.105C38.7454 127.12 38.7334 127.128 38.7173 127.183L38.5049 127.932C38.4888 127.975 38.4969 127.982 38.5209 127.971C38.6732 127.892 38.8536 127.826 38.9699 127.79C39.022 127.775 39.03 127.771 39.042 127.755L39.4108 127.167C39.491 127.042 39.6393 126.818 39.7756 126.795C39.8798 126.775 39.96 126.865 39.9439 126.963C39.9359 127.014 39.9039 127.061 39.8437 127.108C39.6754 127.238 39.5391 127.402 39.3908 127.649C39.3787 127.665 39.3868 127.677 39.3988 127.677C40.5492 127.481 40.7777 128.194 40.6494 128.904C40.4971 129.766 39.4469 130.906 39.2224 131.079C39.1743 131.114 39.1182 131.141 39.0701 131.149C38.9739 131.169 38.9017 131.118 38.9138 131.047C38.9218 131.004 38.9538 130.957 39.018 130.91C39.6072 130.471 40.2807 129.672 40.4089 128.951C40.5252 128.3 40.1764 127.759 39.2825 127.924C39.2304 127.932 39.2144 127.943 39.2024 127.959C38.8897 128.445 38.3886 129.182 38.1762 129.437C38.1481 129.468 38.1441 129.484 38.1481 129.519C38.1601 129.648 38.2523 129.699 38.4207 129.672C38.6011 129.64 38.6251 129.672 38.6131 129.742C38.5971 129.828 38.4768 129.926 38.3566 129.95C38.1161 129.993 37.9758 129.923 37.9236 129.774C37.9196 129.762 37.9116 129.754 37.8836 129.785C37.3544 130.381 36.8293 130.848 36.6169 130.887C36.3844 130.93 36.3683 130.655 36.4084 130.412C36.5688 129.503 37.3424 128.672 38.1802 128.151C38.1962 128.139 38.1962 128.135 38.2123 128.088L38.4407 127.25C38.4407 127.25 38.4367 127.238 38.3967 127.25C38.3205 127.277 37.9597 127.414 37.8836 127.426C37.7553 127.449 37.6591 127.344 37.6751 127.257C37.6831 127.214 37.7032 127.191 37.7633 127.171C38.0399 127.101 38.3085 127.022 38.4608 126.975L38.4568 126.96ZM37.8435 129.491C37.8715 129.46 37.8715 129.452 37.8755 129.444C37.8796 129.248 38.0359 128.672 38.092 128.468C38.108 128.418 38.092 128.414 38.072 128.429C37.3504 128.915 36.8133 129.617 36.701 130.248C36.5888 130.887 37.3905 130.009 37.8475 129.491H37.8435ZM38.2163 129.049C38.4087 128.778 38.6772 128.39 38.8737 128.053C38.8857 128.037 38.8777 128.026 38.8456 128.037C38.7213 128.088 38.569 128.151 38.4648 128.206C38.4247 128.225 38.4127 128.241 38.3967 128.3L38.1922 129.045C38.1922 129.068 38.2042 129.064 38.2123 129.045L38.2163 129.049Z" fill="white"/>
<path d="M44.0887 127.147C44.4094 127.01 45.3594 126.63 45.7923 126.461C45.8244 126.45 45.8324 126.442 45.8284 126.418C45.8003 126.132 45.7803 125.999 45.7562 125.877C45.7322 125.772 45.7562 125.607 45.8805 125.584C45.9847 125.564 46.1491 125.615 46.121 125.787C46.0929 125.96 46.0729 126.136 46.0729 126.309C46.0729 126.344 46.0809 126.348 46.113 126.336C46.5539 126.16 47.1031 125.932 47.3516 125.885C47.4959 125.858 47.6122 125.846 47.5881 125.979C47.5721 126.073 47.4799 126.187 47.3596 126.211C46.8626 126.301 46.606 126.391 46.121 126.583C46.0889 126.595 46.0809 126.603 46.0849 126.63C46.117 127.261 46.2012 127.622 46.2573 127.782C46.2974 127.888 46.3335 127.97 46.3054 128.112C46.2733 128.284 46.117 128.402 46.0328 128.417C45.9727 128.429 45.9366 128.417 45.8845 128.39C45.8564 128.374 45.7803 128.366 45.668 128.39C45.5839 128.405 45.4957 128.382 45.5117 128.296C45.5358 128.166 45.8324 128.084 45.9687 128.061C46.0529 128.045 46.0088 127.872 45.9927 127.806C45.9526 127.653 45.9045 127.398 45.8444 126.708C45.8444 126.689 45.8324 126.681 45.8043 126.697C45.2031 126.932 44.1849 127.335 43.8241 127.512C43.5315 127.649 43.279 127.759 43.0385 127.802C42.8581 127.833 42.7579 127.708 42.7739 127.602C42.7859 127.531 42.838 127.481 42.9382 127.461C43.2469 127.406 43.7079 127.304 44.0927 127.143L44.0887 127.147ZM44.7581 129.487C44.9104 129.46 44.9866 129.558 44.9706 129.644C44.9585 129.707 44.9064 129.766 44.8142 129.785C44.1288 129.911 43.319 129.221 43.4072 128.727C43.4193 128.656 43.4794 128.617 43.5395 128.605C43.6758 128.582 43.7921 128.692 43.772 128.817C43.6999 129.232 44.3452 129.566 44.7581 129.491V129.487Z" fill="white"/>
<path d="M49.6693 127.226C49.6572 127.249 49.6612 127.261 49.6893 127.226C50.1062 126.759 50.5231 126.544 50.7796 126.497C51.1243 126.434 51.3969 126.579 51.3408 127.218C51.2887 127.802 51.3568 128.061 51.5773 128.022C52.0383 127.939 53.0805 127.026 53.4292 126.262C53.4894 126.117 53.6377 126.023 53.7459 126.003C53.8141 125.991 53.8662 126.015 53.8542 126.085C53.782 126.493 52.351 128.123 51.5372 128.272C51.1444 128.343 51.0322 128.088 51.0883 127.398C51.1404 126.814 51.0081 126.665 50.7435 126.712C50.5311 126.752 49.9619 127.104 49.4368 127.88C49.3365 128.029 49.2323 128.253 49.2123 128.374C49.1441 128.672 49.072 128.747 48.9517 128.77C48.8315 128.794 48.7553 128.731 48.7874 128.543C48.8114 128.406 48.8996 128.163 49.06 127.869C49.3365 127.375 50.9279 124.58 51.4931 124.474C51.6054 124.455 51.6655 124.525 51.6495 124.612C51.6415 124.663 51.6014 124.725 51.421 124.835C50.8237 125.2 50.1302 126.403 49.6733 127.222L49.6693 127.226Z" fill="white"/>
<path d="M29.6981 136.264C29.7582 136.244 29.7743 136.236 29.7823 136.193C29.8103 136.076 29.8544 135.915 29.9105 135.766C29.9506 135.668 30.0067 135.644 30.0348 135.641C30.127 135.625 30.2473 135.746 30.2312 135.852C30.2312 135.872 30.2152 135.895 30.1992 135.915C30.127 135.989 30.0669 136.079 30.0589 136.134C30.0589 136.15 30.0709 136.146 30.103 136.134C30.2833 136.06 30.588 135.942 30.6321 135.934C30.7604 135.911 30.8926 135.985 30.8766 136.064C30.8726 136.091 30.8525 136.115 30.7964 136.142C30.6561 136.205 30.3435 136.307 30.0348 136.405C29.9827 136.42 29.9707 136.432 29.9546 136.483L29.7422 137.232C29.7262 137.275 29.7342 137.283 29.7582 137.271C29.9105 137.193 30.0909 137.126 30.2072 137.091C30.2593 137.075 30.2673 137.071 30.2793 137.055L30.6481 136.468C30.7283 136.342 30.8766 136.119 31.0129 136.095C31.1171 136.076 31.1973 136.166 31.1812 136.264C31.1732 136.315 31.1412 136.362 31.081 136.409C30.9127 136.538 30.7764 136.703 30.6281 136.95C30.616 136.965 30.6241 136.977 30.6361 136.977C31.7865 136.781 32.015 137.494 31.8867 138.204C31.7344 139.066 30.6842 140.207 30.4597 140.379C30.4116 140.414 30.3555 140.442 30.3074 140.45C30.2112 140.469 30.139 140.418 30.1511 140.348C30.1591 140.305 30.1871 140.258 30.2553 140.211C30.8445 139.772 31.518 138.972 31.6462 138.251C31.7625 137.6 31.4137 137.059 30.5198 137.224C30.4677 137.232 30.4517 137.244 30.4397 137.259C30.127 137.745 29.6259 138.482 29.4135 138.737C29.3854 138.768 29.3814 138.784 29.3854 138.819C29.3975 138.948 29.4896 138.999 29.658 138.972C29.8384 138.941 29.8624 138.972 29.8504 139.043C29.8344 139.129 29.7141 139.227 29.5939 139.25C29.3534 139.293 29.2131 139.223 29.161 139.074C29.1569 139.062 29.1489 139.054 29.1209 139.09C28.5917 139.685 28.0666 140.152 27.8542 140.191C27.6217 140.234 27.6056 139.96 27.6457 139.717C27.8061 138.807 28.5797 137.976 29.4175 137.455C29.4335 137.443 29.4335 137.44 29.4496 137.392L29.6781 136.554C29.6781 136.554 29.674 136.542 29.634 136.554C29.5538 136.581 29.197 136.718 29.1209 136.73C28.9926 136.754 28.8964 136.648 28.9084 136.562C28.9164 136.518 28.9365 136.495 28.9966 136.475C29.2732 136.405 29.5378 136.326 29.6941 136.279L29.6981 136.264ZM29.0848 138.796C29.1128 138.764 29.1128 138.756 29.1169 138.749C29.1209 138.553 29.2772 137.976 29.3333 137.773C29.3494 137.722 29.3333 137.718 29.3093 137.733C28.5877 138.219 28.0506 138.921 27.9384 139.552C27.8261 140.191 28.6278 139.313 29.0848 138.792V138.796ZM29.4576 138.353C29.65 138.082 29.9186 137.694 30.115 137.357C30.127 137.342 30.119 137.33 30.0869 137.342C29.9627 137.392 29.8103 137.455 29.7061 137.51C29.666 137.53 29.654 137.545 29.638 137.604L29.4335 138.349C29.4335 138.368 29.4456 138.368 29.4536 138.349L29.4576 138.353Z" fill="white"/>
<path d="M34.2764 137.044C34.2924 136.903 34.5089 136.342 34.573 136.197C34.6371 136.033 34.8175 135.633 34.9859 135.602C35.0701 135.586 35.1542 135.676 35.1382 135.766C35.1262 135.825 35.0781 135.868 35.0139 135.899C34.8055 136.013 34.5129 136.824 34.4888 136.966C34.4648 137.111 34.6331 137.099 34.7774 136.934C34.8336 136.868 34.9217 136.824 34.9939 136.809C35.0781 136.793 35.1382 136.809 35.1302 136.86C35.1101 136.969 34.7734 137.267 34.5249 137.31C34.3606 137.342 34.2363 137.259 34.2764 137.036V137.044ZM34.9418 139.811C35.8798 138.592 36.0321 137.397 36.2245 136.323C36.3327 135.719 36.449 135.014 36.5011 134.289C36.5091 134.163 36.5091 133.955 36.6534 133.928C36.7456 133.912 36.8579 134.002 36.8338 134.151C36.8138 134.273 36.5171 135.978 36.445 136.385C36.2766 137.326 36.0121 138.749 35.2985 139.795C35.2224 139.905 35.0741 139.987 34.9779 140.007C34.8215 140.034 34.8416 139.956 34.9458 139.811H34.9418Z" fill="white"/>
<path d="M39.8439 135.79C39.8652 135.782 39.8799 135.77 39.888 135.754C40.0683 135.39 40.0844 135.308 40.0804 135.241C40.0764 135.112 40.1485 135.014 40.2768 134.99C40.4732 134.955 40.5093 135.08 40.4932 135.174C40.4772 135.261 40.373 135.433 40.2768 135.582C40.2367 135.645 40.2447 135.653 40.2808 135.637C40.5774 135.535 40.6616 135.504 40.842 135.472C41.2028 135.406 41.4352 135.539 41.3711 135.896C41.2549 136.554 40.4211 137.887 39.9401 137.977C39.7837 138.004 39.8358 137.863 39.9 137.714C39.9361 137.624 39.928 137.565 39.9 137.491C39.8599 137.389 39.9441 137.322 39.9962 137.314C40.1004 137.295 40.1565 137.487 40.1766 137.565C40.1806 137.577 40.2126 137.557 40.2688 137.499C40.5814 137.162 40.9502 136.625 41.0304 136.174C41.0625 135.99 41.1266 135.664 40.826 135.719C40.6135 135.758 40.3529 135.841 40.1084 135.935C40.087 135.943 40.0737 135.952 40.0683 135.962C39.9481 136.135 39.6675 136.613 39.5753 136.774C39.2306 137.365 39.2105 137.479 39.2025 137.593C39.2025 137.73 39.1544 137.816 39.0141 137.844C38.8778 137.867 38.8057 137.793 38.8257 137.683C38.8498 137.553 38.958 137.389 39.1223 137.13C39.2827 136.879 39.6194 136.311 39.7236 136.119C39.7356 136.103 39.7356 136.088 39.7116 136.099C39.5071 136.178 39.2907 136.288 39.1063 136.468C39.0782 136.495 39.0382 136.531 38.978 136.538C38.8738 136.558 38.7936 136.476 38.8097 136.382C38.8137 136.354 38.8257 136.323 38.8538 136.291C38.954 136.17 39.5993 135.899 39.8439 135.798V135.79ZM43.5477 135.351C43.9847 135.637 44.2091 135.77 44.59 135.997C44.7022 136.068 44.7222 136.127 44.7142 136.17C44.6982 136.264 44.5859 136.354 44.4737 136.374C44.4056 136.385 44.3254 136.358 44.2893 136.311C44.137 136.103 42.8583 135.214 42.2851 134.88C42.2129 134.837 42.1848 134.782 42.2049 134.681C42.2249 134.567 42.3372 134.43 42.4213 134.414C42.4574 134.406 42.4935 134.414 42.5296 134.469C42.5977 134.583 43.0266 135.002 43.5517 135.351H43.5477ZM44.2492 134.238C44.2893 134.293 44.3013 134.312 44.2933 134.367C44.2773 134.445 44.1971 134.532 44.125 134.543C44.0207 134.563 43.6119 133.952 43.648 133.779C43.668 133.658 43.7883 133.517 43.8644 133.505C43.8965 133.501 43.9285 133.505 43.9366 133.556C44.0127 133.897 44.125 134.097 44.2532 134.242L44.2492 134.238ZM45.5039 133.728C45.5199 133.76 45.5239 133.787 45.5159 133.814C45.4999 133.893 45.4277 133.975 45.3676 133.987C45.2313 134.01 44.9587 133.332 45.0108 133.054C45.0269 132.976 45.083 132.929 45.1431 132.921C45.2393 132.901 45.3636 132.948 45.3395 133.078C45.3155 133.215 45.3075 133.305 45.4999 133.728H45.5039Z" fill="white"/>
<path d="M48.0936 134.586C48.3261 134.743 48.5385 134.798 48.755 134.72C48.8712 134.684 48.9273 134.735 48.9153 134.81C48.8953 134.931 48.747 134.978 48.6107 135.014C47.9332 135.139 47.2237 134.339 47.2838 134.002C47.3039 133.889 47.4041 133.806 47.5043 133.791C47.5885 133.775 47.6687 133.81 47.6967 133.908C47.7528 134.163 47.821 134.406 48.0976 134.59L48.0936 134.586ZM50.5829 133.277C49.6048 134.441 48.6548 135.551 48.5786 136.033C48.5145 136.397 48.9434 136.428 49.2079 136.381C49.3963 136.346 49.6168 136.244 49.8012 136.072C49.8373 136.037 49.8774 136.009 49.9295 136.001C50.0337 135.982 50.0738 136.052 50.0618 136.123C50.0537 136.174 50.0136 136.264 49.9174 136.323C49.6529 136.495 49.4124 136.589 49.1839 136.632C48.7389 136.715 48.2018 136.617 48.282 136.174C48.3862 135.586 49.4003 134.422 50.4025 133.211C50.643 132.925 50.8755 132.646 51.0238 132.619C51.2122 132.584 51.3284 132.709 51.3084 132.83C51.2924 132.909 51.2122 132.96 51.124 132.975C50.8675 133.023 50.7632 133.07 50.5829 133.285V133.277Z" fill="white"/>
<path d="M54.9644 132.223C55.6418 132.098 56.167 132.466 56.0467 133.101C55.9946 133.403 55.8022 133.771 55.4334 134.21C54.6838 135.096 54.3671 135.504 54.303 135.653C54.2228 135.829 54.0625 135.939 53.9502 135.958C53.8661 135.974 53.8099 135.935 53.826 135.837C53.8701 135.641 54.1026 135.39 54.4513 135.03C54.9604 134.493 55.73 133.693 55.8102 133.148C55.8984 132.611 55.4815 132.368 54.8962 132.478C54.287 132.592 53.4852 133.203 53.4492 133.442C53.4412 133.485 53.5013 133.481 53.5454 133.474C53.6215 133.458 53.6255 133.517 53.6215 133.536C53.6015 133.642 53.3329 133.795 53.1405 133.834C53.0283 133.854 52.9361 133.83 52.9561 133.72C53.0203 133.411 53.9302 132.411 54.9644 132.219V132.223ZM55.3973 131.416C55.3773 131.522 55.2891 131.624 55.1969 131.639C55.1528 131.647 55.0846 131.647 55.0526 131.588C54.9724 131.432 54.9323 131.318 54.4874 131.2C54.4032 131.173 54.3671 131.138 54.3791 131.083C54.3912 131.012 54.4473 130.953 54.5194 130.938C54.6036 130.922 55.1889 131.063 55.3492 131.236C55.3973 131.29 55.4093 131.349 55.3973 131.416Z" fill="white"/>
<path d="M37.0824 80.1076L38.0204 80.4094L36.389 83.1451L35.9761 83.9055C38.9263 83.0197 46.1537 82.3848 49.8335 82.761C61.0454 83.9133 60.6766 88.401 62.1437 92.2459C62.8051 92.0264 63.9876 91.5247 64.9377 90.3842C66.3326 88.7028 66.3206 85.6457 66.3166 85.5085C66.2284 81.6244 63.7992 78.6026 62.9414 77.7089C58.7806 73.3859 48.0938 73.9934 37.0824 80.1037V80.1076Z" fill="#DD5B5A"/>
<path d="M30.0832 81.5771C31.1294 82.2081 31.41 82.3845 31.9792 82.7333H31.9832C32.1877 82.8587 32.6406 83.0273 32.7809 83.2272L33.0615 78.8139L33.262 78.8806C31.7668 77.4069 28.6882 74.3694 27.1129 72.8173C23.4852 69.2389 23.3088 69.0586 22.7476 68.6275C21.0079 67.291 15.7086 63.2188 10.5136 64.7473C8.92622 65.2137 7.77577 66.0799 7.05424 66.7384C7.00614 66.7932 6.93799 66.8716 6.85782 66.9735C6.85782 66.9735 5.75949 68.3767 5.6713 70.3324C5.53902 73.2053 7.82388 77.6029 7.94413 77.7048C7.7878 77.1796 6.91795 74.0989 8.61756 72.2216C10.5737 70.0581 14.5542 71.0066 15.4601 71.2221C22.1944 72.8252 28.56 80.6561 30.0752 81.5693L30.0832 81.5771Z" fill="#DD5B5A"/>
<path d="M60.2556 150.636C60.1474 150.503 59.947 150.483 59.8107 150.593C57.9908 152.043 57.0729 152.204 56.7402 152.2C57.3455 150.624 57.7704 149.017 58.0069 147.387C58.0309 147.218 57.9107 147.061 57.7383 147.038C57.5659 147.014 57.4056 147.132 57.3815 147.301C57.0408 149.648 56.3032 151.949 55.1688 154.187C54.1867 153.344 51.6533 150.75 51.2124 145.999C51.1964 145.831 51.0441 145.705 50.8677 145.721C50.6953 145.737 50.567 145.886 50.5831 146.058C51.0681 151.267 53.8861 153.963 54.8722 154.759C53.9222 156.523 52.7316 158.247 51.2966 159.925C51.3126 159.87 51.3247 159.811 51.3367 159.756C51.3768 159.576 51.4168 159.392 51.4449 159.204C51.4649 159.019 51.477 158.835 51.489 158.647C51.513 157.902 51.4128 157.158 51.1924 156.448C50.9759 155.739 50.6673 155.065 50.2544 154.449C50.1461 154.297 50.0419 154.148 49.9257 154.003C49.8054 153.858 49.6892 153.717 49.5569 153.579C49.4887 153.513 49.4246 153.446 49.3565 153.379C49.2883 153.317 49.2162 153.25 49.144 153.191C48.9997 153.07 48.8474 152.952 48.675 152.854C48.8033 153.607 48.9877 154.273 49.1681 154.935C49.3525 155.594 49.5409 156.233 49.7333 156.868L49.8054 157.107C49.8295 157.185 49.8575 157.264 49.8776 157.346C49.9217 157.507 49.9698 157.663 50.0179 157.824C50.07 157.981 50.1061 158.142 50.1582 158.302L50.2343 158.541C50.2624 158.62 50.2784 158.702 50.3025 158.784C50.3506 158.945 50.3987 159.11 50.4508 159.274C50.4949 159.439 50.539 159.603 50.5911 159.772L50.6753 160.027C50.6993 160.113 50.7194 160.199 50.7474 160.285C50.7675 160.352 50.7875 160.419 50.8116 160.485C50.4869 160.846 50.1542 161.206 49.8094 161.563C45.6165 165.898 41.2192 168.297 41.1751 168.32C41.0268 168.406 40.9666 168.591 41.0508 168.739C41.135 168.888 41.3274 168.943 41.4797 168.861C41.4877 168.857 41.624 168.783 41.8685 168.638C43.003 167.971 46.4583 165.812 49.8696 162.394C49.9177 162.398 49.9698 162.406 50.0179 162.41C50.1101 162.421 50.1983 162.425 50.2905 162.433L50.559 162.469C50.7394 162.488 50.9118 162.5 51.0841 162.512C51.2605 162.535 51.4329 162.551 51.6012 162.566C51.6854 162.574 51.7696 162.574 51.8578 162.586L52.1143 162.614C52.2827 162.633 52.451 162.637 52.6194 162.657C52.7878 162.676 52.9561 162.692 53.1245 162.704C53.2087 162.704 53.2928 162.719 53.377 162.731L53.6295 162.755C54.303 162.821 54.9804 162.888 55.6739 162.943C56.3714 162.994 57.0769 163.049 57.8585 163.033C57.7263 162.888 57.582 162.762 57.4336 162.645C57.3575 162.586 57.2813 162.531 57.2052 162.476C57.129 162.421 57.0488 162.374 56.9686 162.32C56.8083 162.218 56.644 162.131 56.4756 162.045C56.3072 161.959 56.1349 161.888 55.9625 161.81C55.269 161.528 54.5315 161.351 53.7819 161.277C53.0323 161.195 52.2626 161.234 51.5171 161.395C51.3327 161.438 51.1483 161.485 50.9639 161.54C50.8196 161.587 50.6793 161.645 50.539 161.7C51.4048 160.787 52.1985 159.858 52.92 158.918C53.0644 158.902 53.2006 158.882 53.3369 158.859C53.4291 158.843 53.5133 158.827 53.6015 158.808L53.8661 158.769C54.0424 158.741 54.2108 158.706 54.3791 158.675C54.5515 158.651 54.7199 158.624 54.8842 158.592C54.9684 158.577 55.0486 158.557 55.1327 158.545L55.3813 158.506C55.5456 158.479 55.71 158.439 55.8743 158.416C56.0387 158.392 56.203 158.361 56.3674 158.33C56.4475 158.31 56.5317 158.302 56.6119 158.29L56.8564 158.247C57.5138 158.134 58.1752 158.02 58.8486 157.891C59.5261 157.757 60.2075 157.624 60.9451 157.409C60.7808 157.303 60.6084 157.224 60.436 157.154C60.3478 157.119 60.2596 157.083 60.1715 157.052C60.0833 157.021 59.9951 156.997 59.9029 156.966C59.7225 156.911 59.5421 156.872 59.3617 156.832C59.1814 156.797 58.997 156.77 58.8126 156.742C58.079 156.652 57.3294 156.68 56.5959 156.805C55.8623 156.923 55.1448 157.162 54.4794 157.507C54.315 157.597 54.1547 157.691 53.9943 157.785C53.838 157.891 53.6897 158.004 53.5414 158.118C53.5093 158.145 53.4772 158.169 53.4452 158.196C54.1867 157.166 54.8441 156.123 55.4133 155.061C55.4574 155.057 55.4975 155.041 55.5336 155.018C55.5697 154.994 55.6058 154.967 55.6298 154.928C55.6979 154.83 55.698 154.708 55.6458 154.61C55.9545 154.011 56.2351 153.407 56.4876 152.799C56.8083 152.862 57.4817 152.839 58.6803 152.137C59.1132 151.882 59.6183 151.537 60.1995 151.075C60.3358 150.965 60.3558 150.773 60.2436 150.64L60.2556 150.636Z" fill="#7DA67D"/>
<path d="M54.3831 142.413C54.0865 141.873 53.6496 142.022 53.7618 142.625C53.1605 142.445 52.9601 142.852 53.4772 143.205C52.924 143.495 53.0764 143.922 53.6937 143.813C53.5093 144.401 53.9262 144.597 54.2869 144.091C54.5836 144.632 55.0205 144.483 54.9083 143.879C55.5095 144.06 55.71 143.652 55.1929 143.299C55.746 143.009 55.5937 142.582 54.9764 142.692C55.1608 142.104 54.7439 141.908 54.3831 142.413Z" fill="white"/>
<path d="M58.6476 157.472C58.3509 156.931 57.914 157.08 58.0262 157.683C57.425 157.503 57.2245 157.911 57.7416 158.263C57.1885 158.553 57.3408 158.981 57.9581 158.871C57.7737 159.459 58.1906 159.655 58.5514 159.149C58.848 159.69 59.2849 159.541 59.1727 158.937C59.7739 159.118 59.9744 158.71 59.4573 158.357C60.0105 158.067 59.8581 157.64 59.2408 157.75C59.4252 157.162 59.0083 156.966 58.6476 157.472Z" fill="white"/>
<path d="M60.8087 152.748C60.5121 152.208 60.0751 152.357 60.1874 152.96C59.5861 152.78 59.3857 153.187 59.9028 153.54C59.3496 153.83 59.5019 154.257 60.1192 154.148C59.9348 154.736 60.3517 154.932 60.7125 154.426C61.0091 154.967 61.446 154.818 61.3338 154.214C61.9351 154.395 62.1355 153.987 61.6184 153.634C62.1716 153.344 62.0193 152.917 61.4019 153.027C61.5863 152.439 61.1695 152.243 60.8087 152.748Z" fill="white"/>
<path d="M60.3036 149.7C60.0069 149.159 59.57 149.308 59.6822 149.911C59.081 149.731 58.8805 150.139 59.3976 150.491C58.8445 150.781 58.9968 151.209 59.6141 151.099C59.4297 151.687 59.8466 151.883 60.2074 151.377C60.504 151.918 60.9409 151.769 60.8287 151.165C61.43 151.346 61.6304 150.938 61.1133 150.585C61.6665 150.295 61.5141 149.868 60.8968 149.978C61.0812 149.39 60.6643 149.194 60.3036 149.7Z" fill="white"/>
<path d="M57.7303 145.514C57.4337 144.973 56.9968 145.122 57.109 145.725C56.5077 145.545 56.3073 145.953 56.8244 146.305C56.2712 146.595 56.4235 147.023 57.0409 146.913C56.8565 147.501 57.2733 147.697 57.6341 147.191C57.9307 147.732 58.3677 147.583 58.2554 146.979C58.8567 147.16 59.0571 146.752 58.54 146.399C59.0932 146.109 58.9409 145.682 58.3236 145.792C58.508 145.204 58.0911 145.008 57.7303 145.514Z" fill="white"/>
<path d="M55.0001 157.209C54.7035 156.668 54.2665 156.817 54.3788 157.421C53.7775 157.24 53.5771 157.648 54.0942 158.001C53.541 158.291 53.6933 158.718 54.3106 158.608C54.1262 159.196 54.5431 159.392 54.9039 158.886C55.2005 159.427 55.6374 159.278 55.5252 158.675C56.1265 158.855 56.3269 158.447 55.8098 158.095C56.363 157.805 56.2107 157.377 55.5934 157.487C55.7777 156.899 55.3609 156.703 55.0001 157.209Z" fill="white"/>
<path d="M56.9005 149.265C56.6039 148.724 56.1669 148.873 56.2792 149.476C55.6779 149.296 55.4775 149.704 55.9946 150.056C55.4414 150.346 55.5937 150.774 56.211 150.664C56.0266 151.252 56.4435 151.448 56.8043 150.942C57.1009 151.483 57.5378 151.334 57.4256 150.73C58.0269 150.911 58.2273 150.503 57.7102 150.15C58.2634 149.86 58.1111 149.433 57.4937 149.543C57.6781 148.955 57.2612 148.759 56.9005 149.265Z" fill="white"/>
<path d="M56.4791 153.881C56.1825 153.34 55.7455 153.489 55.8578 154.093C55.2565 153.913 55.0561 154.32 55.5732 154.673C55.02 154.963 55.1723 155.39 55.7896 155.28C55.6052 155.868 56.0221 156.064 56.3829 155.559C56.6795 156.1 57.1165 155.951 57.0042 155.347C57.6055 155.527 57.8059 155.12 57.2888 154.767C57.842 154.477 57.6897 154.05 57.0724 154.16C57.2568 153.572 56.8399 153.376 56.4791 153.881Z" fill="white"/>
<path d="M51.829 154.614C51.5323 154.073 51.0954 154.222 51.2076 154.826C50.6064 154.646 50.4059 155.053 50.923 155.406C50.3698 155.696 50.5222 156.123 51.1395 156.013C50.9551 156.601 51.372 156.797 51.7327 156.292C52.0294 156.833 52.4663 156.684 52.3541 156.08C52.9553 156.26 53.1558 155.853 52.6387 155.5C53.1919 155.21 53.0395 154.783 52.4222 154.892C52.6066 154.305 52.1897 154.109 51.829 154.614Z" fill="white"/>
<path d="M53.8822 151.24C53.5855 150.699 53.1486 150.848 53.2608 151.451C52.6596 151.271 52.4591 151.679 52.9762 152.031C52.4231 152.321 52.5754 152.749 53.1927 152.639C53.0083 153.227 53.4252 153.423 53.786 152.917C54.0826 153.458 54.5195 153.309 54.4073 152.705C55.0086 152.886 55.209 152.478 54.6919 152.125C55.2451 151.835 55.0927 151.408 54.4754 151.518C54.6598 150.93 54.2429 150.734 53.8822 151.24Z" fill="white"/>
<path d="M55.662 160.635C55.3653 160.094 54.9284 160.243 55.0406 160.846C54.4394 160.666 54.2389 161.074 54.756 161.426C54.2029 161.716 54.3552 162.144 54.9725 162.034C54.7881 162.622 55.205 162.818 55.5658 162.312C55.8624 162.853 56.2993 162.704 56.1871 162.101C56.7884 162.281 56.9888 161.873 56.4717 161.52C57.0249 161.23 56.8725 160.803 56.2552 160.913C56.4396 160.325 56.0227 160.129 55.662 160.635Z" fill="white"/>
<path d="M51.4767 158.945C51.18 158.404 50.7431 158.553 50.8553 159.157C50.2541 158.977 50.0536 159.384 50.5707 159.737C50.0176 160.027 50.1699 160.454 50.7872 160.344C50.6028 160.932 51.0197 161.128 51.3804 160.623C51.6771 161.164 52.114 161.015 52.0018 160.411C52.603 160.591 52.8035 160.184 52.2864 159.831C52.8396 159.541 52.6872 159.114 52.0699 159.223C52.2543 158.636 51.8374 158.44 51.4767 158.945Z" fill="white"/>
<path d="M48.0016 155.904C47.7049 155.363 47.268 155.512 47.3802 156.116C46.779 155.936 46.5785 156.343 47.0956 156.696C46.5425 156.986 46.6948 157.413 47.3121 157.303C47.1277 157.891 47.5446 158.087 47.9054 157.582C48.202 158.123 48.6389 157.974 48.5267 157.37C49.128 157.55 49.3284 157.143 48.8113 156.79C49.3645 156.5 49.2121 156.073 48.5948 156.182C48.7792 155.595 48.3623 155.399 48.0016 155.904Z" fill="white"/>
<path d="M47.4923 147.877C47.1957 147.336 46.7587 147.485 46.871 148.088C46.2697 147.908 46.0693 148.316 46.5864 148.669C46.0332 148.959 46.1855 149.386 46.8028 149.276C46.6184 149.864 47.0353 150.06 47.3961 149.554C47.6927 150.095 48.1296 149.946 48.0174 149.343C48.6187 149.523 48.8191 149.115 48.302 148.763C48.8552 148.473 48.7029 148.045 48.0855 148.155C48.2699 147.567 47.853 147.371 47.4923 147.877Z" fill="white"/>
<path d="M49.2997 151.851C49.003 151.31 48.5661 151.459 48.6783 152.063C48.0771 151.882 47.8766 152.29 48.3937 152.643C47.8406 152.933 47.9929 153.36 48.6102 153.25C48.4258 153.838 48.8427 154.034 49.2034 153.528C49.5001 154.069 49.937 153.92 49.8248 153.317C50.426 153.497 50.6265 153.089 50.1094 152.737C50.6626 152.447 50.5102 152.02 49.8929 152.129C50.0773 151.541 49.6604 151.345 49.2997 151.851Z" fill="white"/>
<path d="M54.6034 146.552C54.3067 146.011 53.8698 146.16 53.982 146.764C53.3808 146.584 53.1803 146.991 53.6974 147.344C53.1443 147.634 53.2966 148.061 53.9139 147.951C53.7295 148.539 54.1464 148.735 54.5072 148.23C54.8038 148.771 55.2407 148.622 55.1285 148.018C55.7298 148.198 55.9302 147.791 55.4131 147.438C55.9663 147.148 55.8139 146.721 55.1966 146.83C55.381 146.243 54.9641 146.047 54.6034 146.552Z" fill="white"/>
<path d="M50.7157 144.569C50.419 144.028 49.9821 144.177 50.0943 144.78C49.4931 144.6 49.2926 145.008 49.8097 145.36C49.2566 145.65 49.4089 146.078 50.0262 145.968C49.8418 146.556 50.2587 146.752 50.6195 146.246C50.9161 146.787 51.353 146.638 51.2408 146.035C51.8421 146.215 52.0425 145.807 51.5254 145.455C52.0786 145.164 51.9262 144.737 51.3089 144.847C51.4933 144.259 51.0764 144.063 50.7157 144.569Z" fill="white"/>
<path d="M51.1322 148.567C50.8355 148.026 50.3986 148.175 50.5109 148.778C49.9096 148.598 49.7091 149.006 50.2262 149.359C49.6731 149.649 49.8254 150.076 50.4427 149.966C50.2583 150.554 50.6752 150.75 51.036 150.244C51.3326 150.785 51.7695 150.636 51.6573 150.033C52.2586 150.213 52.459 149.805 51.9419 149.453C52.4951 149.163 52.3427 148.735 51.7254 148.845C51.9098 148.257 51.4929 148.061 51.1322 148.567Z" fill="white"/>
<path d="M3.92377 84.0266C4.0801 84.0658 4.1763 84.2226 4.13221 84.3794C3.57502 86.4449 3.78748 87.2679 3.91976 87.5423C5.05417 86.4331 6.28479 85.465 7.60359 84.642C7.73988 84.5557 7.92427 84.5949 8.00845 84.7282C8.09664 84.8615 8.05655 85.0417 7.91625 85.1241C6.01221 86.3116 4.30057 87.8088 2.79737 89.6078C3.90372 90.0977 7.13058 91.1952 11.4157 89.7371C11.568 89.6862 11.7364 89.7646 11.7885 89.9135C11.8406 90.0625 11.7604 90.2271 11.6081 90.278C6.90611 91.881 3.48283 90.5798 2.41656 90.0703C1.25409 91.5361 0.215883 93.1862 -0.686035 95.0244C-0.641941 94.993 -0.597847 94.9577 -0.557763 94.9264C-0.417464 94.8245 -0.269149 94.7187 -0.120833 94.6246C0.0314903 94.5384 0.187823 94.4561 0.344155 94.3738C0.98151 94.0681 1.66697 93.8642 2.36445 93.7741C3.06193 93.68 3.76743 93.6761 4.4569 93.7819C4.62927 93.8133 4.80163 93.8407 4.974 93.8838C5.14637 93.927 5.31472 93.9701 5.47907 94.0249C5.56325 94.0563 5.64743 94.0837 5.7276 94.1151C5.81178 94.1464 5.89195 94.1817 5.97212 94.217C6.13246 94.2915 6.2928 94.3698 6.44513 94.4757C5.74364 94.6599 5.09425 94.7618 4.45289 94.8676C3.81153 94.9695 3.1862 95.0557 2.56087 95.142L2.32837 95.1733C2.25221 95.1851 2.17204 95.189 2.09588 95.2047C1.93955 95.2282 1.78722 95.2517 1.62688 95.2713C1.47055 95.2909 1.31823 95.3222 1.15789 95.3418L0.921382 95.3732C0.841212 95.381 0.76505 95.4006 0.68488 95.4085C0.528547 95.432 0.368207 95.4555 0.203857 95.4712C0.0435162 95.4986 -0.116825 95.5221 -0.281174 95.5457L-0.533711 95.5731C-0.61789 95.5848 -0.698061 95.6005 -0.786248 95.6123C-0.850384 95.6201 -0.91853 95.628 -0.986674 95.6358C-1.17507 96.0434 -1.35947 96.4589 -1.53584 96.8822C-3.6804 102.024 -4.06923 106.59 -4.06923 106.637C-4.08526 106.794 -4.22556 106.916 -4.3859 106.9C-4.54624 106.888 -4.67051 106.751 -4.65447 106.59C-4.65447 106.583 -4.64245 106.441 -4.61038 106.183C-4.47008 104.983 -3.92492 101.291 -2.27341 97.1487C-2.29746 97.1095 -2.32151 97.0703 -2.34155 97.0311C-2.38565 96.9605 -2.42573 96.8861 -2.46582 96.8155L-2.5981 96.6039C-2.68228 96.4628 -2.76245 96.3217 -2.83861 96.1845C-2.9268 96.0473 -3.00697 95.9102 -3.08313 95.7769C-3.12322 95.7103 -3.15528 95.6397 -3.19938 95.5731L-3.32364 95.3732C-3.40381 95.2399 -3.47597 95.1028 -3.55614 94.9695C-3.64032 94.8362 -3.71648 94.703 -3.79264 94.5697C-3.82872 94.5031 -3.87281 94.4365 -3.9129 94.3698L-4.03315 94.17C-4.34982 93.6369 -4.6665 93.1 -4.98317 92.5473C-5.29584 91.9869 -5.61251 91.4264 -5.90112 90.7719C-5.72475 90.8228 -5.5604 90.8973 -5.40006 90.9757C-5.31989 91.0149 -5.24373 91.058 -5.16355 91.1011C-5.08739 91.1442 -5.01524 91.1912 -4.93908 91.2383C-4.79076 91.3323 -4.65046 91.4342 -4.51017 91.5401C-4.37388 91.6459 -4.24159 91.7595 -4.10931 91.8732C-3.59622 92.3396 -3.1633 92.8844 -2.80654 93.4762C-2.44578 94.0681 -2.18522 94.7187 -2.03691 95.3967C-2.00484 95.5692 -1.97277 95.7377 -1.94872 95.9102C-1.93669 96.0473 -1.92868 96.1845 -1.92467 96.3256C-1.4677 95.2556 -0.966631 94.2405 -0.42949 93.2803C-0.473583 93.1548 -0.505651 93.0333 -0.53772 92.9118C-0.561771 92.8335 -0.577805 92.7511 -0.597847 92.6728L-0.665992 92.4376C-0.710086 92.2808 -0.746163 92.128 -0.778231 91.979C-0.822325 91.8262 -0.86241 91.6772 -0.902495 91.5283C-0.922538 91.4538 -0.934564 91.3794 -0.958615 91.3049L-1.01874 91.0815C-1.05883 90.9326 -1.08689 90.7836 -1.13098 90.6386C-1.17107 90.4936 -1.21115 90.3447 -1.24723 90.1996C-1.26326 90.1252 -1.28731 90.0546 -1.30736 89.9802L-1.36748 89.7607C-1.52382 89.1728 -1.67614 88.5809 -1.82446 87.9734C-1.96876 87.362 -2.11708 86.7428 -2.21328 86.049C-2.06096 86.1431 -1.92467 86.2567 -1.7964 86.3743C-1.73226 86.4331 -1.66812 86.4919 -1.608 86.5546C-1.54787 86.6173 -1.49175 86.68 -1.43162 86.7427C-1.31537 86.8721 -1.21115 87.0054 -1.10693 87.1386C-1.00672 87.2758 -0.914521 87.4169 -0.818316 87.558C-0.457549 88.1341 -0.192986 88.7612 -0.0166116 89.4197C0.163772 90.0742 0.231917 90.7601 0.187823 91.4421C0.171789 91.6145 0.155755 91.7831 0.131703 91.9516C0.0996356 92.1201 0.0595503 92.2887 0.0154567 92.4533C0.00343084 92.4885 -0.00458622 92.5277 -0.0166116 92.563C0.588675 91.5518 1.24206 90.6072 1.94356 89.7254C1.93153 89.6862 1.92752 89.647 1.93153 89.6078C1.93554 89.5686 1.95157 89.5294 1.97162 89.4902C2.03174 89.3962 2.13597 89.3491 2.24019 89.3531C2.64104 88.867 3.05793 88.4046 3.48684 87.9617C3.30645 87.7226 3.06995 87.1543 3.21827 85.8883C3.27439 85.4298 3.37861 84.8811 3.55498 84.2226C3.59507 84.0697 3.75541 83.9757 3.91575 84.0188L3.92377 84.0266Z" fill="#7DA67D"/>
<path d="M13.3117 85.7352C13.8969 85.7705 13.933 86.1899 13.3678 86.331C13.7526 86.7621 13.4801 87.0835 12.975 86.7895C12.9389 87.3618 12.51 87.397 12.3657 86.8444C11.9248 87.2207 11.5961 86.9541 11.8967 86.4603C11.3114 86.425 11.2754 86.0057 11.8406 85.8646C11.4558 85.4334 11.7283 85.112 12.2334 85.406C12.2695 84.8338 12.6984 84.7985 12.8427 85.3511C13.2836 84.9749 13.6123 85.2414 13.3117 85.7352Z" fill="white"/>
<path d="M1.87933 84.3832C2.46457 84.4184 2.50065 84.8378 1.93545 84.9789C2.32027 85.41 2.04769 85.7314 1.54261 85.4375C1.50654 86.0097 1.07762 86.045 0.933317 85.4923C0.492379 85.8686 0.16368 85.6021 0.46432 85.1082C-0.120925 85.073 -0.157001 84.6536 0.4082 84.5125C0.0233821 84.0814 0.295962 83.76 0.801036 84.0539C0.837112 83.4817 1.26602 83.4464 1.41033 83.9991C1.85127 83.6228 2.17997 83.8893 1.87933 84.3832Z" fill="white"/>
<path d="M4.71722 83.6307C5.30246 83.666 5.33854 84.0854 4.77334 84.2265C5.15816 84.6576 4.88558 84.979 4.3805 84.685C4.34443 85.2573 3.91551 85.2925 3.77121 84.7399C3.33027 85.1162 3.00157 84.8496 3.30221 84.3558C2.71697 84.3205 2.68089 83.9012 3.24609 83.7601C2.86127 83.3289 3.13385 83.0075 3.63893 83.3015C3.675 82.7293 4.10391 82.694 4.24822 83.2466C4.68916 82.8704 5.01786 83.1369 4.71722 83.6307Z" fill="white"/>
<path d="M9.33489 84.1517C9.92014 84.187 9.95622 84.6064 9.39101 84.7475C9.77583 85.1786 9.50325 85.5 8.99818 85.206C8.9621 85.7783 8.53319 85.8135 8.38888 85.2609C7.94795 85.6372 7.61925 85.3706 7.91989 84.8768C7.33464 84.8415 7.29857 84.4222 7.86377 84.2811C7.47895 83.8499 7.75153 83.5285 8.2566 83.8225C8.29268 83.2503 8.72159 83.215 8.8659 83.7676C9.30684 83.3914 9.63553 83.6579 9.33489 84.1517Z" fill="white"/>
<path d="M0.247981 90.9129C0.833225 90.9482 0.869302 91.3676 0.3041 91.5087C0.688918 91.9398 0.416338 92.2612 -0.0887355 91.9673C-0.124812 92.5395 -0.553724 92.5748 -0.698031 92.0221C-1.13897 92.3984 -1.46767 92.1319 -1.16703 91.638C-1.75227 91.6028 -1.78835 91.1834 -1.22315 91.0423C-1.60797 90.6112 -1.33539 90.2898 -0.830312 90.5837C-0.794235 90.0115 -0.365323 89.9762 -0.221017 90.5289C0.219921 90.1526 0.54862 90.4191 0.247981 90.9129Z" fill="white"/>
<path d="M6.40521 86.2801C6.99045 86.3154 7.02653 86.7348 6.46133 86.8759C6.84614 87.307 6.57357 87.6284 6.06849 87.3345C6.03241 87.9067 5.6035 87.942 5.4592 87.3893C5.01826 87.7656 4.68956 87.4991 4.9902 87.0052C4.40495 86.9699 4.36888 86.5506 4.93408 86.4095C4.54926 85.9783 4.82184 85.657 5.32691 85.9509C5.36299 85.3787 5.7919 85.3434 5.93621 85.896C6.37715 85.5198 6.70585 85.7863 6.40521 86.2801Z" fill="white"/>
<path d="M2.56048 88.4081C3.14573 88.4433 3.1818 88.8627 2.6166 89.0038C3.00142 89.4349 2.72884 89.7563 2.22376 89.4624C2.18769 90.0346 1.75878 90.0699 1.61447 89.5172C1.17353 89.8935 0.844833 89.627 1.14547 89.1332C0.560228 89.0979 0.524151 88.6785 1.08935 88.5374C0.704534 88.1063 0.977114 87.7849 1.48219 88.0788C1.51826 87.5066 1.94718 87.4713 2.09148 88.024C2.53242 87.6477 2.86112 87.9142 2.56048 88.4081Z" fill="white"/>
<path d="M3.71502 92.5433C4.30027 92.5786 4.33634 92.998 3.77114 93.1391C4.15596 93.5702 3.88338 93.8916 3.37831 93.5976C3.34223 94.1699 2.91332 94.2051 2.76901 93.6525C2.32807 94.0288 1.99937 93.7622 2.30001 93.2684C1.71477 93.2331 1.67869 92.8138 2.24389 92.6727C1.85908 92.2415 2.13166 91.9201 2.63673 92.2141C2.67281 91.6419 3.10172 91.6066 3.24602 92.1592C3.68696 91.783 4.01566 92.0495 3.71502 92.5433Z" fill="white"/>
<path d="M5.85174 89.5409C6.43698 89.5762 6.47306 89.9955 5.90786 90.1366C6.29268 90.5678 6.0201 90.8891 5.51502 90.5952C5.47895 91.1674 5.05004 91.2027 4.90573 90.6501C4.46479 91.0263 4.13609 90.7598 4.43673 90.266C3.85149 90.2307 3.81541 89.8113 4.38061 89.6702C3.99579 89.2391 4.26837 88.9177 4.77345 89.2117C4.80952 88.6394 5.23844 88.6042 5.38274 89.1568C5.82368 88.7805 6.15238 89.047 5.85174 89.5409Z" fill="white"/>
<path d="M0.0951486 94.5028C0.680393 94.5381 0.71647 94.9574 0.151268 95.0985C0.536086 95.5297 0.263506 95.8511 -0.241567 95.5571C-0.277644 96.1293 -0.706556 96.1646 -0.850863 95.612C-1.2918 95.9882 -1.6205 95.7217 -1.31986 95.2279C-1.9051 95.1926 -1.94118 94.7732 -1.37598 94.6321C-1.7608 94.201 -1.48822 93.8796 -0.983144 94.1736C-0.947067 93.6013 -0.518155 93.5661 -0.373849 94.1187C0.0670888 93.7424 0.395788 94.009 0.0951486 94.5028Z" fill="white"/>
<path d="M4.06829 96.2118C4.65354 96.2471 4.68961 96.6664 4.12441 96.8075C4.50923 97.2387 4.23665 97.56 3.73158 97.2661C3.6955 97.8383 3.26659 97.8736 3.12228 97.321C2.68134 97.6972 2.35265 97.4307 2.65328 96.9369C2.06804 96.9016 2.03196 96.4822 2.59717 96.3411C2.21235 95.91 2.48493 95.5886 2.99 95.8826C3.02608 95.3103 3.45499 95.275 3.5993 95.8277C4.04023 95.4514 4.36893 95.7179 4.06829 96.2118Z" fill="white"/>
<path d="M11.2267 93.5467C11.812 93.582 11.8481 94.0014 11.2829 94.1425C11.6677 94.5736 11.3951 94.895 10.89 94.601C10.8539 95.1733 10.425 95.2086 10.2807 94.6559C9.83979 95.0322 9.51109 94.7657 9.81173 94.2718C9.22649 94.2365 9.19041 93.8172 9.75561 93.6761C9.37079 93.2449 9.64337 92.9236 10.1484 93.2175C10.1845 92.6453 10.6134 92.61 10.7577 93.1626C11.1987 92.7864 11.5274 93.0529 11.2267 93.5467Z" fill="white"/>
<path d="M7.0866 93.578C7.67185 93.6133 7.70792 94.0326 7.14272 94.1737C7.52754 94.6049 7.25496 94.9263 6.74989 94.6323C6.71381 95.2045 6.2849 95.2398 6.14059 94.6872C5.69965 95.0634 5.37096 94.7969 5.67159 94.3031C5.08635 94.2678 5.05027 93.8484 5.61548 93.7073C5.23066 93.2762 5.50324 92.9548 6.00831 93.2488C6.04439 92.6765 6.4733 92.6413 6.61761 93.1939C7.05854 92.8176 7.38724 93.0841 7.0866 93.578Z" fill="white"/>
<path d="M9.63958 87.1424C10.2248 87.1777 10.2609 87.5971 9.6957 87.7382C10.0805 88.1693 9.80794 88.4907 9.30287 88.1968C9.26679 88.769 8.83788 88.8043 8.69357 88.2516C8.25263 88.6279 7.92393 88.3614 8.22457 87.8675C7.63933 87.8323 7.60325 87.4129 8.16845 87.2718C7.78364 86.8407 8.05622 86.5193 8.56129 86.8132C8.59737 86.241 9.02628 86.2057 9.17058 86.7583C9.61152 86.3821 9.94022 86.6486 9.63958 87.1424Z" fill="white"/>
<path d="M12.8508 89.6C13.436 89.6352 13.4721 90.0546 12.9069 90.1957C13.2917 90.6268 13.0191 90.9482 12.514 90.6543C12.478 91.2265 12.0491 91.2618 11.9048 90.7091C11.4638 91.0854 11.1351 90.8189 11.4358 90.325C10.8505 90.2898 10.8144 89.8704 11.3796 89.7293C10.9948 89.2982 11.2674 88.9768 11.7725 89.2707C11.8085 88.6985 12.2375 88.6632 12.3818 89.2159C12.8227 88.8396 13.1514 89.1061 12.8508 89.6Z" fill="white"/>
<path d="M9.22625 90.7953C9.8115 90.8305 9.84757 91.2499 9.28237 91.391C9.66719 91.8221 9.39461 92.1435 8.88954 91.8496C8.85346 92.4218 8.42455 92.4571 8.28024 91.9045C7.8393 92.2807 7.5106 92.0142 7.81124 91.5204C7.226 91.4851 7.18992 91.0657 7.75512 90.9246C7.37031 90.4935 7.64289 90.1721 8.14796 90.466C8.18404 89.8938 8.61295 89.8585 8.75725 90.4112C9.19819 90.0349 9.52689 90.3014 9.22625 90.7953Z" fill="white"/>
</g>
<defs>
<filter id="filter0_d_67_1486" x="0" y="0" width="67.9001" height="168" filterUnits="userSpaceOnUse" color-interpolation-filters="sRGB">
<feFlood flood-opacity="0" result="BackgroundImageFix"/>
<feColorMatrix in="SourceAlpha" type="matrix" values="0 0 0 0 0 0 0 0 0 0 0 0 0 0 0 0 0 0 127 0" result="hardAlpha"/>
<feOffset dx="2" dy="2"/>
<feComposite in2="hardAlpha" operator="out"/>
<feColorMatrix type="matrix" values="0 0 0 0 0 0 0 0 0 0 0 0 0 0 0 0 0 0 0.1 0"/>
<feBlend mode="normal" in2="BackgroundImageFix" result="effect1_dropShadow_67_1486"/>
<feBlend mode="normal" in="SourceGraphic" in2="effect1_dropShadow_67_1486" result="shape"/>
</filter>
<linearGradient id="paint0_linear_67_1486" x1="35.3048" y1="85.2942" x2="35.5317" y2="69.6575" gradientUnits="userSpaceOnUse">
<stop stop-color="#A55251"/>
<stop offset="0.05" stop-color="#A95251"/>
<stop offset="0.43" stop-color="#C55756"/>
<stop offset="0.76" stop-color="#D65A59"/>
<stop offset="1" stop-color="#DD5B5A"/>
</linearGradient>
</defs>
</svg>
