<svg width="312" height="113" viewBox="0 0 312 113" fill="none" xmlns="http://www.w3.org/2000/svg">
<path d="M190.65 16.254L194.528 6.98599H196.964L189.208 24.304H186.744L189.348 18.48L184.616 6.98599H187.094L190.65 16.254Z" fill="#D95F77"/>
<path d="M173.329 24.304H170.907V6.98599H173.371V9.14199C173.455 8.85266 173.688 8.51199 174.071 8.11999C174.453 7.72799 174.967 7.38733 175.611 7.09799C176.264 6.79933 177.011 6.64999 177.851 6.64999C178.915 6.64999 179.857 6.90666 180.679 7.41999C181.509 7.92399 182.158 8.63333 182.625 9.54799C183.101 10.4533 183.339 11.5173 183.339 12.74C183.339 13.9627 183.096 15.0313 182.611 15.946C182.125 16.8513 181.463 17.556 180.623 18.06C179.792 18.564 178.84 18.816 177.767 18.816C176.899 18.816 176.138 18.6527 175.485 18.326C174.841 17.9993 174.332 17.6307 173.959 17.22C173.595 16.8093 173.385 16.4827 173.329 16.24V24.304ZM180.931 12.74C180.931 11.9093 180.758 11.1907 180.413 10.584C180.077 9.97733 179.629 9.50599 179.069 9.16999C178.509 8.83399 177.902 8.66599 177.249 8.66599C176.53 8.66599 175.877 8.83866 175.289 9.18399C174.701 9.51999 174.234 9.99599 173.889 10.612C173.543 11.2187 173.371 11.928 173.371 12.74C173.371 13.552 173.543 14.266 173.889 14.882C174.234 15.4887 174.701 15.96 175.289 16.296C175.877 16.632 176.53 16.8 177.249 16.8C177.902 16.8 178.509 16.6367 179.069 16.31C179.629 15.974 180.077 15.5027 180.413 14.896C180.758 14.2893 180.931 13.5707 180.931 12.74Z" fill="#D95F77"/>
<path d="M158.317 24.304H155.895V6.98599H158.359V9.14199C158.443 8.85266 158.676 8.51199 159.059 8.11999C159.442 7.72799 159.955 7.38733 160.599 7.09799C161.252 6.79933 161.999 6.64999 162.839 6.64999C163.903 6.64999 164.846 6.90666 165.667 7.41999C166.498 7.92399 167.146 8.63333 167.613 9.54799C168.089 10.4533 168.327 11.5173 168.327 12.74C168.327 13.9627 168.084 15.0313 167.599 15.946C167.114 16.8513 166.451 17.556 165.611 18.06C164.78 18.564 163.828 18.816 162.755 18.816C161.887 18.816 161.126 18.6527 160.473 18.326C159.829 17.9993 159.32 17.6307 158.947 17.22C158.583 16.8093 158.373 16.4827 158.317 16.24V24.304ZM165.919 12.74C165.919 11.9093 165.746 11.1907 165.401 10.584C165.065 9.97733 164.617 9.50599 164.057 9.16999C163.497 8.83399 162.89 8.66599 162.237 8.66599C161.518 8.66599 160.865 8.83866 160.277 9.18399C159.689 9.51999 159.222 9.99599 158.877 10.612C158.532 11.2187 158.359 11.928 158.359 12.74C158.359 13.552 158.532 14.266 158.877 14.882C159.222 15.4887 159.689 15.96 160.277 16.296C160.865 16.632 161.518 16.8 162.237 16.8C162.89 16.8 163.497 16.6367 164.057 16.31C164.617 15.974 165.065 15.5027 165.401 14.896C165.746 14.2893 165.919 13.5707 165.919 12.74Z" fill="#D95F77"/>
<path d="M150.218 18.48V16.24C150.143 16.4733 149.924 16.7953 149.56 17.206C149.205 17.6167 148.715 17.99 148.09 18.326C147.474 18.6527 146.746 18.816 145.906 18.816C144.842 18.816 143.876 18.564 143.008 18.06C142.149 17.556 141.463 16.8513 140.95 15.946C140.446 15.0313 140.194 13.9627 140.194 12.74C140.194 11.5173 140.446 10.4533 140.95 9.54799C141.463 8.63333 142.149 7.92399 143.008 7.41999C143.876 6.90666 144.842 6.64999 145.906 6.64999C146.737 6.64999 147.455 6.79933 148.062 7.09799C148.678 7.39666 149.168 7.74199 149.532 8.13399C149.905 8.52599 150.125 8.86199 150.19 9.14199V6.98599H152.598V18.48H150.218ZM142.602 12.74C142.602 13.5707 142.784 14.2893 143.148 14.896C143.512 15.5027 143.983 15.974 144.562 16.31C145.15 16.6367 145.775 16.8 146.438 16.8C147.147 16.8 147.782 16.632 148.342 16.296C148.902 15.96 149.345 15.4887 149.672 14.882C149.999 14.266 150.162 13.552 150.162 12.74C150.162 11.928 149.999 11.2187 149.672 10.612C149.345 9.99599 148.902 9.51999 148.342 9.18399C147.782 8.83866 147.147 8.66599 146.438 8.66599C145.775 8.66599 145.15 8.83399 144.562 9.16999C143.983 9.50599 143.512 9.97733 143.148 10.584C142.784 11.1907 142.602 11.9093 142.602 12.74Z" fill="#D95F77"/>
<path d="M134.927 10.29H126.065V18.48H123.699V0H126.065V8.134H134.927V0H137.293V18.48H134.927V10.29Z" fill="#D95F77"/>
<path d="M69.1348 73.5517L71.0319 74.0212C71.2189 76.4331 70.9661 78.6153 70.2736 80.5679C69.581 82.5205 68.569 83.8249 67.2375 84.4811C65.906 85.1373 64.7397 85.1786 63.7385 84.6051C62.7548 84.0229 61.9392 83.0748 61.2917 81.7609C60.6442 80.4469 60.0067 78.1373 59.3794 74.8319C58.7696 71.5179 58.286 68.2833 57.9286 65.1279C57.0163 56.6936 56.0595 51.4603 55.0579 49.4281C54.4795 48.2543 53.8136 47.853 53.0602 48.2243C50.0644 49.7007 48.7114 56.3663 49.0013 68.221C49.1135 72.9996 49.3046 76.9663 49.5747 80.1211C50.1656 86.7105 50.5142 90.6432 50.6204 91.9191L44.7602 94.8071L44.0697 87.3087C43.3425 78.5872 42.108 70.7581 40.3661 63.8213C39.7174 61.1797 39.0392 59.1406 38.3312 57.704C37.2519 55.5141 36.1342 54.7041 34.9779 55.2739C33.8216 55.8437 32.9525 57.3717 32.3704 59.8577C31.7797 62.3263 31.4704 65.2113 31.4427 68.5129C31.4149 71.8145 31.4951 75.3351 31.6832 79.0747C31.8712 82.8142 32.1266 86.2485 32.4492 89.3774C33.2283 96.658 33.5829 100.316 33.5128 100.35L28.3621 102.888L27.2518 93.2126C26.5384 85.1375 25.5124 79.0129 24.1738 74.8387C23.5648 72.8961 22.7984 70.9875 21.8746 69.1129C20.9508 67.2383 19.6963 65.9078 18.1111 65.1212C16.5172 64.3172 14.8794 64.3296 13.1975 65.1584C11.5157 65.9873 10.2386 67.0631 9.36622 68.3857C8.50274 69.6822 7.94446 71.0678 7.69139 72.5426C7.43832 74.0173 7.37264 75.563 7.49434 77.1796C7.69534 80.1943 8.38294 82.8929 9.55715 85.2755C12.0696 90.3736 15.4449 94.2844 19.683 97.0079L18.9675 98.4057C16.7132 97.0126 14.6359 95.2275 12.7355 93.0503C10.844 90.847 9.43634 88.808 8.51252 86.9335C7.5887 85.0589 6.91296 83.3343 6.48529 81.7595C6.04899 80.1673 5.79233 78.4756 5.7153 76.6846C5.63827 74.8935 5.79218 73.1955 6.17702 71.5905C6.57075 69.9593 7.3352 68.4177 8.47035 66.9655C9.61439 65.4872 11.0098 64.3422 12.6566 63.5307C14.3035 62.7191 15.8429 62.3524 17.2749 62.4305C18.7245 62.5 20.0367 62.9093 21.2116 63.6586C23.5266 65.1306 25.4223 67.3645 26.8987 70.3603C28.375 73.3562 29.5876 78.1804 30.5363 84.833C30.3384 82.7967 30.22 81.3635 30.1811 80.5335C30.1597 79.6948 30.1132 78.6725 30.0415 77.4667C29.9874 76.2523 29.9448 75.3043 29.9138 74.6228C29.8742 73.9238 29.8407 72.906 29.8135 71.5694C29.7776 70.2153 29.7709 69.0973 29.7935 68.2152C29.8249 67.3069 29.8793 66.2023 29.9567 64.9013C30.043 63.5741 30.1673 62.4567 30.3298 61.5492C30.4922 60.6418 30.7075 59.6647 30.9756 58.6181C31.2525 57.5453 31.5809 56.6431 31.9607 55.9116C32.809 54.2307 33.8638 53.0794 35.1252 52.4578C38.1035 50.99 40.5769 52.2533 42.5454 56.2477C43.7886 58.7705 44.8305 62.1438 45.6709 66.3675C45.951 67.7754 46.2811 69.616 46.661 71.8893C47.0499 74.1363 47.2783 75.4173 47.3464 75.7321C47.4179 73.9332 47.3331 71.2206 47.092 67.5942C46.8508 63.9679 46.7759 61.0544 46.8672 58.8538C46.9585 56.6531 47.1749 54.7065 47.5166 53.0139C47.8583 51.3214 48.4832 49.7396 49.3914 48.2687C50.3171 46.7891 51.4281 45.7298 52.7245 45.0909C54.0385 44.4434 55.2793 44.3545 56.4471 44.8241C57.6324 45.2852 58.5704 46.2165 59.2611 47.618C59.9518 49.0196 60.5483 50.8486 61.0507 53.105C61.5444 55.344 61.9199 57.6303 62.1772 59.964C62.4346 62.2976 62.6876 64.6225 62.9363 66.9387C63.5066 72.5585 64.378 76.7125 65.5504 79.4008C66.103 80.5221 66.6683 80.9402 67.2465 80.6553C67.8421 80.3618 68.2925 79.5083 68.5976 78.0951C68.9028 76.6818 69.0818 75.1673 69.1348 73.5517Z" fill="#D95F77"/>
<path d="M73.1826 74.0568C72.8557 72.6289 72.8845 71.1797 73.2692 69.7091C73.6685 68.2151 74.3156 66.8848 75.2106 65.7181C77.1943 63.1802 79.4521 61.6213 81.9843 61.0416C84.5164 60.4618 86.7464 60.6626 88.6741 61.6438C90.6019 62.625 91.799 64.1342 92.2654 66.1714C92.7274 68.1895 92.5821 70.1362 91.8293 72.0117C91.0956 73.8828 89.9195 75.4845 88.301 76.8168C86.6781 78.1301 84.7815 79.0352 82.6111 79.5321C80.4598 80.0247 78.4678 79.7694 76.6352 78.7664C74.8173 77.74 73.6665 76.1701 73.1826 74.0568ZM83.7764 77.4019C84.6522 77.2014 85.4055 76.7284 86.0363 75.9829C86.6861 75.233 87.1063 74.3554 87.2969 73.35C87.6764 71.4197 87.6526 69.5217 87.2254 67.6559C86.7983 65.7901 86.133 64.4597 85.2297 63.6647C84.322 62.8506 83.2398 62.5875 81.9833 62.8751C80.7267 63.1628 79.6672 64.267 78.8045 66.1877C77.9609 68.104 77.829 70.3282 78.4087 72.8603C79.2456 76.5157 81.0349 78.0296 83.7764 77.4019Z" fill="#D95F77"/>
<path d="M97.8581 58.3567C98.8051 51.8596 99.9591 46.3575 101.32 41.8505L104.951 41.5368C104.843 42.1888 104.572 43.7593 104.14 46.2484C103.22 51.7309 102.667 55.5078 102.481 57.5791L107.016 56.816L106.875 58.8006L102.195 59.5879C101.343 65.3561 101.017 68.8372 101.218 70.0313C101.416 71.2062 101.63 71.7743 101.862 71.7354C102.112 71.6932 102.325 71.6078 102.502 71.4791C102.973 71.1027 103.854 69.5088 105.143 66.6973L106.508 67.567C105.613 70.1338 104.577 72.1005 103.401 73.4669C102.221 74.8141 101.188 75.5622 100.302 75.7113C99.4163 75.8603 98.6903 75.6655 98.1244 75.127C97.5777 74.5851 97.2233 73.8327 97.0613 72.8697C96.6498 70.4236 96.8297 66.2539 97.601 60.3607L94.5675 60.8711L94.709 58.8865L97.8581 58.3567Z" fill="#D95F77"/>
<path d="M122.324 68.7534C122.209 67.7444 122.431 66.0775 122.992 63.7529C123.552 61.4282 123.778 59.7905 123.669 58.8396C123.558 57.8694 123.163 57.423 122.484 57.5005C121.824 57.5759 121.073 58.1432 120.231 59.2026C119.387 60.2426 118.605 61.4917 117.887 62.9497C116.701 65.3064 115.542 67.9748 114.407 70.9547L113.81 72.4382L109.619 72.9168C109.767 65.7835 110.086 60.4788 110.574 57.0026C111.061 53.5264 111.567 50.5495 112.09 48.0718C112.613 45.5941 113.225 43.3815 113.927 41.4339C115.501 36.9687 117.511 33.5645 119.956 31.2212L122.284 31.9875C120.445 34.3009 118.951 38.177 117.803 43.6157C116.672 49.0329 115.574 56.4613 114.509 65.9008C114.603 65.6935 114.789 65.2594 115.068 64.5985C115.363 63.9161 115.59 63.4085 115.749 63.0759C115.905 62.7238 116.141 62.2055 116.456 61.5208C116.79 60.8339 117.072 60.2906 117.302 59.8909C117.529 59.4718 117.824 58.9565 118.187 58.345C118.569 57.7313 118.906 57.2406 119.199 56.8731C119.508 56.4839 119.873 56.0687 120.295 55.6274C120.714 55.1667 121.124 54.7956 121.524 54.514C122.456 53.8965 123.485 53.5235 124.61 53.395C125.736 53.2665 126.615 53.4806 127.249 54.0373C127.902 54.5919 128.289 55.393 128.408 56.4409C128.528 57.4888 128.244 59.3101 127.558 61.9047C126.869 64.4799 126.557 66.0586 126.624 66.6408C126.69 67.2229 126.879 67.4963 127.189 67.4608C128.004 67.3678 129.096 65.9949 130.464 63.3421L131.849 64.3635C130.85 66.6399 129.733 68.3893 128.496 69.6116C127.279 70.8318 126.234 71.4917 125.361 71.5914C124.507 71.6889 123.816 71.4925 123.288 71.0023C122.761 70.5121 122.439 69.7625 122.324 68.7534Z" fill="#D95F77"/>
<path d="M139.685 64.0029C139.933 66.2383 141.51 67.2709 144.415 67.1008C145.487 67.0381 146.581 66.6708 147.696 65.999C148.83 65.3066 149.732 64.52 150.405 63.6394L151.71 64.3847C150.251 67.1896 147.764 68.9982 144.251 69.8104C143.478 69.973 142.731 70.0755 142.009 70.1177C139.903 70.241 138.108 69.6516 136.623 68.3494C135.137 67.0277 134.335 65.3628 134.218 63.3545C134.1 61.3462 134.606 59.458 135.735 57.6897C136.863 55.902 138.316 54.4865 140.094 53.4433C141.891 52.399 143.687 51.8243 145.481 51.7193C147.275 51.6143 148.849 51.933 150.203 52.6754C151.577 53.4167 152.314 54.4789 152.415 55.8621C152.535 57.2442 152.205 58.4667 151.426 59.5297C150.646 60.5732 149.628 61.3958 148.372 61.9976C145.878 63.1805 143.403 63.8439 140.946 63.9877L139.685 64.0029ZM139.415 62.4046C141.575 62.1999 143.29 61.7571 144.561 61.0761C145.851 60.3746 146.726 59.619 147.187 58.8094C147.667 57.9792 147.882 57.1351 147.831 56.2772C147.78 55.3998 147.518 54.7695 147.046 54.3863C146.572 53.9836 146.082 53.7971 145.575 53.8268C144.327 53.8998 143.202 54.4059 142.201 55.3449C141.218 56.2633 140.49 57.3624 140.017 58.6423C139.543 59.9026 139.342 61.1567 139.415 62.4046Z" fill="#D95F77"/>
<path d="M172.135 54.843C171.393 54.8508 170.519 55.3384 169.513 56.3059C168.507 57.2539 167.533 58.4164 166.59 59.7935C165.09 61.9967 163.563 64.5322 162.011 67.4L161.234 68.8144L157.104 68.8573C157.104 68.8573 157.397 67.9362 157.983 66.0941C159.63 60.9986 160.448 57.9821 160.438 57.0447C160.428 56.0877 160.267 55.6108 159.955 55.6141C159.388 55.62 158.722 56.3007 157.954 57.6564C157.782 57.9707 157.638 58.2262 157.523 58.4227C157.407 58.5997 157.273 58.8257 157.12 59.1007C156.986 59.356 156.899 59.5132 156.861 59.5722L154.886 58.45C156.384 55.9539 157.761 54.1133 159.019 52.9283C160.276 51.7238 161.568 51.1147 162.896 51.1009C163.502 51.0946 164.022 51.3431 164.457 51.8464C164.911 52.3495 165.142 52.9527 165.15 53.6557C165.157 54.3393 165.124 54.9549 165.051 55.5026C164.979 56.0307 164.896 56.5199 164.803 56.9701C164.71 57.4203 164.579 57.9588 164.41 58.5856C164.24 59.2124 164.099 59.6924 163.985 60.0256C163.891 60.3586 163.759 60.8092 163.589 61.3774C163.419 61.9456 163.315 62.2788 163.277 62.3768C163.621 61.6701 164.206 60.6288 165.032 59.253C165.857 57.8771 166.395 57.0121 166.646 56.6579C166.896 56.3038 167.243 55.8314 167.686 55.2408C168.129 54.6503 168.515 54.197 168.843 53.8811C169.192 53.5454 169.598 53.1701 170.062 52.7551C170.546 52.3203 171.002 51.9933 171.429 51.774C172.518 51.2549 173.57 50.9901 174.585 50.9795C175.601 50.969 176.414 51.2633 177.026 51.8624C177.657 52.4418 177.977 53.1319 177.985 53.9327C177.993 54.7139 177.747 55.4098 177.245 56.0205C176.763 56.6115 176.19 56.9104 175.526 56.9173C174.881 56.924 174.372 56.8219 173.999 56.6109C173.626 56.3804 173.369 56.1389 173.23 55.8864C172.812 55.1876 172.447 54.8398 172.135 54.843Z" fill="#D95F77"/>
<path d="M184.225 54.1493L183.288 54.1217C183.34 52.3451 183.202 49.4198 182.873 45.3458L182.702 43.2012L187.681 43.3188C185.96 49.3253 184.808 52.9355 184.225 54.1493Z" fill="#D95F77"/>
<path d="M188.015 69.4391C186.778 68.9075 185.906 68.3216 185.4 67.6814C184.895 67.0218 184.668 66.3218 184.716 65.5812C184.765 64.8406 185.01 64.2402 185.452 63.7799C185.893 63.3196 186.445 63.1113 187.108 63.155C187.79 63.1999 188.371 63.4437 188.85 63.8864C189.351 64.3108 189.577 64.8933 189.528 65.6339C189.48 66.355 188.992 66.9296 188.064 67.3578C188.762 68.0497 189.871 68.4457 191.391 68.5459C194.685 68.7629 196.393 67.9359 196.517 66.0649C196.594 64.8956 195.613 63.8914 193.574 63.0524C192.735 62.7036 191.889 62.3347 191.033 61.9456C190.198 61.5578 189.479 61.0211 188.879 60.3356C188.278 59.6501 187.978 58.8475 187.98 57.9276C188.068 56.6024 188.58 55.5106 189.517 54.6524C191.289 53.0075 193.822 52.2936 197.116 52.5105C198.734 52.6171 200.145 53.0233 201.352 53.7291C202.559 54.4154 203.131 55.2458 203.067 56.2203C203.002 57.1947 202.703 57.8796 202.168 58.275C201.652 58.6717 201.063 58.8482 200.401 58.8045C199.738 58.7609 199.185 58.5482 198.74 58.1666C198.316 57.7668 198.125 57.2453 198.168 56.6022C198.21 55.9591 198.627 55.4287 199.418 55.011C198.972 54.6489 198.174 54.4299 197.024 54.3542C195.874 54.2784 194.83 54.3858 193.89 54.6763C192.953 54.9472 192.464 55.3751 192.426 55.9597C192.387 56.5444 192.687 57.0534 193.324 57.4869C193.98 57.9216 194.775 58.3361 195.708 58.7303C196.641 59.1245 197.571 59.5674 198.498 60.0591C199.424 60.5508 200.193 61.218 200.803 62.0607C201.432 62.9046 201.709 63.9113 201.632 65.0806C201.554 66.25 201.007 67.2807 199.989 68.1727C198.057 69.8658 195.522 70.609 192.385 70.4023C190.728 70.2932 189.272 69.9721 188.015 69.4391Z" fill="#D95F77"/>
<path d="M223.32 65.0378L221.049 65.6464C219.452 60.9633 218.956 56.6025 219.559 52.564C220.307 47.557 222.554 43.5113 226.301 40.4269C229.929 37.4301 234.154 35.6598 238.975 35.116C241.354 34.8395 243.801 34.889 246.315 35.2645C248.828 35.6401 251.077 36.2393 253.061 37.0622C255.044 37.8851 256.813 39.1604 258.366 40.888C260.516 39.6083 263.332 39.2285 266.815 39.7487L267.146 41.7573C263.731 41.9211 261.402 42.3526 260.16 43.0517C262.025 45.3736 263.272 48.2351 263.901 51.6362C264.534 55.0168 264.625 58.2112 264.176 61.2195C263.73 64.2072 263.181 66.6845 262.529 68.6514C261.877 70.6183 261.015 72.4381 259.944 74.1107C258.896 75.7657 257.681 77.1324 256.298 78.2108C253.354 80.5726 249.873 81.4535 245.855 80.8533C241.838 80.2531 237.66 78.6074 233.322 75.9162C232.107 76.5772 230.441 77.0866 228.323 77.4443C226.226 77.8051 224.302 77.8547 222.55 77.5931C219.027 77.0668 217.47 75.4334 217.879 72.693C218.119 71.0858 219.216 69.8804 221.168 69.0767C223.124 68.2524 225.441 68.0404 228.12 68.4405C230.819 68.8437 233.382 69.8795 235.807 71.5479C238.562 68.9049 240.995 65.0239 243.108 59.9049C243.957 57.8833 244.874 55.8399 245.856 53.7749C248.129 48.9958 251.54 45.124 256.091 42.1595C255.149 40.9868 253.823 39.9986 252.11 39.1951C250.421 38.3741 248.732 37.8374 247.042 37.585C243.107 36.9971 239.458 37.2419 236.095 38.3194C232.756 39.3794 229.918 41.3147 227.581 44.1253C225.244 46.936 223.764 50.4326 223.139 54.6154C222.686 57.6443 222.747 61.1184 223.32 65.0378ZM260.546 60.772C260.995 57.7637 260.963 54.8098 260.448 51.9103C259.954 49.0138 259.096 46.7161 257.876 45.0171C256.356 46.7281 254.91 49.4295 253.537 53.1213C251.156 59.6116 248.027 64.6947 244.15 68.3705C242.333 70.1002 240.262 71.6235 237.938 72.9404C241.607 75.5949 244.842 77.1315 247.644 77.55C250.488 77.9748 252.794 77.3399 254.564 75.6452C256.381 73.9156 257.727 71.7468 258.601 69.139C259.448 66.5693 260.097 63.7803 260.546 60.772ZM231.469 74.1542C228.821 72.5581 226.271 71.5769 223.82 71.2106C221.388 70.8474 220.06 71.4179 219.835 72.922C219.645 74.1995 220.682 75.0075 222.949 75.3461C224.226 75.5369 225.65 75.5283 227.218 75.3203C228.811 75.0948 230.228 74.7061 231.469 74.1542Z" fill="#D95F77"/>
<path d="M281.048 71.8522L285.416 73.1955L280.629 80.888C279.913 81.9551 279.406 82.974 279.107 83.9447C278.814 84.8968 278.836 85.4245 279.172 85.5279C279.508 85.6312 280.054 85.4825 280.811 85.0817C281.592 84.6681 282.28 84.2257 282.874 83.7546L283.794 83.0566L284.654 84.5469C283.67 85.5523 282.55 86.4033 281.294 87.0999C278.854 88.4544 276.953 88.9221 275.59 88.5031C273.985 88.0093 273.564 86.521 274.327 84.0381C274.454 83.6274 274.567 83.3251 274.668 83.1313C274.095 83.9972 273.304 84.6737 272.296 85.1607C270.367 86.1202 268.459 86.3101 266.573 85.7302C264.707 85.1561 263.399 84.0593 262.651 82.4396C261.927 80.807 261.86 79.0293 262.452 77.1065C263.37 74.1195 265.116 71.8978 267.689 70.4413C270.262 68.9848 272.855 68.6584 275.469 69.4622C276.776 69.864 277.746 70.561 278.381 71.5532C279.022 72.5267 279.295 73.6323 279.2 74.8701L281.048 71.8522ZM275.82 72.2062C274.738 71.8733 273.58 72.0178 272.346 72.6397C271.137 73.2488 270.083 74.1199 269.182 75.253C268.288 76.3674 267.654 77.5314 267.281 78.7449C266.908 79.9583 266.868 81.0188 267.161 81.9263C267.473 82.8395 268.179 83.4654 269.281 83.8042C270.401 84.1486 271.564 83.9546 272.77 83.222C275.066 81.8029 276.624 79.7586 277.445 77.089C278.266 74.4194 277.725 72.7918 275.82 72.2062Z" fill="#D95F77"/>
<path d="M288.641 82.7406L287.386 80.9084C288.982 79.7707 290.705 78.917 292.556 78.3474C294.425 77.7859 295.883 77.7452 296.931 78.2254C298.635 79.0066 299.137 80.1607 298.437 81.6877C298.145 82.3269 296.989 83.677 294.97 85.738C292.968 87.8072 291.817 89.1702 291.516 89.8272C291.215 90.4841 291.064 90.9306 291.063 91.1666C291.071 91.3848 291.225 91.5631 291.527 91.7015C293.143 92.442 295.08 92.5993 297.338 92.1732C299.621 91.7375 301.358 90.9008 302.549 89.6632L306.903 85.0846C307.351 84.6237 307.852 84.3271 308.407 84.1947C308.962 84.0623 309.426 84.0815 309.799 84.2524C310.189 84.4314 310.443 84.6982 310.56 85.0525C310.694 85.415 310.668 85.8005 310.481 86.2088C310.294 86.6172 310.019 87.0067 309.655 87.3773L304.921 92.362C302.208 95.3293 298.906 97.9625 295.016 100.262C296.96 101.411 298.613 102.609 299.975 103.856L299.078 105.25C296.856 103.63 294.824 102.344 292.983 101.392C290.243 102.822 287.667 103.779 285.254 104.263C282.85 104.773 280.974 104.718 279.624 104.1C278.293 103.49 277.425 102.759 277.02 101.907C276.589 101.065 276.59 100.174 277.021 99.2327C277.452 98.2917 278.202 97.5933 279.27 97.1376C280.331 96.6997 281.565 96.5136 282.975 96.5795C285.845 96.692 288.875 97.3934 292.065 98.6837C292.444 98.5135 293.495 97.7919 295.217 96.5187C296.947 95.2278 297.95 94.3767 298.224 93.9654C293.861 95.1882 290.481 95.2502 288.084 94.1516C287.107 93.704 286.548 93.05 286.405 92.1896C286.27 91.3115 286.427 90.3841 286.874 89.4076C287.322 88.4311 288.451 86.9289 290.261 84.9012C292.097 82.8638 293.089 81.6853 293.235 81.3658C293.39 81.0284 293.387 80.8231 293.227 80.7499C293.085 80.6848 292.905 80.6559 292.687 80.6633C292.477 80.6529 292.242 80.6958 291.984 80.792C291.75 80.8786 291.526 80.9692 291.311 81.0639C291.104 81.1408 290.85 81.2718 290.551 81.4567C290.269 81.6498 290.051 81.797 289.897 81.8983C289.256 82.3134 288.837 82.5941 288.641 82.7406ZM290.027 100.037C288.548 99.4671 286.965 99.0531 285.278 98.7956C282.028 98.294 280.15 98.5936 279.646 99.6944C279.344 100.351 279.602 100.867 280.419 101.241C281.236 101.616 282.84 101.631 285.232 101.288C287.615 100.963 289.214 100.546 290.027 100.037Z" fill="#D95F77"/>
</svg>
