<svg width="95" height="15" viewBox="0 0 95 15" fill="none" xmlns="http://www.w3.org/2000/svg">
<path d="M92.0382 11.8901C92.0382 13.0893 92.2825 13.6889 92.7713 13.6889C93.1362 13.6889 93.6673 13.1875 94.3646 12.1848L94.7849 12.5812C94.5568 13.0148 94.2831 13.4145 93.9638 13.7803C93.3578 14.4714 92.7941 14.8169 92.2728 14.8169C91.9078 14.8169 91.6081 14.6272 91.3735 14.2478C91.1389 13.8684 91.0216 13.4551 91.0216 13.008C90.7544 13.5839 90.396 14.031 89.9463 14.3494C89.5032 14.6611 89.0731 14.8169 88.656 14.8169C87.8023 14.8169 87.3755 14.4307 87.3755 13.6584C87.3755 13.4213 87.4504 13.2214 87.6003 13.0588C87.7437 12.8894 87.9196 12.8047 88.1282 12.8047C88.3432 12.8047 88.5126 12.8352 88.6365 12.8962C88.7668 12.9572 88.8645 13.0622 88.9297 13.2112C89.0275 13.428 89.1024 13.7363 89.1545 14.136C89.4152 14.136 89.6987 13.9192 90.005 13.4856C90.3112 13.052 90.5035 12.5202 90.5817 11.8901H89.0959L89.3207 11.5547H90.6012C90.6012 11.5276 90.6012 11.4362 90.6012 11.2803C90.6012 11.1177 90.598 10.9518 90.5915 10.7824C90.5849 10.613 90.5654 10.3996 90.5328 10.1421C90.4742 9.61367 90.321 9.34945 90.0734 9.34945C89.8257 9.34945 89.5162 9.5798 89.1448 10.0405C89.0275 10.1963 88.9167 10.3454 88.8124 10.4877C88.7081 10.6299 88.6495 10.7112 88.6365 10.7316C88.6234 10.7451 88.6104 10.762 88.5974 10.7824L87.9913 10.4064C88.858 9.14619 89.6596 8.51611 90.396 8.51611C90.989 8.51611 91.3995 8.92939 91.6276 9.75595C91.6797 9.9321 91.7156 10.1015 91.7351 10.2641C92.3542 9.09877 93.1297 8.51611 94.0616 8.51611C94.3222 8.51611 94.5438 8.59064 94.7263 8.73969C94.9087 8.88874 95 9.10893 95 9.40026C95 9.68481 94.9315 9.92194 94.7947 10.1116C94.6644 10.2946 94.4819 10.386 94.2473 10.386C94.0127 10.386 93.8074 10.3081 93.6315 10.1523C93.4555 9.98969 93.335 9.83048 93.2698 9.67465L93.1623 9.43075C92.8234 9.6611 92.5497 9.96937 92.3412 10.3555C92.1392 10.7417 92.0382 11.1415 92.0382 11.5547H93.436L93.563 11.8901H92.0382Z" fill="#D4B45D"/>
<path d="M85.4349 8.73969H86.9598L86.1875 11.7783C86.0637 12.2051 86.0018 12.5947 86.0018 12.947C86.0018 13.2925 86.0605 13.4653 86.1778 13.4653C86.2951 13.4653 86.4547 13.3603 86.6567 13.1503C86.8653 12.9335 87.0412 12.7167 87.1846 12.4999L87.4094 12.1747L87.8297 12.5812C87.6147 13.0148 87.341 13.4111 87.0086 13.7702C86.3635 14.468 85.8031 14.8169 85.3273 14.8169C84.7669 14.8169 84.4867 14.3664 84.4867 13.4653C84.4867 13.3162 84.4932 13.2045 84.5062 13.1299C84.4085 13.4755 84.2228 13.7803 83.9491 14.0446C83.4277 14.5595 82.838 14.8169 82.1798 14.8169C81.5281 14.8169 81.0035 14.5866 80.606 14.1259C80.215 13.6584 80.0195 13.0757 80.0195 12.3779C80.0195 11.2939 80.3584 10.3793 81.0361 9.634C81.7139 8.88874 82.5089 8.51611 83.4212 8.51611C83.8774 8.51611 84.2554 8.64823 84.5551 8.91245C84.8549 9.16991 85.0504 9.50866 85.1416 9.92871L85.4349 8.73969ZM83.8024 9.3901C83.4245 9.3901 83.0693 9.55609 82.737 9.88806C82.4111 10.2133 82.1603 10.6096 81.9843 11.0771C81.8084 11.5378 81.7204 11.9883 81.7204 12.4287C81.7204 12.8691 81.8116 13.2248 81.9941 13.4958C82.1831 13.7668 82.4698 13.9023 82.8543 13.9023C83.2453 13.9023 83.5972 13.7194 83.91 13.3535C84.503 12.6489 84.7995 11.8122 84.7995 10.8433C84.7995 9.87451 84.4671 9.3901 83.8024 9.3901Z" fill="#D4B45D"/>
<path d="M80.2973 1.13818H81.8809C81.6007 1.63954 81.1706 2.75404 80.5906 4.48168C80.0106 6.20255 79.4795 7.93696 78.9973 9.68493C78.5215 11.4261 78.2837 12.4932 78.2837 12.8862C78.2837 13.2723 78.3293 13.4654 78.4205 13.4654C78.6942 13.4654 79.1211 13.0352 79.7011 12.1748L80.1116 12.5813C79.8249 13.0962 79.5153 13.5298 79.183 13.8821C78.5965 14.5054 78.1208 14.817 77.7558 14.817C77.0911 14.817 76.7588 14.4004 76.7588 13.567C76.7588 12.3272 77.153 10.3726 77.9416 7.70322C78.7366 5.03385 79.5218 2.8455 80.2973 1.13818Z" fill="#D4B45D"/>
<path d="M72.1594 12.6523C72.1985 13.4314 72.7036 13.821 73.6746 13.821C74.033 13.821 74.4044 13.716 74.7889 13.506C75.1799 13.2891 75.496 13.0351 75.7371 12.7438L76.1574 13.0283C75.6165 13.97 74.7531 14.5459 73.567 14.756C73.3064 14.7966 73.0555 14.8169 72.8144 14.8169C72.1106 14.8169 71.5241 14.5764 71.0549 14.0954C70.5857 13.6076 70.3511 13.0148 70.3511 12.3169C70.3511 11.6191 70.5563 10.9755 70.9669 10.386C71.3774 9.78983 71.889 9.32912 72.5016 9.00392C73.1207 8.67871 73.73 8.51611 74.3295 8.51611C74.929 8.51611 75.4471 8.65839 75.8837 8.94294C76.3268 9.2275 76.5517 9.61029 76.5582 10.0913C76.5712 10.5723 76.4376 10.989 76.1574 11.3413C75.8772 11.6868 75.522 11.9511 75.0919 12.134C74.2383 12.4931 73.4009 12.6726 72.5798 12.6726L72.1594 12.6523ZM72.1008 12.0933C72.8241 12.0662 73.4041 11.9477 73.8407 11.7377C74.2839 11.5209 74.5902 11.277 74.7596 11.006C74.9355 10.7282 75.0235 10.4402 75.0235 10.1421C75.0235 9.83725 74.9486 9.61367 74.7987 9.4714C74.6488 9.32235 74.4891 9.24782 74.3197 9.24782C73.9026 9.24782 73.5182 9.40026 73.1663 9.70514C72.8209 10.0032 72.557 10.3691 72.3745 10.8027C72.192 11.2295 72.1008 11.6597 72.1008 12.0933Z" fill="#D4B45D"/>
<path d="M70.179 12.4898L70.7948 12.8049C70.5993 13.3333 70.3549 13.7602 70.0617 14.0854C69.5404 14.6612 68.9506 14.9492 68.2924 14.9492C67.6864 14.9492 67.1553 14.5596 66.6991 13.7805C66.3472 13.1775 66.0539 12.5271 65.8193 11.8293C65.5847 11.1247 65.4023 10.603 65.2719 10.2642C64.9787 9.48509 64.692 9.09553 64.4118 9.09553C63.7862 11.0738 62.8575 12.5542 61.6259 13.5366C60.4008 14.5122 58.9215 15 57.188 15C56.1454 15 55.2168 14.7629 54.4022 14.2886C53.9916 14.0583 53.6625 13.7466 53.4149 13.3537C53.1673 12.9539 53.0435 12.4831 53.0435 11.9411C53.0435 11.3991 53.177 10.8909 53.4442 10.4167C53.7114 9.94241 54.0633 9.55962 54.4999 9.26829C55.3992 8.65176 56.4126 8.3435 57.5399 8.3435C57.579 6.5481 58.1623 4.92547 59.2897 3.47561C60.4301 1.99864 61.7888 0.982385 63.3658 0.426829C64.1869 0.142276 64.9396 0 65.6238 0C66.3081 0 66.8979 0.0711382 67.3931 0.213415C67.8884 0.348916 68.3478 0.552168 68.7714 0.823171C69.195 1.09417 69.5338 1.46341 69.788 1.93089C70.0487 2.39837 70.179 2.9336 70.179 3.53659C70.179 4.13279 70.0682 4.70867 69.8466 5.26423C69.6316 5.81301 69.3286 6.30759 68.9376 6.74797C68.2077 7.57453 67.2791 8.28252 66.1517 8.87195C66.5948 9.25135 67.0771 10.1694 67.5984 11.626C67.7874 12.1409 68.0089 12.6016 68.2631 13.0081C68.5172 13.4146 68.7746 13.6179 69.0353 13.6179C69.2895 13.6179 69.5013 13.5027 69.6707 13.2724C69.8857 12.981 70.0552 12.7202 70.179 12.4898ZM58.6445 11.4736L58.0482 11.6159C57.8918 11.2974 57.7452 10.7249 57.6084 9.89837L57.5399 9.49187C56.4582 9.49187 55.497 9.7561 54.6563 10.2846C54.3761 10.4675 54.1415 10.7046 53.9525 10.9959C53.7701 11.2873 53.6788 11.6226 53.6788 12.002C53.6788 12.3814 53.7798 12.7304 53.9819 13.0488C54.1839 13.3604 54.4543 13.6043 54.7932 13.7805C55.4579 14.1396 56.1975 14.3191 57.0121 14.3191C58.4067 14.3191 59.5275 13.9329 60.3747 13.1606C61.2219 12.3882 61.88 11.2839 62.3492 9.84756C62.447 9.54946 62.5741 9.14295 62.7305 8.62805C62.8934 8.10637 63.0237 7.69309 63.1215 7.38821C63.2192 7.07656 63.3528 6.69038 63.5222 6.22967C63.6917 5.7622 63.8481 5.37263 63.9914 5.06098C64.1348 4.74932 64.3173 4.39702 64.5388 4.00407C64.7669 3.61111 65.0015 3.26558 65.2426 2.96748C65.8226 2.26287 66.4612 1.6836 67.1585 1.22967C67.0021 1.13482 66.7154 1.05014 66.2983 0.97561C65.8813 0.894309 65.4446 0.853658 64.9885 0.853658C64.213 0.853658 63.4114 1.07046 62.5838 1.50407C61.7627 1.93767 61.0264 2.5 60.3747 3.19106C59.723 3.88211 59.1821 4.69173 58.752 5.61992C58.3285 6.5481 58.1134 7.4729 58.1069 8.39431C59.5406 8.60434 60.6679 9.25474 61.489 10.3455L61.1665 10.7012C61.1274 10.6809 61.0198 10.6098 60.8439 10.4878C60.6679 10.3591 60.4952 10.2473 60.3258 10.1524C60.1629 10.0576 59.9641 9.95257 59.7295 9.8374C59.2343 9.5935 58.6934 9.47154 58.1069 9.47154C58.1395 9.91192 58.234 10.3523 58.3904 10.7927C58.5533 11.2263 58.638 11.4533 58.6445 11.4736ZM64.4509 8.89228C65.6173 8.51287 66.5818 7.8794 67.3442 6.99187C68.1132 6.10434 68.4977 5.05759 68.4977 3.85163C68.4977 3.43835 68.4195 3.02168 68.2631 2.60163C68.1067 2.1748 67.8916 1.84282 67.6179 1.60569C66.8946 2.14092 66.357 2.75068 66.0051 3.43496C65.8031 3.82791 65.6401 4.15989 65.5163 4.43089C65.3925 4.69512 65.2654 5.09485 65.1351 5.63008C64.9722 6.28726 64.8256 6.95461 64.6952 7.63211C64.5649 8.30285 64.4834 8.7229 64.4509 8.89228Z" fill="#D4B45D"/>
<path d="M43.2383 12.2356C43.2383 11.7275 43.3556 11.2397 43.5902 10.7722C43.8313 10.298 44.1408 9.89823 44.5188 9.57302C45.3529 8.86842 46.2034 8.51611 47.0701 8.51611C47.9368 8.51611 48.6471 8.75663 49.201 9.23766C49.7549 9.71869 50.0319 10.3217 50.0319 11.0466C50.0319 11.7648 49.8396 12.4118 49.4552 12.9877C49.0772 13.5635 48.5754 14.0141 47.9498 14.3393C47.3242 14.6577 46.64 14.8169 45.8971 14.8169C45.1607 14.8169 44.5318 14.5764 44.0105 14.0954C43.4957 13.6076 43.2383 12.9877 43.2383 12.2356ZM46.4347 14.1868C46.7345 14.1868 47.0147 14.0852 47.2753 13.882C47.5425 13.6787 47.7445 13.4145 47.8814 13.0893C48.1486 12.466 48.2822 11.8223 48.2822 11.1584C48.2822 10.4944 48.1649 9.99308 47.9303 9.65432C47.6957 9.3088 47.3633 9.13603 46.9332 9.13603C46.5031 9.13603 46.0763 9.42736 45.6527 10.01C45.2356 10.5927 45.0271 11.3345 45.0271 12.2356C45.0271 13.5364 45.4963 14.1868 46.4347 14.1868Z" fill="#D4B45D"/>
<path d="M40.779 8.73963C41.4502 6.57161 42.1345 4.7559 42.8317 3.29248L44.0438 3.39411C43.9722 3.61091 43.7962 4.13259 43.516 4.95915C42.9099 6.78164 42.5189 8.0418 42.343 8.73963H43.8777L43.7213 9.41037H42.1377C41.5382 11.3345 41.2384 12.5066 41.2384 12.9266C41.2384 13.3399 41.2775 13.5465 41.3557 13.5465C41.4404 13.5465 41.5154 13.5296 41.5805 13.4957C41.7565 13.3941 42.1345 12.8995 42.7144 12.012L43.1152 12.388C42.6786 13.2146 42.229 13.8277 41.7663 14.2274C41.3036 14.6204 40.9224 14.8169 40.6226 14.8169C40.3228 14.8169 40.0948 14.7085 39.9384 14.4917C39.7885 14.2749 39.7135 13.9971 39.7135 13.6583C39.7135 12.7979 40.0035 11.3819 40.5835 9.41037H39.5571L39.7135 8.73963H40.779Z" fill="#D4B45D"/>
<path d="M32.1277 12.6523C32.1668 13.4314 32.6718 13.821 33.6428 13.821C34.0012 13.821 34.3727 13.716 34.7572 13.506C35.1482 13.2891 35.4642 13.0351 35.7053 12.7438L36.1257 13.0283C35.5848 13.97 34.7213 14.5459 33.5353 14.756C33.2746 14.7966 33.0237 14.8169 32.7826 14.8169C32.0788 14.8169 31.4923 14.5764 31.0231 14.0954C30.5539 13.6076 30.3193 13.0148 30.3193 12.3169C30.3193 11.6191 30.5246 10.9755 30.9352 10.386C31.3457 9.78983 31.8573 9.32912 32.4698 9.00392C33.0889 8.67871 33.6982 8.51611 34.2978 8.51611C34.8973 8.51611 35.4154 8.65839 35.852 8.94294C36.2951 9.2275 36.5199 9.61029 36.5264 10.0913C36.5395 10.5723 36.4059 10.989 36.1257 11.3413C35.8455 11.6868 35.4903 11.9511 35.0602 12.134C34.2065 12.4931 33.3691 12.6726 32.548 12.6726L32.1277 12.6523ZM32.0691 12.0933C32.7924 12.0662 33.3724 11.9477 33.809 11.7377C34.2521 11.5209 34.5584 11.277 34.7279 11.006C34.9038 10.7282 34.9918 10.4402 34.9918 10.1421C34.9918 9.83725 34.9168 9.61367 34.767 9.4714C34.6171 9.32235 34.4574 9.24782 34.288 9.24782C33.8709 9.24782 33.4864 9.40026 33.1345 9.70514C32.7891 10.0032 32.5252 10.3691 32.3428 10.8027C32.1603 11.2295 32.0691 11.6597 32.0691 12.0933Z" fill="#D4B45D"/>
<path d="M23.6275 14.6543H22.1808L22.3665 13.9836C22.4316 13.7194 22.5489 13.3332 22.7184 12.8251C23.0963 11.7207 23.2853 10.8603 23.2853 10.2438C23.2853 9.97953 23.1778 9.84741 22.9628 9.84741C22.6956 9.84741 22.3795 10.0134 22.0146 10.3454C21.6562 10.6706 21.3108 11.0703 20.9784 11.5446C20.4245 12.3373 19.8771 13.2112 19.3362 14.1665L19.0625 14.6543H17.6843C17.6843 14.6543 17.7853 14.3359 17.9873 13.699C18.5542 11.9375 18.8377 10.8942 18.8377 10.569C18.8377 10.237 18.7856 10.071 18.6813 10.071C18.4923 10.071 18.2675 10.3047 18.0068 10.7722C17.9482 10.8806 17.8993 10.9687 17.8602 11.0364C17.8211 11.0974 17.7755 11.1753 17.7234 11.2702C17.6778 11.3583 17.6484 11.4125 17.6354 11.4328L16.9805 11.0364C17.4888 10.176 17.9547 9.54254 18.3783 9.13603C18.8019 8.72275 19.2352 8.51611 19.6784 8.51611C19.8804 8.51611 20.0531 8.60419 20.1964 8.78034C20.3463 8.95649 20.4213 9.16652 20.4213 9.41042C20.4213 9.64755 20.4082 9.86096 20.3822 10.0507C20.3561 10.2336 20.3268 10.403 20.2942 10.5588C20.2616 10.7146 20.216 10.9009 20.1573 11.1177C20.0987 11.3345 20.0498 11.5005 20.0107 11.6157C19.9781 11.7309 19.9325 11.8867 19.8739 12.0832C19.8152 12.2797 19.7794 12.3948 19.7663 12.4287C19.8967 12.1916 20.1085 11.8359 20.4017 11.3616C20.695 10.8874 20.8872 10.5893 20.9784 10.4673C21.0762 10.3386 21.2033 10.176 21.3597 9.97953C21.5161 9.77628 21.6529 9.61706 21.7702 9.50189C21.894 9.38671 22.0406 9.25798 22.2101 9.11571C22.3795 8.97343 22.5392 8.86503 22.6891 8.7905C23.054 8.60758 23.4222 8.51611 23.7936 8.51611C24.1716 8.51611 24.4583 8.6279 24.6538 8.85148C24.8493 9.06828 24.9471 9.32573 24.9471 9.62384C24.9471 9.91516 24.9015 10.22 24.8102 10.5385C24.7255 10.8569 24.605 11.2295 24.4486 11.6564C24.2922 12.0764 24.1911 12.361 24.1455 12.51C24.7711 11.4531 25.2501 10.7078 25.5824 10.2742C26.4883 9.10216 27.3843 8.51611 28.2706 8.51611C28.7072 8.51611 29.02 8.62451 29.209 8.84132C29.3979 9.05812 29.4924 9.35283 29.4924 9.72546C29.4924 10.0981 29.3393 10.718 29.033 11.5852C28.7267 12.4457 28.5736 12.9741 28.5736 13.1706C28.5736 13.3671 28.6322 13.4653 28.7495 13.4653C29.0102 13.4653 29.424 13.0351 29.991 12.1747L30.4113 12.5812C30.0268 13.2925 29.6032 13.8447 29.1405 14.2377C28.6779 14.6238 28.2803 14.8169 27.948 14.8169C27.6222 14.8169 27.3941 14.7051 27.2637 14.4816C27.1334 14.258 27.0682 13.9938 27.0682 13.6889C27.0682 13.3772 27.1986 12.8318 27.4592 12.0527C27.7199 11.2668 27.8502 10.6638 27.8502 10.2438C27.8502 9.97953 27.7362 9.84741 27.5081 9.84741C26.8565 9.84741 25.9148 10.84 24.6832 12.8251C24.1814 13.6313 23.8295 14.241 23.6275 14.6543Z" fill="#D4B45D"/>
<path d="M15.0096 14.8172C14.7359 14.8172 14.5208 14.7291 14.3644 14.5529C14.208 14.3768 14.1298 14.1363 14.1298 13.8314C14.1298 13.5198 14.2048 13.0997 14.3547 12.5712C14.5111 12.036 14.6642 11.5516 14.8141 11.118C14.9705 10.6844 15.0487 10.3964 15.0487 10.2542C15.0487 10.1051 15.0031 10.0306 14.9118 10.0306C14.6838 10.0306 14.3156 10.4981 13.8073 11.433L13.1523 11.0367C14.1103 9.35647 14.99 8.51636 15.7916 8.51636C16.339 8.51636 16.6127 8.87544 16.6127 9.5936C16.6127 9.80363 16.5475 10.139 16.4172 10.5997L15.7134 12.6932C15.6417 12.8897 15.6059 13.0692 15.6059 13.2318C15.6059 13.3876 15.6645 13.4656 15.7818 13.4656C16.0034 13.4656 16.4107 13.0387 17.0037 12.1851L17.4142 12.5814C17.0623 13.2589 16.642 13.8009 16.1533 14.2074C15.671 14.6139 15.2898 14.8172 15.0096 14.8172ZM17.7955 5.5184C17.7955 5.7894 17.7075 6.03669 17.5315 6.26027C17.3556 6.48384 17.1177 6.59563 16.818 6.59563C16.5182 6.59563 16.2934 6.50417 16.1435 6.32124C15.9936 6.13154 15.9187 5.89441 15.9187 5.60986C15.9187 5.32531 16.0099 5.07463 16.1924 4.85783C16.3813 4.63425 16.6225 4.52246 16.9157 4.52246C17.209 4.52246 17.4273 4.6207 17.5706 4.81718C17.7205 5.00688 17.7955 5.24062 17.7955 5.5184Z" fill="#D4B45D"/>
<path d="M7.16506 10.5285C6.20711 10.0068 5.29478 9.74593 4.42806 9.74593C3.56135 9.74593 2.85755 9.97967 2.31667 10.4472C1.77579 10.9079 1.50535 11.4499 1.50535 12.0732C1.50535 12.6965 1.76927 13.2317 2.29712 13.6789C2.83149 14.1192 3.52877 14.3394 4.38897 14.3394C5.25568 14.3394 5.98554 14.2344 6.57856 14.0244C7.17809 13.8144 7.67336 13.523 8.06436 13.1504C8.46187 12.771 8.804 12.334 9.09073 11.8394C9.38398 11.3449 9.62509 10.8028 9.81408 10.2134C10.0096 9.62398 10.1855 9.02439 10.3419 8.41463C10.4983 7.7981 10.658 7.17141 10.8209 6.53455C10.9903 5.89092 11.1695 5.28455 11.3585 4.71545C11.7821 3.43496 12.3882 2.43902 13.1767 1.72764C11.9255 1.39566 10.6091 1.22967 9.22758 1.22967C8.44558 1.22967 7.7092 1.45325 7.01843 1.90041C6.32767 2.34079 5.77375 2.93699 5.35669 3.68902C4.94614 4.44106 4.74086 5.271 4.74086 6.17886C4.74086 7.08672 4.98524 7.8523 5.47399 8.47561C5.96925 9.09892 6.67305 9.6477 7.58538 10.122L7.44853 10.6402L7.16506 10.5285ZM1.57377 14.3089C1.11109 14.0989 0.733123 13.8008 0.439874 13.4146C0.146625 13.0217 0 12.5745 0 12.0732C0 11.565 0.120558 11.1111 0.361674 10.7114C0.60279 10.3117 0.91559 9.99661 1.30007 9.76626C2.10162 9.29201 2.97485 9.05488 3.91977 9.05488C4.40851 9.05488 4.85816 9.12602 5.26871 9.26829C4.38245 8.10976 3.93932 7.04607 3.93932 6.07724C3.93932 4.6748 4.41177 3.44512 5.35669 2.38821C6.27554 1.36518 7.36056 0.663957 8.61176 0.284553C9.24387 0.0948509 9.86295 0 10.469 0C11.075 0 11.9515 0.135501 13.0985 0.406504C14.2454 0.677507 15.0046 0.813008 15.376 0.813008C15.7475 0.813008 16.0082 0.76897 16.158 0.680894C16.3601 0.565718 16.5979 0.345528 16.8716 0.0203252H17.6145C17.5298 0.386179 17.3571 0.701219 17.0964 0.965447C16.8358 1.22967 16.536 1.42276 16.1971 1.54472C15.565 1.76829 14.9655 1.88008 14.3985 1.88008C13.584 1.88008 13.0366 2.89634 12.7563 4.92886C12.6847 5.46409 12.613 6.22629 12.5413 7.21545C12.4696 8.20461 12.3034 9.08198 12.0428 9.84756C11.7886 10.6131 11.4595 11.2669 11.0555 11.8089C10.658 12.3509 10.2051 12.8286 9.69678 13.2419C9.195 13.6484 8.6476 13.9736 8.05458 14.2175C6.90113 14.6917 5.67926 14.9289 4.38897 14.9289C3.41147 14.9289 2.47307 14.7222 1.57377 14.3089Z" fill="#D4B45D"/>
</svg>
