<svg width="432" height="185" viewBox="0 0 432 185" fill="none" xmlns="http://www.w3.org/2000/svg">
<path d="M264.631 22.5612L270.014 9.69678H273.395L262.63 33.7349H259.21L262.824 25.651L256.256 9.69678H259.695L264.631 22.5612Z" fill="white"/>
<path d="M240.588 33.735H237.226V9.69685H240.646V12.6895C240.763 12.2879 241.087 11.815 241.618 11.2709C242.149 10.7268 242.862 10.2539 243.756 9.85231C244.663 9.43775 245.699 9.23047 246.865 9.23047C248.342 9.23047 249.65 9.58673 250.79 10.2993C251.943 10.9988 252.844 11.9834 253.491 13.253C254.152 14.5097 254.482 15.9865 254.482 17.6837C254.482 19.3808 254.146 20.8641 253.472 22.1337C252.798 23.3904 251.879 24.3685 250.713 25.0681C249.56 25.7676 248.238 26.1174 246.748 26.1174C245.543 26.1174 244.488 25.8907 243.581 25.4373C242.687 24.9839 241.981 24.4721 241.463 23.9021C240.957 23.3321 240.666 22.8787 240.588 22.5418V33.735ZM251.14 17.6837C251.14 16.5307 250.9 15.5331 250.421 14.691C249.955 13.849 249.333 13.1947 248.556 12.7283C247.778 12.262 246.936 12.0288 246.029 12.0288C245.032 12.0288 244.125 12.2684 243.309 12.7478C242.493 13.2142 241.845 13.8749 241.365 14.7299C240.886 15.572 240.646 16.5566 240.646 17.6837C240.646 18.8108 240.886 19.8018 241.365 20.6569C241.845 21.4989 242.493 22.1532 243.309 22.6196C244.125 23.0859 245.032 23.3191 246.029 23.3191C246.936 23.3191 247.778 23.0924 248.556 22.639C249.333 22.1726 249.955 21.5184 250.421 20.6763C250.9 19.8342 251.14 18.8367 251.14 17.6837Z" fill="white"/>
<path d="M219.751 33.735H216.389V9.69685H219.81V12.6895C219.926 12.2879 220.25 11.815 220.781 11.2709C221.312 10.7268 222.025 10.2539 222.919 9.85231C223.826 9.43775 224.862 9.23047 226.028 9.23047C227.505 9.23047 228.813 9.58673 229.953 10.2993C231.106 10.9988 232.007 11.9834 232.655 13.253C233.315 14.5097 233.646 15.9865 233.646 17.6837C233.646 19.3808 233.309 20.8641 232.635 22.1337C231.961 23.3904 231.042 24.3685 229.876 25.0681C228.723 25.7676 227.401 26.1174 225.911 26.1174C224.707 26.1174 223.651 25.8907 222.744 25.4373C221.85 24.9839 221.144 24.4721 220.626 23.9021C220.12 23.3321 219.829 22.8787 219.751 22.5418V33.735ZM230.303 17.6837C230.303 16.5307 230.064 15.5331 229.584 14.691C229.118 13.849 228.496 13.1947 227.719 12.7283C226.941 12.262 226.099 12.0288 225.192 12.0288C224.195 12.0288 223.288 12.2684 222.472 12.7478C221.656 13.2142 221.008 13.8749 220.529 14.7299C220.049 15.572 219.81 16.5566 219.81 17.6837C219.81 18.8108 220.049 19.8018 220.529 20.6569C221.008 21.4989 221.656 22.1532 222.472 22.6196C223.288 23.0859 224.195 23.3191 225.192 23.3191C226.099 23.3191 226.941 23.0924 227.719 22.639C228.496 22.1726 229.118 21.5184 229.584 20.6763C230.064 19.8342 230.303 18.8367 230.303 17.6837Z" fill="white"/>
<path d="M208.509 25.651V22.5418C208.406 22.8657 208.101 23.3127 207.596 23.8827C207.104 24.4527 206.424 24.9709 205.556 25.4373C204.701 25.8907 203.69 26.1174 202.524 26.1174C201.047 26.1174 199.706 25.7676 198.502 25.0681C197.31 24.3685 196.358 23.3904 195.645 22.1337C194.945 20.8641 194.596 19.3808 194.596 17.6837C194.596 15.9865 194.945 14.5097 195.645 13.253C196.358 11.9834 197.31 10.9988 198.502 10.2993C199.706 9.58673 201.047 9.23047 202.524 9.23047C203.677 9.23047 204.675 9.43775 205.517 9.85231C206.372 10.2669 207.052 10.7462 207.557 11.2903C208.075 11.8344 208.38 12.3008 208.471 12.6895V9.69685H211.813V25.651H208.509ZM197.938 17.6837C197.938 18.8367 198.191 19.8342 198.696 20.6763C199.201 21.5184 199.855 22.1726 200.659 22.639C201.475 23.0924 202.343 23.3191 203.263 23.3191C204.247 23.3191 205.128 23.0859 205.905 22.6196C206.683 22.1532 207.298 21.4989 207.752 20.6569C208.205 19.8018 208.432 18.8108 208.432 17.6837C208.432 16.5566 208.205 15.572 207.752 14.7299C207.298 13.8749 206.683 13.2142 205.905 12.7478C205.128 12.2684 204.247 12.0288 203.263 12.0288C202.343 12.0288 201.475 12.262 200.659 12.7283C199.855 13.1947 199.201 13.849 198.696 14.691C198.191 15.5331 197.938 16.5307 197.938 17.6837Z" fill="white"/>
<path d="M187.284 14.283H174.984V25.6511H171.699V0H174.984V11.2904H187.284V0H190.569V25.6511H187.284V14.283Z" fill="white"/>
<path d="M304.907 164.6L305.09 164.634V183.888H302.242V161.902H306.256L317.666 181.14L317.482 181.173V161.902H320.331V183.888H316.283L304.907 164.6Z" fill="white"/>
<path d="M280.454 161.902H283.419L291.548 183.888H288.5L286.601 178.592H277.273L275.341 183.888H272.293L280.454 161.902ZM278.189 176.027H285.701L281.97 165.4H281.92L278.189 176.027Z" fill="white"/>
<path d="M258.181 174.144H247.637V183.888H244.822V161.902H247.637V171.579H258.181V161.902H260.996V183.888H258.181V174.144Z" fill="white"/>
<path d="M228.952 161.902H231.817V183.888H228.952V161.902Z" fill="white"/>
<path d="M201.896 161.902H209.574C210.762 161.902 211.839 162.152 212.806 162.651C213.783 163.14 214.56 163.862 215.137 164.817C215.726 165.761 216.02 166.915 216.02 168.281C216.02 169.636 215.748 170.758 215.204 171.646C214.671 172.534 214.027 173.206 213.272 173.661C212.517 174.106 211.817 174.35 211.173 174.394L216.62 183.888H213.389L208.292 174.594H204.744V183.888H201.896V161.902ZM204.744 172.479H208.575C209.885 172.479 210.968 172.151 211.823 171.496C212.678 170.841 213.105 169.792 213.105 168.348C213.105 166.904 212.678 165.866 211.823 165.233C210.979 164.6 209.902 164.284 208.591 164.284H204.744V172.479Z" fill="white"/>
<path d="M171.359 172.878C171.359 174.511 171.698 175.982 172.375 177.292C173.063 178.603 174.007 179.646 175.207 180.424C176.406 181.19 177.783 181.573 179.337 181.573C180.903 181.573 182.28 181.19 183.468 180.424C184.667 179.646 185.606 178.603 186.283 177.292C186.96 175.982 187.299 174.511 187.299 172.878C187.299 171.246 186.96 169.78 186.283 168.481C185.606 167.171 184.667 166.132 183.468 165.366C182.28 164.6 180.903 164.217 179.337 164.217C177.783 164.217 176.406 164.6 175.207 165.366C174.007 166.132 173.063 167.171 172.375 168.481C171.698 169.78 171.359 171.246 171.359 172.878ZM168.411 172.878C168.411 171.279 168.683 169.791 169.227 168.414C169.782 167.026 170.554 165.816 171.542 164.783C172.53 163.751 173.685 162.946 175.007 162.368C176.339 161.791 177.783 161.502 179.337 161.502C180.903 161.502 182.347 161.791 183.668 162.368C185.001 162.946 186.155 163.751 187.133 164.783C188.121 165.816 188.887 167.026 189.431 168.414C189.975 169.791 190.247 171.279 190.247 172.878C190.247 174.489 189.975 175.988 189.431 177.376C188.898 178.753 188.138 179.963 187.149 181.007C186.172 182.039 185.023 182.845 183.701 183.422C182.38 183.999 180.925 184.288 179.337 184.288C177.749 184.288 176.284 183.999 174.94 183.422C173.607 182.845 172.453 182.039 171.475 181.007C170.498 179.963 169.743 178.753 169.21 177.376C168.677 175.988 168.411 174.489 168.411 172.878Z" fill="white"/>
<path d="M156.508 161.902V183.888H153.676V168.015L153.826 165.583L153.226 168.265L147.93 182.639H145.115L139.818 168.265L139.235 165.583L139.368 168.015V183.888H136.52V161.902H140.317L146.314 179.158L146.514 180.274L146.73 179.158L152.743 161.902H156.508Z" fill="white"/>
<path d="M95.9623 104.869L98.5955 105.521C98.8551 108.869 98.5042 111.898 97.5429 114.608C96.5816 117.319 95.1769 119.129 93.3287 120.04C91.4806 120.951 89.8617 121.008 88.472 120.212C87.1066 119.404 85.9745 118.088 85.0757 116.264C84.1769 114.44 83.2921 111.234 82.4213 106.646C81.5749 102.046 80.9036 97.5566 80.4075 93.1769C79.1413 81.4697 77.8131 74.2056 76.4229 71.3848C75.62 69.7555 74.6957 69.1985 73.65 69.7138C69.4917 71.7631 67.6137 81.0153 68.016 97.4702C68.1718 104.103 68.4371 109.609 68.812 113.988C69.6322 123.135 70.116 128.593 70.2634 130.364L62.1292 134.373L61.1707 123.965C60.1614 111.859 58.4478 100.992 56.03 91.3633C55.1296 87.6966 54.1881 84.8662 53.2054 82.8721C51.7074 79.8324 50.1559 78.7081 48.551 79.499C46.946 80.29 45.7395 82.4108 44.9316 85.8616C44.1116 89.288 43.6824 93.2926 43.6439 97.8754C43.6053 102.458 43.7166 107.345 43.9777 112.536C44.2387 117.726 44.5932 122.493 45.041 126.836C46.1225 136.942 46.6146 142.019 46.5173 142.067L39.3679 145.59L37.8267 132.16C36.8365 120.951 35.4124 112.45 33.5544 106.656C32.7091 103.959 31.6453 101.31 30.363 98.7082C29.0807 96.1062 27.3394 94.2593 25.139 93.1676C22.9267 92.0515 20.6533 92.0687 18.3188 93.2192C15.9843 94.3697 14.2116 95.8629 13.0008 97.6988C11.8022 99.4984 11.0273 101.422 10.676 103.469C10.3247 105.516 10.2336 107.661 10.4025 109.905C10.6815 114.09 11.6359 117.835 13.2658 121.143C16.7532 128.219 21.4382 133.647 27.321 137.428L26.3277 139.368C23.1987 137.434 20.3153 134.956 17.6775 131.934C15.052 128.876 13.0981 126.046 11.8158 123.444C10.5335 120.842 9.59552 118.448 9.0019 116.262C8.3963 114.052 8.04004 111.704 7.93312 109.218C7.8262 106.732 8.03983 104.375 8.57401 102.147C9.12053 99.8831 10.1816 97.7432 11.7573 95.7275C13.3452 93.6755 15.2822 92.0863 17.568 90.9598C19.8539 89.8333 21.9907 89.3242 23.9784 89.4327C25.9905 89.5292 27.8119 90.0974 29.4427 91.1373C32.656 93.1806 35.2873 96.2814 37.3366 100.44C39.3859 104.598 41.0689 111.294 42.3858 120.528C42.1111 117.702 41.9467 115.713 41.8928 114.56C41.8631 113.396 41.7985 111.977 41.699 110.304C41.6239 108.618 41.5648 107.302 41.5217 106.356C41.4667 105.386 41.4203 103.973 41.3825 102.118C41.3327 100.238 41.3234 98.6865 41.3548 97.4621C41.3984 96.2014 41.4739 94.6681 41.5813 92.8622C41.701 91.02 41.8737 89.4691 42.0991 88.2095C42.3246 86.9499 42.6234 85.5937 42.9955 84.1409C43.38 82.6518 43.8358 81.3996 44.363 80.3842C45.5404 78.051 47.0045 76.453 48.7553 75.5901C52.8893 73.5528 56.3225 75.3063 59.0549 80.8508C60.7806 84.3525 62.2268 89.0347 63.3933 94.8975C63.7821 96.8517 64.2402 99.4065 64.7677 102.562C65.3074 105.681 65.6245 107.459 65.719 107.896C65.8182 105.399 65.7005 101.634 65.3658 96.6002C65.0311 91.5667 64.9271 87.5226 65.0538 84.4681C65.1805 81.4135 65.481 78.7115 65.9552 76.3621C66.4295 74.0127 67.2969 71.8172 68.5575 69.7754C69.8424 67.7217 71.3846 66.2514 73.1841 65.3646C75.0079 64.4658 76.7303 64.3423 78.3511 64.9943C79.9964 65.6342 81.2983 66.9269 82.2571 68.8723C83.2158 70.8177 84.0438 73.3565 84.7411 76.4885C85.4264 79.5963 85.9476 82.7698 86.3048 86.009C86.662 89.2483 87.0132 92.4754 87.3584 95.6903C88.15 103.491 89.3596 109.257 90.987 112.988C91.7539 114.545 92.5387 115.125 93.3412 114.73C94.168 114.322 94.7931 113.138 95.2166 111.176C95.6402 109.214 95.8887 107.112 95.9623 104.869Z" fill="white"/>
<path d="M101.581 105.57C101.127 103.588 101.167 101.577 101.701 99.5353C102.255 97.4616 103.153 95.615 104.396 93.9956C107.149 90.4728 110.283 88.3091 113.798 87.5044C117.313 86.6997 120.408 86.9783 123.084 88.3403C125.759 89.7023 127.421 91.7971 128.068 94.6248C128.71 97.426 128.508 100.128 127.463 102.731C126.445 105.329 124.812 107.552 122.566 109.401C120.313 111.224 117.681 112.48 114.668 113.17C111.682 113.854 108.917 113.499 106.373 112.107C103.85 110.683 102.252 108.503 101.581 105.57ZM116.285 110.213C117.501 109.935 118.547 109.278 119.422 108.244C120.324 107.203 120.907 105.985 121.172 104.589C121.699 101.91 121.666 99.2751 121.073 96.6853C120.48 94.0955 119.556 92.2489 118.303 91.1454C117.043 90.0154 115.541 89.6501 113.796 90.0495C112.052 90.4488 110.582 91.9814 109.384 94.6474C108.213 97.3073 108.03 100.395 108.835 103.909C109.996 108.983 112.48 111.085 116.285 110.213Z" fill="white"/>
<path d="M135.831 83.7778C137.146 74.7595 138.748 67.1224 140.637 60.8665L145.677 60.4309C145.527 61.3359 145.151 63.5159 144.55 66.9709C143.274 74.5808 142.506 79.8233 142.248 82.6984L148.544 81.6392L148.347 84.3939L141.851 85.4868C140.669 93.4932 140.217 98.3252 140.496 99.9827C140.77 101.614 141.068 102.402 141.388 102.348C141.736 102.289 142.032 102.171 142.277 101.992C142.931 101.47 144.154 99.2574 145.944 95.3548L147.838 96.562C146.595 100.125 145.157 102.855 143.525 104.751C141.887 106.621 140.454 107.66 139.224 107.867C137.994 108.074 136.987 107.803 136.201 107.056C135.442 106.304 134.95 105.259 134.725 103.922C134.154 100.527 134.404 94.7395 135.475 86.5594L131.264 87.2678L131.46 84.5131L135.831 83.7778Z" fill="white"/>
<path d="M169.791 98.2094C169.631 96.8088 169.94 94.4951 170.718 91.2684C171.496 88.0417 171.809 85.7684 171.658 84.4486C171.505 83.1018 170.956 82.4823 170.014 82.5899C169.098 82.6944 168.055 83.482 166.886 84.9525C165.714 86.396 164.629 88.1297 163.633 90.1536C161.987 93.4248 160.377 97.1286 158.803 101.265L157.973 103.324L152.155 103.988C152.362 94.087 152.804 86.7238 153.481 81.8987C154.158 77.0736 154.86 72.9415 155.586 69.5024C156.312 66.0632 157.162 62.992 158.136 60.2886C160.32 54.0908 163.11 49.3656 166.504 46.113L169.736 47.1766C167.183 50.3877 165.11 55.7679 163.516 63.3171C161.946 70.8364 160.421 81.1473 158.943 94.2498C159.074 93.962 159.333 93.3595 159.719 92.4422C160.129 91.4949 160.445 90.7904 160.665 90.3287C160.882 89.84 161.209 89.1205 161.646 88.1702C162.11 87.2167 162.502 86.4626 162.82 85.9078C163.136 85.326 163.546 84.6108 164.049 83.762C164.579 82.9101 165.047 82.2291 165.453 81.7189C165.882 81.1788 166.39 80.6024 166.974 79.9899C167.556 79.3505 168.125 78.8353 168.681 78.4444C169.975 77.5873 171.403 77.0695 172.965 76.8912C174.527 76.7128 175.748 77.01 176.627 77.7828C177.534 78.5525 178.07 79.6646 178.236 81.1191C178.402 82.5736 178.009 85.1016 177.056 88.703C176.099 92.2776 175.667 94.4689 175.76 95.2769C175.852 96.085 176.113 96.4644 176.544 96.4152C177.676 96.2861 179.191 94.3804 181.09 90.6983L183.012 92.116C181.626 95.2757 180.075 97.7039 178.359 99.4006C176.669 101.094 175.219 102.01 174.006 102.149C172.821 102.284 171.862 102.011 171.13 101.331C170.397 100.651 169.951 99.6101 169.791 98.2094Z" fill="white"/>
<path d="M193.889 91.6146C194.234 94.7174 196.422 96.1508 200.455 95.9147C201.943 95.8276 203.461 95.3178 205.009 94.3853C206.582 93.4242 207.835 92.3324 208.768 91.1101L210.581 92.1445C208.555 96.0379 205.103 98.5483 200.227 99.6757C199.154 99.9014 198.116 100.044 197.115 100.102C194.192 100.273 191.7 99.4552 189.639 97.6478C187.576 95.8132 186.463 93.5022 186.3 90.7146C186.137 87.927 186.839 85.306 188.406 82.8516C189.972 80.3702 191.989 78.4055 194.457 76.9575C196.952 75.5079 199.444 74.7102 201.934 74.5644C204.424 74.4186 206.609 74.861 208.488 75.8916C210.395 76.9205 211.419 78.3949 211.558 80.3149C211.725 82.2333 211.267 83.9302 210.186 85.4056C209.103 86.854 207.69 87.9959 205.946 88.8312C202.485 90.4731 199.049 91.3939 195.639 91.5936L193.889 91.6146ZM193.515 89.3961C196.512 89.1119 198.893 88.4973 200.658 87.5521C202.447 86.5784 203.662 85.5296 204.302 84.4058C204.968 83.2534 205.266 82.0818 205.196 80.891C205.125 79.6731 204.762 78.7983 204.106 78.2664C203.449 77.7074 202.768 77.4485 202.064 77.4897C200.332 77.5911 198.771 78.2935 197.381 79.597C196.016 80.8718 195.006 82.3974 194.349 84.1738C193.692 85.9232 193.413 87.664 193.515 89.3961Z" fill="white"/>
<path d="M238.931 78.901C237.901 78.9117 236.688 79.5886 235.292 80.9315C233.896 82.2474 232.543 83.861 231.235 85.7724C229.152 88.8306 227.033 92.35 224.878 96.3307L223.801 98.2939L218.067 98.3534C218.067 98.3534 218.474 97.0749 219.288 94.518C221.573 87.4452 222.709 83.2582 222.696 81.957C222.682 80.6287 222.458 79.9667 222.024 79.9713C221.238 79.9794 220.313 80.9244 219.248 82.8061C219.008 83.2424 218.809 83.5969 218.649 83.8697C218.489 84.1154 218.302 84.4291 218.089 84.8109C217.903 85.1653 217.783 85.3834 217.73 85.4653L214.989 83.9077C217.068 80.4429 218.98 77.8881 220.725 76.2433C222.47 74.5714 224.264 73.7259 226.107 73.7067C226.948 73.698 227.67 74.043 228.273 74.7416C228.904 75.4399 229.225 76.2771 229.235 77.253C229.245 78.2018 229.199 79.0563 229.099 79.8165C228.998 80.5495 228.883 81.2285 228.754 81.8534C228.625 82.4783 228.443 83.2258 228.208 84.0958C227.973 84.9658 227.777 85.6321 227.619 86.0946C227.488 86.5569 227.305 87.1824 227.069 87.9711C226.833 88.7597 226.689 89.2221 226.636 89.3583C227.114 88.3773 227.926 86.9319 229.072 85.0222C230.218 83.1125 230.964 81.9118 231.312 81.4202C231.659 80.9286 232.14 80.2729 232.755 79.4532C233.37 78.6334 233.906 78.0043 234.362 77.5658C234.845 77.0999 235.409 76.5789 236.054 76.0028C236.726 75.3994 237.358 74.9455 237.951 74.6411C239.462 73.9205 240.922 73.5529 242.332 73.5383C243.742 73.5236 244.871 73.9321 245.72 74.7638C246.596 75.568 247.04 76.5259 247.051 77.6374C247.063 78.7217 246.72 79.6877 246.024 80.5354C245.355 81.3557 244.559 81.7707 243.638 81.7802C242.743 81.7895 242.037 81.6477 241.518 81.3549C241 81.0349 240.644 80.6997 240.451 80.3493C239.871 79.3793 239.365 78.8965 238.931 78.901Z" fill="white"/>
<path d="M255.713 77.9378L254.412 77.8995C254.485 75.4335 254.293 71.3731 253.836 65.7182L253.598 62.7413L260.509 62.9045C258.121 71.2419 256.522 76.253 255.713 77.9378Z" fill="white"/>
<path d="M260.973 99.161C259.256 98.4229 258.046 97.6097 257.344 96.7212C256.643 95.8056 256.327 94.8339 256.395 93.8059C256.462 92.778 256.802 91.9445 257.415 91.3057C258.028 90.6668 258.794 90.3777 259.714 90.4383C260.661 90.5006 261.467 90.839 262.133 91.4534C262.828 92.0426 263.141 92.8511 263.073 93.8791C263.007 94.88 262.33 95.6776 261.041 96.2719C262.01 97.2324 263.55 97.7821 265.66 97.9211C270.232 98.2222 272.603 97.0743 272.774 94.4774C272.881 92.8543 271.519 91.4605 268.689 90.2959C267.525 89.8118 266.35 89.2996 265.163 88.7596C264.003 88.2213 263.006 87.4764 262.172 86.5249C261.338 85.5733 260.923 84.4592 260.925 83.1824C261.046 81.3429 261.758 79.8276 263.059 78.6363C265.518 76.3531 269.034 75.3621 273.606 75.6633C275.851 75.8112 277.811 76.375 279.485 77.3547C281.161 78.3074 281.955 79.46 281.866 80.8126C281.777 82.1651 281.361 83.1158 280.618 83.6646C279.903 84.2152 279.085 84.4602 278.165 84.3996C277.246 84.339 276.477 84.0439 275.86 83.5142C275.272 82.9592 275.007 82.2354 275.066 81.3427C275.124 80.45 275.703 79.7138 276.801 79.134C276.182 78.6314 275.074 78.3275 273.478 78.2224C271.882 78.1172 270.432 78.2662 269.129 78.6694C267.827 79.0455 267.149 79.6394 267.096 80.4509C267.042 81.2625 267.458 81.969 268.342 82.5707C269.253 83.1741 270.356 83.7494 271.652 84.2966C272.947 84.8438 274.238 85.4586 275.524 86.141C276.81 86.8235 277.877 87.7496 278.723 88.9193C279.597 90.0908 279.981 91.4881 279.874 93.1112C279.767 94.7343 279.007 96.1649 277.594 97.4031C274.912 99.7532 271.394 100.785 267.039 100.498C264.739 100.346 262.717 99.9008 260.973 99.161Z" fill="white"/>
<path d="M309.978 93.0513L306.826 93.8961C304.61 87.3958 303.92 81.3428 304.758 75.7371C305.796 68.7873 308.915 63.1717 314.116 58.8903C319.152 54.7306 325.016 52.2733 331.708 51.5186C335.01 51.1348 338.406 51.2035 341.896 51.7247C345.385 52.246 348.506 53.0777 351.259 54.2199C354.013 55.3622 356.467 57.1323 358.624 59.5303C361.608 57.754 365.517 57.2269 370.351 57.9489L370.811 60.7369C366.07 60.9643 362.837 61.5632 361.113 62.5337C363.702 65.7565 365.433 69.7284 366.307 74.4494C367.185 79.1417 367.312 83.5757 366.688 87.7514C366.069 91.8984 365.307 95.337 364.402 98.0672C363.497 100.797 362.301 103.323 360.814 105.645C359.359 107.942 357.673 109.839 355.753 111.336C351.667 114.614 346.836 115.837 341.258 115.004C335.681 114.171 329.883 111.887 323.862 108.151C322.175 109.069 319.862 109.776 316.923 110.272C314.012 110.773 311.341 110.842 308.91 110.479C304.019 109.748 301.858 107.481 302.426 103.677C302.759 101.446 304.281 99.7731 306.991 98.6575C309.706 97.5134 312.922 97.2191 316.64 97.7745C320.387 98.3341 323.944 99.7719 327.311 102.088C331.134 98.4191 334.512 93.0321 337.445 85.9267C338.624 83.1205 339.895 80.2843 341.259 77.418C344.414 70.7843 349.149 65.41 355.465 61.2953C354.159 59.6675 352.317 58.2959 349.94 57.1806C347.596 56.041 345.251 55.296 342.906 54.9457C337.443 54.1296 332.378 54.4695 327.71 55.9651C323.075 57.4364 319.136 60.1227 315.893 64.0239C312.649 67.9252 310.594 72.7787 309.727 78.5846C309.099 82.7888 309.182 87.6111 309.978 93.0513ZM361.65 87.1303C362.273 82.9546 362.228 78.8545 361.513 74.8298C360.828 70.8094 359.637 67.62 357.943 65.2617C355.834 67.6366 353.826 71.3863 351.921 76.5107C348.616 85.5195 344.273 92.5751 338.891 97.6773C336.369 100.078 333.494 102.193 330.268 104.021C335.361 107.705 339.852 109.838 343.742 110.419C347.688 111.009 350.89 110.127 353.347 107.775C355.869 105.374 357.737 102.364 358.95 98.744C360.126 95.1772 361.026 91.3059 361.65 87.1303ZM321.289 105.705C317.614 103.49 314.075 102.128 310.672 101.619C307.297 101.115 305.453 101.907 305.142 103.995C304.877 105.768 306.317 106.89 309.463 107.36C311.236 107.625 313.212 107.613 315.389 107.324C317.6 107.011 319.566 106.471 321.289 105.705Z" fill="white"/>
<path d="M390.107 102.51L396.171 104.375L389.526 115.052C388.532 116.534 387.827 117.948 387.413 119.295C387.007 120.617 387.037 121.349 387.503 121.493C387.97 121.636 388.728 121.43 389.778 120.873C390.862 120.299 391.817 119.685 392.642 119.031L393.919 118.062L395.112 120.131C393.747 121.527 392.192 122.708 390.448 123.675C387.062 125.555 384.423 126.204 382.532 125.622C380.303 124.937 379.719 122.871 380.779 119.425C380.954 118.855 381.111 118.435 381.251 118.166C380.456 119.368 379.359 120.307 377.96 120.983C375.281 122.315 372.633 122.578 370.016 121.774C367.425 120.977 365.61 119.454 364.571 117.206C363.566 114.94 363.474 112.472 364.295 109.803C365.57 105.657 367.993 102.574 371.564 100.552C375.136 98.5302 378.735 98.0772 382.363 99.1928C384.177 99.7506 385.525 100.718 386.406 102.095C387.295 103.446 387.674 104.981 387.543 106.699L390.107 102.51ZM382.851 103.002C381.348 102.54 379.741 102.74 378.029 103.603C376.351 104.449 374.887 105.658 373.637 107.231C372.396 108.778 371.516 110.393 370.998 112.078C370.48 113.762 370.425 115.234 370.831 116.494C371.264 117.761 372.245 118.63 373.774 119.1C375.328 119.578 376.943 119.309 378.617 118.292C381.804 116.322 383.967 113.485 385.106 109.779C386.246 106.074 385.494 103.814 382.851 103.002Z" fill="white"/>
<path d="M400.647 117.624L398.905 115.081C401.12 113.502 403.512 112.317 406.081 111.526C408.675 110.747 410.699 110.69 412.153 111.357C414.519 112.441 415.216 114.043 414.245 116.163C413.838 117.05 412.234 118.924 409.431 121.785C406.653 124.657 405.056 126.549 404.638 127.461C404.22 128.373 404.01 128.992 404.009 129.32C404.019 129.623 404.234 129.87 404.653 130.062C406.896 131.09 409.584 131.308 412.718 130.717C415.888 130.112 418.299 128.951 419.951 127.233L425.996 120.878C426.617 120.238 427.313 119.826 428.083 119.642C428.853 119.459 429.497 119.485 430.014 119.723C430.557 119.971 430.909 120.341 431.071 120.833C431.258 121.336 431.221 121.871 430.962 122.438C430.702 123.005 430.32 123.546 429.816 124.06L423.245 130.979C419.478 135.098 414.895 138.753 409.495 141.944C412.194 143.539 414.489 145.202 416.379 146.934L415.134 148.868C412.05 146.619 409.229 144.834 406.674 143.514C402.871 145.499 399.295 146.827 395.945 147.498C392.609 148.206 390.004 148.13 388.131 147.272C386.283 146.425 385.078 145.41 384.516 144.228C383.919 143.059 383.919 141.822 384.518 140.516C385.116 139.21 386.157 138.24 387.64 137.608C389.112 137 390.825 136.742 392.782 136.833C396.766 136.989 400.972 137.963 405.4 139.754C405.926 139.518 407.384 138.516 409.774 136.749C412.176 134.957 413.568 133.776 413.949 133.205C407.892 134.902 403.2 134.988 399.873 133.463C398.518 132.842 397.741 131.934 397.543 130.74C397.356 129.521 397.573 128.234 398.195 126.878C398.816 125.523 400.383 123.438 402.896 120.623C405.444 117.795 406.82 116.159 407.024 115.716C407.238 115.248 407.235 114.963 407.013 114.861C406.816 114.771 406.566 114.731 406.263 114.741C405.971 114.726 405.646 114.786 405.286 114.919C404.963 115.04 404.652 115.165 404.353 115.297C404.065 115.404 403.714 115.585 403.298 115.842C402.907 116.11 402.604 116.314 402.391 116.455C401.5 117.031 400.919 117.421 400.647 117.624ZM402.57 141.633C400.518 140.841 398.321 140.267 395.979 139.909C391.467 139.213 388.861 139.629 388.161 141.157C387.743 142.069 388.101 142.784 389.234 143.304C390.368 143.824 392.595 143.845 395.915 143.369C399.223 142.917 401.442 142.338 402.57 141.633Z" fill="white"/>
</svg>
